<svg width="45" height="380" viewBox="0 0 45 380" fill="none" xmlns="http://www.w3.org/2000/svg">
<rect width="45" height="380" fill="#1E1E1E"/>
<rect width="45" height="380" fill="white"/>
<path d="M11.918 21.3525V22.0425H8.45508V21.3525H11.918ZM8.58691 18.6016V25H7.73877V18.6016H8.58691ZM12.6562 18.6016V25H11.8125V18.6016H12.6562ZM18.2285 24.3101V25H14.8403V24.3101H18.2285ZM15.0117 18.6016V25H14.1636V18.6016H15.0117ZM17.7803 21.3525V22.0425H14.8403V21.3525H17.7803ZM18.1846 18.6016V19.2959H14.8403V18.6016H18.1846ZM19.8281 18.6016L21.3662 21.0537L22.9043 18.6016H23.8931L21.8716 21.77L23.9414 25H22.9438L21.3662 22.4995L19.7886 25H18.791L20.8608 21.77L18.8394 18.6016H19.8281ZM31.0166 22.9653H31.8604C31.8164 23.3696 31.7007 23.7314 31.5132 24.0508C31.3257 24.3701 31.0605 24.6235 30.7178 24.811C30.375 24.9956 29.9473 25.0879 29.4346 25.0879C29.0596 25.0879 28.7183 25.0176 28.4106 24.877C28.106 24.7363 27.8438 24.5371 27.624 24.2793C27.4043 24.0186 27.2344 23.7065 27.1143 23.3433C26.9971 22.9771 26.9385 22.5698 26.9385 22.1216V21.4844C26.9385 21.0361 26.9971 20.6304 27.1143 20.2671C27.2344 19.9009 27.4058 19.5874 27.6284 19.3267C27.854 19.0659 28.125 18.8652 28.4414 18.7246C28.7578 18.584 29.1138 18.5137 29.5093 18.5137C29.9927 18.5137 30.4014 18.6045 30.7354 18.7861C31.0693 18.9678 31.3286 19.2197 31.5132 19.542C31.7007 19.8613 31.8164 20.2319 31.8604 20.6538H31.0166C30.9756 20.355 30.8994 20.0986 30.7881 19.8848C30.6768 19.668 30.5186 19.501 30.3135 19.3838C30.1084 19.2666 29.8403 19.208 29.5093 19.208C29.2251 19.208 28.9746 19.2622 28.7578 19.3706C28.5439 19.479 28.3638 19.6328 28.2173 19.832C28.0737 20.0312 27.9653 20.27 27.8921 20.5483C27.8188 20.8267 27.7822 21.1357 27.7822 21.4756V22.1216C27.7822 22.4351 27.8145 22.7295 27.8789 23.0049C27.9463 23.2803 28.0474 23.522 28.1821 23.73C28.3169 23.938 28.4883 24.1021 28.6963 24.2222C28.9043 24.3394 29.1504 24.3979 29.4346 24.3979C29.7949 24.3979 30.082 24.3408 30.2959 24.2266C30.5098 24.1123 30.6709 23.9482 30.7793 23.7344C30.8906 23.5205 30.9697 23.2642 31.0166 22.9653ZM35.0815 24.0288L36.9668 18.6016H37.8853L35.5166 25H34.8618L35.0815 24.0288ZM33.3193 18.6016L35.187 24.0288L35.4199 25H34.7651L32.4009 18.6016H33.3193Z" fill="black"/>
<circle cx="22" cy="246" r="12" fill="#D9D9D9"/>
<circle cx="22" cy="274" r="12" fill="#D9D9D9"/>
<circle cx="22" cy="302" r="12" fill="#D9D9D9"/>
<circle cx="22" cy="218" r="12" fill="#D9D9D9"/>
<path d="M15.834 196.97H14.8394V199H14.2104V194.023H15.6699C15.9023 194.028 16.1211 194.061 16.3262 194.123C16.5312 194.184 16.7113 194.276 16.8662 194.399C17.0189 194.522 17.1385 194.677 17.2251 194.864C17.314 195.049 17.3584 195.266 17.3584 195.517C17.3584 195.679 17.3345 195.827 17.2866 195.961C17.241 196.096 17.1772 196.218 17.0952 196.327C17.0132 196.437 16.9152 196.533 16.8013 196.618C16.6873 196.702 16.562 196.774 16.4253 196.833L17.4814 198.959L17.478 199H16.8115L15.834 196.97ZM14.8394 196.45H15.687C15.8283 196.448 15.9616 196.426 16.0869 196.385C16.2122 196.342 16.3228 196.28 16.4185 196.201C16.5119 196.121 16.5859 196.024 16.6406 195.91C16.6953 195.794 16.7227 195.661 16.7227 195.51C16.7227 195.351 16.6965 195.212 16.644 195.093C16.5916 194.972 16.5187 194.871 16.4253 194.789C16.3319 194.709 16.2202 194.649 16.0903 194.608C15.9627 194.567 15.8226 194.545 15.6699 194.543H14.8394V196.45ZM21.1284 196.7H19.0503V198.463H21.4736V199H18.418V194.023H21.4429V194.563H19.0503V196.163H21.1284V196.7ZM24.9702 197.711H23.3091L22.9092 199H22.2769L23.8833 194.023H24.4131L25.9922 199H25.3633L24.9702 197.711ZM23.48 197.161H24.8027L24.1465 195.001L23.48 197.161ZM26.7339 199V194.023H27.8857C28.0794 194.026 28.2617 194.046 28.4326 194.085C28.6058 194.121 28.7653 194.174 28.9111 194.242C29.1139 194.336 29.2928 194.459 29.4478 194.611C29.605 194.762 29.7303 194.936 29.8237 195.134C29.908 195.303 29.9718 195.487 30.0151 195.688C30.0607 195.889 30.0846 196.103 30.0869 196.331V196.696C30.0869 196.915 30.0653 197.122 30.022 197.318C29.981 197.514 29.9206 197.694 29.8408 197.858C29.7588 198.029 29.6551 198.184 29.5298 198.323C29.4045 198.462 29.2643 198.581 29.1094 198.679C28.9453 198.781 28.7596 198.86 28.5522 198.915C28.3472 198.969 28.125 198.998 27.8857 199H26.7339ZM27.3765 194.543V198.484H27.8857C28.068 198.482 28.2332 198.459 28.3813 198.416C28.5317 198.372 28.665 198.311 28.7812 198.231C28.9043 198.149 29.0103 198.049 29.0991 197.93C29.1903 197.809 29.262 197.675 29.3145 197.527C29.36 197.406 29.3942 197.276 29.417 197.137C29.4398 196.996 29.4523 196.849 29.4546 196.696V196.324C29.4523 196.169 29.4386 196.021 29.4136 195.879C29.3908 195.736 29.3555 195.603 29.3076 195.479C29.2461 195.32 29.1629 195.176 29.0581 195.049C28.9556 194.919 28.8291 194.814 28.6787 194.734C28.5716 194.675 28.452 194.63 28.3198 194.598C28.1877 194.563 28.043 194.545 27.8857 194.543H27.3765Z" fill="black"/>
<path d="M12.3442 59L11.7393 54.0234H12.3408L12.6997 57.4551L12.7202 57.6533L12.7578 57.4482L13.3594 54.0234H13.9097L14.5146 57.4517L14.5522 57.6533L14.5728 57.4482L14.9316 54.0234H15.5298L14.9248 59H14.2788L13.6738 55.459L13.6396 55.2505L13.6021 55.4624L12.9937 59H12.3442ZM17.936 56.9697H16.9414V59H16.3125V54.0234H17.772C18.0044 54.028 18.2231 54.061 18.4282 54.1226C18.6333 54.1841 18.8133 54.2764 18.9683 54.3994C19.1209 54.5225 19.2406 54.6774 19.3271 54.8643C19.416 55.0488 19.4604 55.2664 19.4604 55.5171C19.4604 55.6789 19.4365 55.827 19.3887 55.9614C19.3431 56.0959 19.2793 56.2178 19.1973 56.3271C19.1152 56.4365 19.0173 56.5334 18.9033 56.6177C18.7894 56.702 18.6641 56.7738 18.5273 56.833L19.5835 58.959L19.5801 59H18.9136L17.936 56.9697ZM16.9414 56.4502H17.7891C17.9303 56.4479 18.0636 56.4263 18.189 56.3853C18.3143 56.342 18.4248 56.2804 18.5205 56.2007C18.6139 56.1209 18.688 56.0241 18.7427 55.9102C18.7974 55.7939 18.8247 55.6606 18.8247 55.5103C18.8247 55.3507 18.7985 55.2118 18.7461 55.0933C18.6937 54.9725 18.6208 54.8711 18.5273 54.7891C18.4339 54.7093 18.3223 54.6489 18.1924 54.6079C18.0648 54.5669 17.9246 54.5452 17.772 54.543H16.9414V56.4502ZM20.4927 54.0234H23.5005V54.5737H22.3076V58.4531H23.5005V59H20.4927V58.4531H21.6582V54.5737H20.4927V54.0234ZM28.0532 54.5635H26.5151V59H25.8999V54.5635H24.3618V54.0234H28.0532V54.5635ZM31.6387 56.6997H29.5605V58.4634H31.9839V59H28.9282V54.0234H31.9531V54.5635H29.5605V56.1631H31.6387V56.6997Z" fill="black"/>
<circle cx="22" cy="106" r="12" fill="#D9D9D9"/>
<circle cx="22" cy="162" r="12" fill="#D9D9D9"/>
<circle cx="22" cy="78" r="12" fill="#D9D9D9"/>
<path d="M12.0776 339V334.023H13.5576C13.7627 334.026 13.9632 334.053 14.1592 334.105C14.3551 334.156 14.5295 334.234 14.6821 334.341C14.8348 334.448 14.9567 334.585 15.0479 334.751C15.139 334.918 15.1834 335.117 15.1812 335.35C15.1789 335.479 15.1572 335.598 15.1162 335.705C15.0775 335.812 15.0239 335.908 14.9556 335.992C14.8849 336.079 14.8063 336.152 14.7197 336.211C14.6354 336.27 14.5329 336.326 14.4121 336.378V336.389C14.5374 336.418 14.6582 336.472 14.7744 336.549C14.8906 336.627 14.9863 336.712 15.0615 336.806C15.1413 336.908 15.2028 337.023 15.2461 337.151C15.2917 337.278 15.3145 337.416 15.3145 337.564C15.3167 337.797 15.2723 338.002 15.1812 338.18C15.09 338.357 14.9681 338.506 14.8154 338.624C14.6628 338.745 14.4862 338.837 14.2856 338.901C14.0874 338.965 13.8823 338.998 13.6704 339H12.0776ZM12.7134 336.672V338.463H13.6875C13.8197 338.461 13.945 338.439 14.0635 338.398C14.182 338.355 14.2868 338.296 14.3779 338.221C14.4691 338.146 14.5409 338.053 14.5933 337.944C14.6479 337.834 14.6753 337.71 14.6753 337.571C14.6776 337.43 14.6536 337.305 14.6035 337.195C14.5557 337.086 14.4884 336.993 14.4019 336.915C14.3153 336.84 14.2139 336.782 14.0977 336.741C13.9814 336.7 13.8561 336.677 13.7217 336.672H12.7134ZM12.7134 336.146H13.5952C13.7137 336.144 13.8299 336.125 13.9438 336.091C14.0578 336.055 14.1592 336.002 14.248 335.934C14.3369 335.868 14.4087 335.786 14.4634 335.688C14.5181 335.59 14.5454 335.476 14.5454 335.346C14.5454 335.207 14.5181 335.089 14.4634 334.991C14.411 334.893 14.3403 334.812 14.2515 334.748C14.1603 334.687 14.0555 334.641 13.937 334.611C13.8208 334.582 13.7012 334.566 13.5781 334.563H12.7134V336.146ZM17.0029 338.463H19.4365V339H16.3706V334.023H17.0029V338.463ZM23.2305 336.7H21.1523V338.463H23.5757V339H20.52V334.023H23.5449V334.563H21.1523V336.163H23.2305V336.7ZM27.814 339H27.1714L25.2402 335.281L25.23 339H24.5908V334.023H25.2334L27.1646 337.735L27.1748 334.023H27.814V339ZM28.8359 339V334.023H29.9878C30.1815 334.026 30.3638 334.046 30.5347 334.085C30.7078 334.121 30.8674 334.174 31.0132 334.242C31.216 334.336 31.3949 334.459 31.5498 334.611C31.707 334.762 31.8324 334.936 31.9258 335.134C32.0101 335.303 32.0739 335.487 32.1172 335.688C32.1628 335.889 32.1867 336.103 32.189 336.331V336.696C32.189 336.915 32.1673 337.122 32.124 337.318C32.083 337.514 32.0226 337.694 31.9429 337.858C31.8608 338.029 31.7572 338.184 31.6318 338.323C31.5065 338.462 31.3664 338.581 31.2114 338.679C31.0474 338.781 30.8617 338.86 30.6543 338.915C30.4492 338.969 30.2271 338.998 29.9878 339H28.8359ZM29.4785 334.543V338.484H29.9878C30.1701 338.482 30.3353 338.459 30.4834 338.416C30.6338 338.372 30.7671 338.311 30.8833 338.231C31.0063 338.149 31.1123 338.049 31.2012 337.93C31.2923 337.809 31.3641 337.675 31.4165 337.527C31.4621 337.406 31.4963 337.276 31.519 337.137C31.5418 336.996 31.5544 336.849 31.5566 336.696V336.324C31.5544 336.169 31.5407 336.021 31.5156 335.879C31.4928 335.736 31.4575 335.603 31.4097 335.479C31.3481 335.32 31.265 335.176 31.1602 335.049C31.0576 334.919 30.9312 334.814 30.7808 334.734C30.6737 334.675 30.554 334.63 30.4219 334.598C30.2897 334.563 30.145 334.545 29.9878 334.543H29.4785Z" fill="black"/>
<circle cx="22" cy="358" r="12" fill="#D9D9D9"/>
<circle cx="22" cy="134" r="12" fill="#D9D9D9"/>
</svg>
