<?xml version="1.0" encoding="UTF-8" standalone="no"?>
<svg
   width="150"
   height="380"
   viewBox="0 0 150 380"
   fill="none"
   version="1.1"
   id="svg13"
   sodipodi:docname="HexNutFlat.svg"
   inkscape:version="1.3 (0e150ed, 2023-07-21)"
   xmlns:inkscape="http://www.inkscape.org/namespaces/inkscape"
   xmlns:sodipodi="http://sodipodi.sourceforge.net/DTD/sodipodi-0.dtd"
   xmlns="http://www.w3.org/2000/svg"
   xmlns:svg="http://www.w3.org/2000/svg">
  <defs
     id="defs13" />
  <sodipodi:namedview
     id="namedview13"
     pagecolor="#ffffff"
     bordercolor="#000000"
     borderopacity="0.25"
     inkscape:showpageshadow="2"
     inkscape:pageopacity="0.0"
     inkscape:pagecheckerboard="0"
     inkscape:deskcolor="#d1d1d1"
     inkscape:zoom="2.5157895"
     inkscape:cx="75.125523"
     inkscape:cy="190"
     inkscape:window-width="1392"
     inkscape:window-height="1099"
     inkscape:window-x="0"
     inkscape:window-y="25"
     inkscape:window-maximized="0"
     inkscape:current-layer="svg13" />
  <rect
     width="150"
     height="380"
     fill="#1E1E1E"
     id="rect1" />
  <rect
     width="150"
     height="380"
     fill="white"
     id="rect2" />
  <path
     d="M15.3906 334.023H18.3984V334.574H17.2056V338.453H18.3984V339H15.3906V338.453H16.5562V334.574H15.3906V334.023ZM22.7119 339H22.0693L20.1382 335.281L20.1279 339H19.4888V334.023H20.1313L22.0625 337.735L22.0728 334.023H22.7119V339Z"
     fill="black"
     id="path2" />
  <path
     d="M37.3442 199L36.7393 194.023H37.3408L37.6997 197.455L37.7202 197.653L37.7578 197.448L38.3594 194.023H38.9097L39.5146 197.452L39.5522 197.653L39.5728 197.448L39.9316 194.023H40.5298L39.9248 199H39.2788L38.6738 195.459L38.6396 195.25L38.6021 195.462L37.9937 199H37.3442ZM42.936 196.97H41.9414V199H41.3125V194.023H42.772C43.0044 194.028 43.2231 194.061 43.4282 194.123C43.6333 194.184 43.8133 194.276 43.9683 194.399C44.1209 194.522 44.2406 194.677 44.3271 194.864C44.416 195.049 44.4604 195.266 44.4604 195.517C44.4604 195.679 44.4365 195.827 44.3887 195.961C44.3431 196.096 44.2793 196.218 44.1973 196.327C44.1152 196.437 44.0173 196.533 43.9033 196.618C43.7894 196.702 43.6641 196.774 43.5273 196.833L44.5835 198.959L44.5801 199H43.9136L42.936 196.97ZM41.9414 196.45H42.7891C42.9303 196.448 43.0636 196.426 43.189 196.385C43.3143 196.342 43.4248 196.28 43.5205 196.201C43.6139 196.121 43.688 196.024 43.7427 195.91C43.7974 195.794 43.8247 195.661 43.8247 195.51C43.8247 195.351 43.7985 195.212 43.7461 195.093C43.6937 194.972 43.6208 194.871 43.5273 194.789C43.4339 194.709 43.3223 194.649 43.1924 194.608C43.0648 194.567 42.9246 194.545 42.772 194.543H41.9414V196.45ZM45.4927 194.023H48.5005V194.574H47.3076V198.453H48.5005V199H45.4927V198.453H46.6582V194.574H45.4927V194.023ZM53.0532 194.563H51.5151V199H50.8999V194.563H49.3618V194.023H53.0532V194.563ZM56.6387 196.7H54.5605V198.463H56.9839V199H53.9282V194.023H56.9531V194.563H54.5605V196.163H56.6387V196.7Z"
     fill="black"
     id="path3" />
  <path
     d="M37.0776 311V306.023H38.5576C38.7627 306.026 38.9632 306.053 39.1592 306.105C39.3551 306.156 39.5295 306.234 39.6821 306.341C39.8348 306.448 39.9567 306.585 40.0479 306.751C40.139 306.918 40.1834 307.117 40.1812 307.35C40.1789 307.479 40.1572 307.598 40.1162 307.705C40.0775 307.812 40.0239 307.908 39.9556 307.992C39.8849 308.079 39.8063 308.152 39.7197 308.211C39.6354 308.27 39.5329 308.326 39.4121 308.378V308.389C39.5374 308.418 39.6582 308.472 39.7744 308.549C39.8906 308.627 39.9863 308.712 40.0615 308.806C40.1413 308.908 40.2028 309.023 40.2461 309.151C40.2917 309.278 40.3145 309.416 40.3145 309.564C40.3167 309.797 40.2723 310.002 40.1812 310.18C40.09 310.357 39.9681 310.506 39.8154 310.624C39.6628 310.745 39.4862 310.837 39.2856 310.901C39.0874 310.965 38.8823 310.998 38.6704 311H37.0776ZM37.7134 308.672V310.463H38.6875C38.8197 310.461 38.945 310.439 39.0635 310.398C39.182 310.355 39.2868 310.296 39.3779 310.221C39.4691 310.146 39.5409 310.053 39.5933 309.944C39.6479 309.834 39.6753 309.71 39.6753 309.571C39.6776 309.43 39.6536 309.305 39.6035 309.195C39.5557 309.086 39.4884 308.993 39.4019 308.915C39.3153 308.84 39.2139 308.782 39.0977 308.741C38.9814 308.7 38.8561 308.677 38.7217 308.672H37.7134ZM37.7134 308.146H38.5952C38.7137 308.144 38.8299 308.125 38.9438 308.091C39.0578 308.055 39.1592 308.002 39.248 307.934C39.3369 307.868 39.4087 307.786 39.4634 307.688C39.5181 307.59 39.5454 307.476 39.5454 307.346C39.5454 307.207 39.5181 307.089 39.4634 306.991C39.411 306.893 39.3403 306.812 39.2515 306.748C39.1603 306.687 39.0555 306.641 38.937 306.611C38.8208 306.582 38.7012 306.566 38.5781 306.563H37.7134V308.146ZM42.0029 310.463H44.4365V311H41.3706V306.023H42.0029V310.463ZM48.2305 308.7H46.1523V310.463H48.5757V311H45.52V306.023H48.5449V306.563H46.1523V308.163H48.2305V308.7ZM52.814 311H52.1714L50.2402 307.281L50.23 311H49.5908V306.023H50.2334L52.1646 309.735L52.1748 306.023H52.814V311ZM53.8359 311V306.023H54.9878C55.1815 306.026 55.3638 306.046 55.5347 306.085C55.7078 306.121 55.8674 306.174 56.0132 306.242C56.216 306.336 56.3949 306.459 56.5498 306.611C56.707 306.762 56.8324 306.936 56.9258 307.134C57.0101 307.303 57.0739 307.487 57.1172 307.688C57.1628 307.889 57.1867 308.103 57.189 308.331V308.696C57.189 308.915 57.1673 309.122 57.124 309.318C57.083 309.514 57.0226 309.694 56.9429 309.858C56.8608 310.029 56.7572 310.184 56.6318 310.323C56.5065 310.462 56.3664 310.581 56.2114 310.679C56.0474 310.781 55.8617 310.86 55.6543 310.915C55.4492 310.969 55.2271 310.998 54.9878 311H53.8359ZM54.4785 306.543V310.484H54.9878C55.1701 310.482 55.3353 310.459 55.4834 310.416C55.6338 310.372 55.7671 310.311 55.8833 310.231C56.0063 310.149 56.1123 310.049 56.2012 309.93C56.2923 309.809 56.3641 309.675 56.4165 309.527C56.4621 309.406 56.4963 309.276 56.519 309.137C56.5418 308.996 56.5544 308.849 56.5566 308.696V308.324C56.5544 308.169 56.5407 308.021 56.5156 307.879C56.4928 307.736 56.4575 307.603 56.4097 307.479C56.3481 307.32 56.265 307.176 56.1602 307.049C56.0576 306.919 55.9312 306.814 55.7808 306.734C55.6737 306.675 55.554 306.63 55.4219 306.598C55.2897 306.563 55.145 306.545 54.9878 306.543H54.4785Z"
     fill="black"
     id="path4" />
  <path
     d="M93.5869 309.742C93.5869 309.59 93.5516 309.461 93.481 309.356C93.4126 309.251 93.3237 309.162 93.2144 309.089C93.105 309.019 92.9842 308.959 92.8521 308.912C92.7222 308.864 92.5968 308.82 92.4761 308.782C92.3006 308.725 92.1217 308.656 91.9395 308.577C91.7594 308.495 91.5954 308.397 91.4473 308.283C91.2969 308.167 91.1738 308.03 91.0781 307.873C90.9847 307.713 90.938 307.526 90.938 307.312C90.938 307.098 90.9847 306.906 91.0781 306.738C91.1738 306.569 91.298 306.427 91.4507 306.311C91.6034 306.194 91.7765 306.107 91.9702 306.047C92.1639 305.986 92.3587 305.955 92.5547 305.955C92.7712 305.955 92.9797 305.992 93.1802 306.064C93.3807 306.135 93.5584 306.235 93.7134 306.365C93.8683 306.495 93.9925 306.652 94.0859 306.837C94.1794 307.021 94.2284 307.228 94.2329 307.456H93.5835C93.5653 307.312 93.5299 307.182 93.4775 307.066C93.4251 306.947 93.3556 306.846 93.269 306.762C93.1825 306.677 93.0788 306.612 92.958 306.567C92.8395 306.519 92.7051 306.495 92.5547 306.495C92.4339 306.495 92.3154 306.512 92.1992 306.546C92.0853 306.581 91.9839 306.632 91.895 306.7C91.8039 306.769 91.731 306.853 91.6763 306.953C91.6239 307.053 91.5977 307.17 91.5977 307.302C91.5999 307.445 91.6364 307.567 91.707 307.667C91.7777 307.765 91.8677 307.849 91.9771 307.917C92.0841 307.985 92.2004 308.042 92.3257 308.088C92.4533 308.133 92.5729 308.173 92.6846 308.208C92.8691 308.264 93.0537 308.334 93.2383 308.416C93.4229 308.496 93.5915 308.598 93.7441 308.724C93.8945 308.84 94.0153 308.982 94.1064 309.151C94.1999 309.319 94.2466 309.514 94.2466 309.735C94.2466 309.959 94.1965 310.153 94.0962 310.32C93.9982 310.486 93.8706 310.624 93.7134 310.733C93.5562 310.845 93.3784 310.929 93.1802 310.986C92.9819 311.041 92.7837 311.068 92.5854 311.068C92.3485 311.068 92.1149 311.028 91.8848 310.949C91.6569 310.869 91.4587 310.754 91.29 310.604C91.1396 310.474 91.02 310.322 90.9312 310.149C90.8446 309.973 90.7979 309.779 90.791 309.564H91.437C91.4575 309.719 91.4997 309.857 91.5635 309.978C91.6273 310.097 91.7093 310.197 91.8096 310.279C91.9098 310.363 92.0249 310.427 92.1548 310.47C92.2869 310.511 92.4305 310.532 92.5854 310.532C92.7085 310.532 92.8293 310.517 92.9478 310.487C93.0685 310.455 93.1756 310.406 93.269 310.34C93.3625 310.277 93.4388 310.196 93.498 310.098C93.5573 309.997 93.5869 309.879 93.5869 309.742ZM95.877 309.004V311H95.2446V306.023H96.8579C97.0812 306.028 97.292 306.063 97.4902 306.129C97.6908 306.195 97.8662 306.291 98.0166 306.417C98.167 306.542 98.2855 306.697 98.3721 306.881C98.4609 307.066 98.5054 307.278 98.5054 307.517C98.5054 307.756 98.4609 307.968 98.3721 308.153C98.2855 308.335 98.167 308.489 98.0166 308.614C97.8662 308.74 97.6908 308.835 97.4902 308.901C97.292 308.967 97.0812 309.002 96.8579 309.004H95.877ZM95.877 308.484H96.8579C97.0037 308.482 97.1382 308.459 97.2612 308.416C97.3843 308.37 97.4914 308.307 97.5825 308.225C97.6737 308.143 97.7443 308.043 97.7944 307.927C97.8468 307.809 97.873 307.674 97.873 307.524C97.873 307.374 97.8468 307.238 97.7944 307.117C97.7443 306.996 97.6748 306.894 97.5859 306.81C97.4948 306.725 97.3866 306.66 97.2612 306.615C97.1382 306.569 97.0037 306.545 96.8579 306.543H95.877V308.484ZM101.038 308.97H100.043V311H99.4146V306.023H100.874C101.106 306.028 101.325 306.061 101.53 306.123C101.735 306.184 101.915 306.276 102.07 306.399C102.223 306.522 102.343 306.677 102.429 306.864C102.518 307.049 102.562 307.266 102.562 307.517C102.562 307.679 102.539 307.827 102.491 307.961C102.445 308.096 102.381 308.218 102.299 308.327C102.217 308.437 102.119 308.533 102.005 308.618C101.891 308.702 101.766 308.774 101.629 308.833L102.686 310.959L102.682 311H102.016L101.038 308.97ZM100.043 308.45H100.891C101.032 308.448 101.166 308.426 101.291 308.385C101.416 308.342 101.527 308.28 101.623 308.201C101.716 308.121 101.79 308.024 101.845 307.91C101.899 307.794 101.927 307.661 101.927 307.51C101.927 307.351 101.901 307.212 101.848 307.093C101.796 306.972 101.723 306.871 101.629 306.789C101.536 306.709 101.424 306.649 101.294 306.608C101.167 306.567 101.027 306.545 100.874 306.543H100.043V308.45ZM106.333 308.7H104.254V310.463H106.678V311H103.622V306.023H106.647V306.563H104.254V308.163H106.333V308.7ZM110.174 309.711H108.513L108.113 311H107.481L109.087 306.023H109.617L111.196 311H110.567L110.174 309.711ZM108.684 309.161H110.007L109.351 307.001L108.684 309.161ZM111.938 311V306.023H113.09C113.284 306.026 113.466 306.046 113.637 306.085C113.81 306.121 113.969 306.174 114.115 306.242C114.318 306.336 114.497 306.459 114.652 306.611C114.809 306.762 114.934 306.936 115.028 307.134C115.112 307.303 115.176 307.487 115.219 307.688C115.265 307.889 115.289 308.103 115.291 308.331V308.696C115.291 308.915 115.269 309.122 115.226 309.318C115.185 309.514 115.125 309.694 115.045 309.858C114.963 310.029 114.859 310.184 114.734 310.323C114.609 310.462 114.468 310.581 114.313 310.679C114.149 310.781 113.964 310.86 113.756 310.915C113.551 310.969 113.329 310.998 113.09 311H111.938ZM112.581 306.543V310.484H113.09C113.272 310.482 113.437 310.459 113.585 310.416C113.736 310.372 113.869 310.311 113.985 310.231C114.108 310.149 114.214 310.049 114.303 309.93C114.394 309.809 114.466 309.675 114.519 309.527C114.564 309.406 114.598 309.276 114.621 309.137C114.644 308.996 114.656 308.849 114.659 308.696V308.324C114.656 308.169 114.643 308.021 114.618 307.879C114.595 307.736 114.56 307.603 114.512 307.479C114.45 307.32 114.367 307.176 114.262 307.049C114.16 306.919 114.033 306.814 113.883 306.734C113.776 306.675 113.656 306.63 113.524 306.598C113.392 306.563 113.247 306.545 113.09 306.543H112.581Z"
     fill="black"
     id="path5" />
  <path
     d="M70.4097 309.503C70.38 309.733 70.3208 309.945 70.2319 310.139C70.1431 310.33 70.028 310.494 69.8867 310.631C69.7432 310.77 69.5734 310.878 69.3774 310.956C69.1838 311.031 68.9673 311.068 68.728 311.068C68.5229 311.068 68.3361 311.04 68.1675 310.983C68.0011 310.924 67.853 310.843 67.7231 310.74C67.591 310.638 67.4771 310.517 67.3813 310.378C67.2879 310.239 67.2104 310.087 67.1489 309.923C67.0851 309.759 67.0373 309.587 67.0054 309.407C66.9757 309.227 66.9598 309.045 66.9575 308.86V308.167C66.9598 307.982 66.9757 307.8 67.0054 307.62C67.0373 307.44 67.0851 307.268 67.1489 307.104C67.2104 306.939 67.2879 306.788 67.3813 306.649C67.4771 306.508 67.591 306.386 67.7231 306.283C67.853 306.181 68.0011 306.101 68.1675 306.044C68.3338 305.985 68.5207 305.955 68.728 305.955C68.9764 305.955 69.1986 305.994 69.3945 306.071C69.5905 306.146 69.7591 306.254 69.9004 306.393C70.0417 306.534 70.1545 306.702 70.2388 306.898C70.3254 307.094 70.3823 307.311 70.4097 307.548H69.7773C69.7568 307.397 69.7215 307.257 69.6714 307.127C69.6213 306.998 69.554 306.884 69.4697 306.786C69.3854 306.688 69.2817 306.611 69.1587 306.557C69.0379 306.5 68.8944 306.471 68.728 306.471C68.5776 306.471 68.4443 306.496 68.3281 306.546C68.2142 306.594 68.1162 306.66 68.0342 306.745C67.9499 306.829 67.8792 306.927 67.8223 307.039C67.7676 307.15 67.7231 307.269 67.689 307.394C67.6548 307.519 67.6297 307.648 67.6138 307.78C67.6001 307.91 67.5933 308.037 67.5933 308.16V308.86C67.5933 308.983 67.6001 309.111 67.6138 309.243C67.6297 309.373 67.6548 309.501 67.689 309.626C67.7231 309.754 67.7676 309.873 67.8223 309.985C67.877 310.097 67.9465 310.194 68.0308 310.279C68.1151 310.365 68.2142 310.434 68.3281 310.484C68.4421 310.532 68.5754 310.556 68.728 310.556C68.8944 310.556 69.0379 310.529 69.1587 310.477C69.2817 310.425 69.3854 310.351 69.4697 310.255C69.554 310.161 69.6213 310.051 69.6714 309.923C69.7215 309.793 69.7568 309.653 69.7773 309.503H70.4097ZM72.105 310.463H74.5386V311H71.4727V306.023H72.105V310.463ZM75.5947 306.023H78.6025V306.574H77.4097V310.453H78.6025V311H75.5947V310.453H76.7603V306.574H75.5947V306.023ZM80.4893 309.004V311H79.8569V306.023H81.4702C81.6935 306.028 81.9043 306.063 82.1025 306.129C82.3031 306.195 82.4785 306.291 82.6289 306.417C82.7793 306.542 82.8978 306.697 82.9844 306.881C83.0732 307.066 83.1177 307.278 83.1177 307.517C83.1177 307.756 83.0732 307.968 82.9844 308.153C82.8978 308.335 82.7793 308.489 82.6289 308.614C82.4785 308.74 82.3031 308.835 82.1025 308.901C81.9043 308.967 81.6935 309.002 81.4702 309.004H80.4893ZM80.4893 308.484H81.4702C81.616 308.482 81.7505 308.459 81.8735 308.416C81.9966 308.37 82.1037 308.307 82.1948 308.225C82.286 308.143 82.3566 308.043 82.4067 307.927C82.4591 307.809 82.4854 307.674 82.4854 307.524C82.4854 307.374 82.4591 307.238 82.4067 307.117C82.3566 306.996 82.2871 306.894 82.1982 306.81C82.1071 306.725 81.9989 306.66 81.8735 306.615C81.7505 306.569 81.616 306.545 81.4702 306.543H80.4893V308.484Z"
     fill="black"
     id="path6" />
  <path
     d="M13.791 225.742C13.791 225.59 13.7557 225.461 13.6851 225.356C13.6167 225.251 13.5278 225.162 13.4185 225.089C13.3091 225.019 13.1883 224.959 13.0562 224.912C12.9263 224.864 12.8009 224.82 12.6802 224.782C12.5047 224.725 12.3258 224.656 12.1436 224.577C11.9635 224.495 11.7995 224.397 11.6514 224.283C11.501 224.167 11.3779 224.03 11.2822 223.873C11.1888 223.713 11.1421 223.526 11.1421 223.312C11.1421 223.098 11.1888 222.906 11.2822 222.738C11.3779 222.569 11.5021 222.427 11.6548 222.311C11.8075 222.194 11.9806 222.107 12.1743 222.047C12.368 221.986 12.5628 221.955 12.7588 221.955C12.9753 221.955 13.1838 221.992 13.3843 222.064C13.5848 222.135 13.7625 222.235 13.9175 222.365C14.0724 222.495 14.1966 222.652 14.29 222.837C14.3835 223.021 14.4325 223.228 14.437 223.456H13.7876C13.7694 223.312 13.734 223.182 13.6816 223.066C13.6292 222.947 13.5597 222.846 13.4731 222.762C13.3866 222.677 13.2829 222.612 13.1621 222.567C13.0436 222.519 12.9092 222.495 12.7588 222.495C12.638 222.495 12.5195 222.512 12.4033 222.546C12.2894 222.581 12.188 222.632 12.0991 222.7C12.008 222.769 11.9351 222.853 11.8804 222.953C11.828 223.053 11.8018 223.17 11.8018 223.302C11.804 223.445 11.8405 223.567 11.9111 223.667C11.9818 223.765 12.0718 223.849 12.1812 223.917C12.2882 223.985 12.4045 224.042 12.5298 224.088C12.6574 224.133 12.777 224.173 12.8887 224.208C13.0732 224.264 13.2578 224.334 13.4424 224.416C13.627 224.496 13.7956 224.598 13.9482 224.724C14.0986 224.84 14.2194 224.982 14.3105 225.151C14.404 225.319 14.4507 225.514 14.4507 225.735C14.4507 225.959 14.4006 226.153 14.3003 226.32C14.2023 226.486 14.0747 226.624 13.9175 226.733C13.7603 226.845 13.5825 226.929 13.3843 226.986C13.186 227.041 12.9878 227.068 12.7896 227.068C12.5526 227.068 12.319 227.028 12.0889 226.949C11.861 226.869 11.6628 226.754 11.4941 226.604C11.3438 226.474 11.2241 226.322 11.1353 226.149C11.0487 225.973 11.002 225.779 10.9951 225.564H11.6411C11.6616 225.719 11.7038 225.857 11.7676 225.978C11.8314 226.097 11.9134 226.197 12.0137 226.279C12.1139 226.363 12.229 226.427 12.3589 226.47C12.491 226.511 12.6346 226.532 12.7896 226.532C12.9126 226.532 13.0334 226.517 13.1519 226.487C13.2726 226.455 13.3797 226.406 13.4731 226.34C13.5666 226.277 13.6429 226.196 13.7021 226.098C13.7614 225.997 13.791 225.879 13.791 225.742ZM15.3906 222.023H18.3984V222.574H17.2056V226.453H18.3984V227H15.3906V226.453H16.5562V222.574H15.3906V222.023ZM20.1108 226.463H22.688V227H19.3965L19.3896 226.508L21.8677 222.563H19.4341V222.023H22.5889L22.5957 222.505L20.1108 226.463ZM26.5366 224.7H24.4585V226.463H26.8818V227H23.8262V222.023H26.8511V222.563H24.4585V224.163H26.5366V224.7Z"
     fill="black"
     id="path7" />
  <path
     d="M125.791 225.742C125.791 225.59 125.756 225.461 125.685 225.356C125.617 225.251 125.528 225.162 125.418 225.089C125.309 225.019 125.188 224.959 125.056 224.912C124.926 224.864 124.801 224.82 124.68 224.782C124.505 224.725 124.326 224.656 124.144 224.577C123.964 224.495 123.799 224.397 123.651 224.283C123.501 224.167 123.378 224.03 123.282 223.873C123.189 223.713 123.142 223.526 123.142 223.312C123.142 223.098 123.189 222.906 123.282 222.738C123.378 222.569 123.502 222.427 123.655 222.311C123.807 222.194 123.981 222.107 124.174 222.047C124.368 221.986 124.563 221.955 124.759 221.955C124.975 221.955 125.184 221.992 125.384 222.064C125.585 222.135 125.763 222.235 125.917 222.365C126.072 222.495 126.197 222.652 126.29 222.837C126.383 223.021 126.432 223.228 126.437 223.456H125.788C125.769 223.312 125.734 223.182 125.682 223.066C125.629 222.947 125.56 222.846 125.473 222.762C125.387 222.677 125.283 222.612 125.162 222.567C125.044 222.519 124.909 222.495 124.759 222.495C124.638 222.495 124.52 222.512 124.403 222.546C124.289 222.581 124.188 222.632 124.099 222.7C124.008 222.769 123.935 222.853 123.88 222.953C123.828 223.053 123.802 223.17 123.802 223.302C123.804 223.445 123.84 223.567 123.911 223.667C123.982 223.765 124.072 223.849 124.181 223.917C124.288 223.985 124.404 224.042 124.53 224.088C124.657 224.133 124.777 224.173 124.889 224.208C125.073 224.264 125.258 224.334 125.442 224.416C125.627 224.496 125.796 224.598 125.948 224.724C126.099 224.84 126.219 224.982 126.311 225.151C126.404 225.319 126.451 225.514 126.451 225.735C126.451 225.959 126.401 226.153 126.3 226.32C126.202 226.486 126.075 226.624 125.917 226.733C125.76 226.845 125.583 226.929 125.384 226.986C125.186 227.041 124.988 227.068 124.79 227.068C124.553 227.068 124.319 227.028 124.089 226.949C123.861 226.869 123.663 226.754 123.494 226.604C123.344 226.474 123.224 226.322 123.135 226.149C123.049 225.973 123.002 225.779 122.995 225.564H123.641C123.662 225.719 123.704 225.857 123.768 225.978C123.831 226.097 123.913 226.197 124.014 226.279C124.114 226.363 124.229 226.427 124.359 226.47C124.491 226.511 124.635 226.532 124.79 226.532C124.913 226.532 125.033 226.517 125.152 226.487C125.273 226.455 125.38 226.406 125.473 226.34C125.567 226.277 125.643 226.196 125.702 226.098C125.761 225.997 125.791 225.879 125.791 225.742ZM127.391 222.023H130.398V222.574H129.206V226.453H130.398V227H127.391V226.453H128.556V222.574H127.391V222.023ZM132.111 226.463H134.688V227H131.396L131.39 226.508L133.868 222.563H131.434V222.023H134.589L134.596 222.505L132.111 226.463ZM138.537 224.7H136.458V226.463H138.882V227H135.826V222.023H138.851V222.563H136.458V224.163H138.537V224.7Z"
     fill="black"
     id="path8" />
  <path
     d="M11.8804 293.023L12.6904 295.512L13.5654 293.023H14.3516V298H13.7363V296.014L13.7876 293.936L12.8682 296.616H12.5059L11.6616 294.008L11.7129 296.014V298H11.0977V293.023H11.8804ZM18.6274 295.799C18.6252 295.977 18.6092 296.157 18.5796 296.339C18.5522 296.519 18.509 296.693 18.4497 296.862C18.3905 297.03 18.3141 297.188 18.2207 297.333C18.1296 297.479 18.0202 297.607 17.8926 297.716C17.765 297.826 17.618 297.912 17.4517 297.976C17.2876 298.038 17.103 298.068 16.8979 298.068C16.6929 298.068 16.5072 298.038 16.3408 297.976C16.1768 297.912 16.0309 297.826 15.9033 297.716C15.7757 297.607 15.6652 297.479 15.5718 297.333C15.4784 297.185 15.402 297.027 15.3428 296.858C15.2812 296.69 15.2357 296.515 15.2061 296.335C15.1764 296.155 15.1605 295.977 15.1582 295.799V295.231C15.1605 295.054 15.1753 294.875 15.2026 294.695C15.2323 294.513 15.2778 294.337 15.3394 294.168C15.3986 294 15.4738 293.843 15.5649 293.697C15.6584 293.549 15.7689 293.419 15.8965 293.307C16.0241 293.198 16.1699 293.112 16.334 293.051C16.5003 292.987 16.686 292.955 16.8911 292.955C17.0962 292.955 17.2819 292.987 17.4482 293.051C17.6146 293.112 17.7616 293.198 17.8892 293.307C18.0168 293.417 18.1261 293.545 18.2173 293.693C18.3107 293.839 18.3882 293.996 18.4497 294.165C18.509 294.334 18.5522 294.509 18.5796 294.691C18.6092 294.874 18.6252 295.054 18.6274 295.231V295.799ZM18.002 295.225C17.9997 295.106 17.9917 294.983 17.978 294.855C17.9644 294.726 17.9416 294.597 17.9097 294.469C17.8755 294.344 17.8311 294.224 17.7764 294.11C17.7217 293.994 17.6533 293.892 17.5713 293.803C17.4893 293.716 17.3924 293.648 17.2808 293.598C17.1691 293.545 17.0392 293.519 16.8911 293.519C16.7453 293.519 16.6165 293.545 16.5049 293.598C16.3932 293.65 16.2964 293.72 16.2144 293.806C16.1323 293.895 16.064 293.998 16.0093 294.114C15.9546 294.228 15.9113 294.347 15.8794 294.473C15.8452 294.6 15.8201 294.729 15.8042 294.859C15.7905 294.986 15.7826 295.108 15.7803 295.225V295.799C15.7826 295.915 15.7905 296.038 15.8042 296.168C15.8201 296.298 15.8452 296.425 15.8794 296.551C15.9136 296.678 15.958 296.8 16.0127 296.917C16.0674 297.033 16.1357 297.134 16.2178 297.221C16.2998 297.31 16.3966 297.38 16.5083 297.433C16.62 297.485 16.7498 297.511 16.8979 297.511C17.0461 297.511 17.1759 297.485 17.2876 297.433C17.4015 297.38 17.4995 297.31 17.5815 297.221C17.6613 297.134 17.7274 297.034 17.7798 296.92C17.8345 296.804 17.8789 296.682 17.9131 296.554C17.945 296.429 17.9666 296.301 17.978 296.171C17.9917 296.042 17.9997 295.917 18.002 295.799V295.225ZM19.5298 298V293.023H20.6816C20.8753 293.026 21.0576 293.046 21.2285 293.085C21.4017 293.121 21.5612 293.174 21.707 293.242C21.9098 293.336 22.0887 293.459 22.2437 293.611C22.4009 293.762 22.5262 293.936 22.6196 294.134C22.7039 294.303 22.7677 294.487 22.811 294.688C22.8566 294.889 22.8805 295.103 22.8828 295.331V295.696C22.8828 295.915 22.8612 296.122 22.8179 296.318C22.7769 296.514 22.7165 296.694 22.6367 296.858C22.5547 297.029 22.451 297.184 22.3257 297.323C22.2004 297.462 22.0602 297.581 21.9053 297.679C21.7412 297.781 21.5555 297.86 21.3481 297.915C21.1431 297.969 20.9209 297.998 20.6816 298H19.5298ZM20.1724 293.543V297.484H20.6816C20.8639 297.482 21.0291 297.459 21.1772 297.416C21.3276 297.372 21.4609 297.311 21.5771 297.231C21.7002 297.149 21.8062 297.049 21.895 296.93C21.9862 296.809 22.0579 296.675 22.1104 296.527C22.1559 296.406 22.1901 296.276 22.2129 296.137C22.2357 295.996 22.2482 295.849 22.2505 295.696V295.324C22.2482 295.169 22.2345 295.021 22.2095 294.879C22.1867 294.736 22.1514 294.603 22.1035 294.479C22.042 294.32 21.9588 294.176 21.854 294.049C21.7515 293.919 21.625 293.814 21.4746 293.734C21.3675 293.675 21.2479 293.63 21.1157 293.598C20.9836 293.563 20.8389 293.545 20.6816 293.543H20.1724ZM26.5366 295.7H24.4585V297.463H26.8818V298H23.8262V293.023H26.8511V293.563H24.4585V295.163H26.5366V295.7Z"
     fill="black"
     id="path9" />
  <path
     d="M123.88 293.023L124.69 295.512L125.565 293.023H126.352V298H125.736V296.014L125.788 293.936L124.868 296.616H124.506L123.662 294.008L123.713 296.014V298H123.098V293.023H123.88ZM130.627 295.799C130.625 295.977 130.609 296.157 130.58 296.339C130.552 296.519 130.509 296.693 130.45 296.862C130.39 297.03 130.314 297.188 130.221 297.333C130.13 297.479 130.02 297.607 129.893 297.716C129.765 297.826 129.618 297.912 129.452 297.976C129.288 298.038 129.103 298.068 128.898 298.068C128.693 298.068 128.507 298.038 128.341 297.976C128.177 297.912 128.031 297.826 127.903 297.716C127.776 297.607 127.665 297.479 127.572 297.333C127.478 297.185 127.402 297.027 127.343 296.858C127.281 296.69 127.236 296.515 127.206 296.335C127.176 296.155 127.16 295.977 127.158 295.799V295.231C127.16 295.054 127.175 294.875 127.203 294.695C127.232 294.513 127.278 294.337 127.339 294.168C127.399 294 127.474 293.843 127.565 293.697C127.658 293.549 127.769 293.419 127.896 293.307C128.024 293.198 128.17 293.112 128.334 293.051C128.5 292.987 128.686 292.955 128.891 292.955C129.096 292.955 129.282 292.987 129.448 293.051C129.615 293.112 129.762 293.198 129.889 293.307C130.017 293.417 130.126 293.545 130.217 293.693C130.311 293.839 130.388 293.996 130.45 294.165C130.509 294.334 130.552 294.509 130.58 294.691C130.609 294.874 130.625 295.054 130.627 295.231V295.799ZM130.002 295.225C130 295.106 129.992 294.983 129.978 294.855C129.964 294.726 129.942 294.597 129.91 294.469C129.875 294.344 129.831 294.224 129.776 294.11C129.722 293.994 129.653 293.892 129.571 293.803C129.489 293.716 129.392 293.648 129.281 293.598C129.169 293.545 129.039 293.519 128.891 293.519C128.745 293.519 128.617 293.545 128.505 293.598C128.393 293.65 128.296 293.72 128.214 293.806C128.132 293.895 128.064 293.998 128.009 294.114C127.955 294.228 127.911 294.347 127.879 294.473C127.845 294.6 127.82 294.729 127.804 294.859C127.791 294.986 127.783 295.108 127.78 295.225V295.799C127.783 295.915 127.791 296.038 127.804 296.168C127.82 296.298 127.845 296.425 127.879 296.551C127.914 296.678 127.958 296.8 128.013 296.917C128.067 297.033 128.136 297.134 128.218 297.221C128.3 297.31 128.397 297.38 128.508 297.433C128.62 297.485 128.75 297.511 128.898 297.511C129.046 297.511 129.176 297.485 129.288 297.433C129.402 297.38 129.5 297.31 129.582 297.221C129.661 297.134 129.727 297.034 129.78 296.92C129.834 296.804 129.879 296.682 129.913 296.554C129.945 296.429 129.967 296.301 129.978 296.171C129.992 296.042 130 295.917 130.002 295.799V295.225ZM131.53 298V293.023H132.682C132.875 293.026 133.058 293.046 133.229 293.085C133.402 293.121 133.561 293.174 133.707 293.242C133.91 293.336 134.089 293.459 134.244 293.611C134.401 293.762 134.526 293.936 134.62 294.134C134.704 294.303 134.768 294.487 134.811 294.688C134.857 294.889 134.881 295.103 134.883 295.331V295.696C134.883 295.915 134.861 296.122 134.818 296.318C134.777 296.514 134.716 296.694 134.637 296.858C134.555 297.029 134.451 297.184 134.326 297.323C134.2 297.462 134.06 297.581 133.905 297.679C133.741 297.781 133.556 297.86 133.348 297.915C133.143 297.969 132.921 297.998 132.682 298H131.53ZM132.172 293.543V297.484H132.682C132.864 297.482 133.029 297.459 133.177 297.416C133.328 297.372 133.461 297.311 133.577 297.231C133.7 297.149 133.806 297.049 133.895 296.93C133.986 296.809 134.058 296.675 134.11 296.527C134.156 296.406 134.19 296.276 134.213 296.137C134.236 295.996 134.248 295.849 134.25 295.696V295.324C134.248 295.169 134.235 295.021 134.209 294.879C134.187 294.736 134.151 294.603 134.104 294.479C134.042 294.32 133.959 294.176 133.854 294.049C133.751 293.919 133.625 293.814 133.475 293.734C133.368 293.675 133.248 293.63 133.116 293.598C132.984 293.563 132.839 293.545 132.682 293.543H132.172ZM138.537 295.7H136.458V297.463H138.882V298H135.826V293.023H138.851V293.563H136.458V295.163H138.537V295.7Z"
     fill="black"
     id="path10" />
  <path
     d="M96.834 196.97H95.8394V199H95.2104V194.023H96.6699C96.9023 194.028 97.1211 194.061 97.3262 194.123C97.5312 194.184 97.7113 194.276 97.8662 194.399C98.0189 194.522 98.1385 194.677 98.2251 194.864C98.314 195.049 98.3584 195.266 98.3584 195.517C98.3584 195.679 98.3345 195.827 98.2866 195.961C98.241 196.096 98.1772 196.218 98.0952 196.327C98.0132 196.437 97.9152 196.533 97.8013 196.618C97.6873 196.702 97.562 196.774 97.4253 196.833L98.4814 198.959L98.478 199H97.8115L96.834 196.97ZM95.8394 196.45H96.687C96.8283 196.448 96.9616 196.426 97.0869 196.385C97.2122 196.342 97.3228 196.28 97.4185 196.201C97.5119 196.121 97.5859 196.024 97.6406 195.91C97.6953 195.794 97.7227 195.661 97.7227 195.51C97.7227 195.351 97.6965 195.212 97.644 195.093C97.5916 194.972 97.5187 194.871 97.4253 194.789C97.3319 194.709 97.2202 194.649 97.0903 194.608C96.9627 194.567 96.8226 194.545 96.6699 194.543H95.8394V196.45ZM102.128 196.7H100.05V198.463H102.474V199H99.418V194.023H102.443V194.563H100.05V196.163H102.128V196.7ZM105.97 197.711H104.309L103.909 199H103.277L104.883 194.023H105.413L106.992 199H106.363L105.97 197.711ZM104.48 197.161H105.803L105.146 195.001L104.48 197.161ZM107.734 199V194.023H108.886C109.079 194.026 109.262 194.046 109.433 194.085C109.606 194.121 109.765 194.174 109.911 194.242C110.114 194.336 110.293 194.459 110.448 194.611C110.605 194.762 110.73 194.936 110.824 195.134C110.908 195.303 110.972 195.487 111.015 195.688C111.061 195.889 111.085 196.103 111.087 196.331V196.696C111.087 196.915 111.065 197.122 111.022 197.318C110.981 197.514 110.921 197.694 110.841 197.858C110.759 198.029 110.655 198.184 110.53 198.323C110.404 198.462 110.264 198.581 110.109 198.679C109.945 198.781 109.76 198.86 109.552 198.915C109.347 198.969 109.125 198.998 108.886 199H107.734ZM108.376 194.543V198.484H108.886C109.068 198.482 109.233 198.459 109.381 198.416C109.532 198.372 109.665 198.311 109.781 198.231C109.904 198.149 110.01 198.049 110.099 197.93C110.19 197.809 110.262 197.675 110.314 197.527C110.36 197.406 110.394 197.276 110.417 197.137C110.44 196.996 110.452 196.849 110.455 196.696V196.324C110.452 196.169 110.439 196.021 110.414 195.879C110.391 195.736 110.355 195.603 110.308 195.479C110.246 195.32 110.163 195.176 110.058 195.049C109.956 194.919 109.829 194.814 109.679 194.734C109.572 194.675 109.452 194.63 109.32 194.598C109.188 194.563 109.043 194.545 108.886 194.543H108.376Z"
     fill="black"
     id="path11" />
  <path
     d="M128.525 336.799C128.523 336.977 128.507 337.157 128.478 337.339C128.45 337.519 128.407 337.693 128.348 337.862C128.288 338.03 128.212 338.188 128.119 338.333C128.028 338.479 127.918 338.607 127.791 338.716C127.663 338.826 127.516 338.912 127.35 338.976C127.186 339.038 127.001 339.068 126.796 339.068C126.591 339.068 126.405 339.038 126.239 338.976C126.075 338.912 125.929 338.826 125.801 338.716C125.674 338.607 125.563 338.479 125.47 338.333C125.376 338.185 125.3 338.027 125.241 337.858C125.179 337.69 125.134 337.515 125.104 337.335C125.074 337.155 125.058 336.977 125.056 336.799V336.231C125.058 336.054 125.073 335.875 125.101 335.695C125.13 335.513 125.176 335.337 125.237 335.168C125.297 335 125.372 334.843 125.463 334.697C125.556 334.549 125.667 334.419 125.794 334.307C125.922 334.198 126.068 334.112 126.232 334.051C126.398 333.987 126.584 333.955 126.789 333.955C126.994 333.955 127.18 333.987 127.346 334.051C127.513 334.112 127.66 334.198 127.787 334.307C127.915 334.417 128.024 334.545 128.115 334.693C128.209 334.839 128.286 334.996 128.348 335.165C128.407 335.334 128.45 335.509 128.478 335.691C128.507 335.874 128.523 336.054 128.525 336.231V336.799ZM127.9 336.225C127.898 336.106 127.89 335.983 127.876 335.855C127.862 335.726 127.84 335.597 127.808 335.469C127.773 335.344 127.729 335.224 127.674 335.11C127.62 334.994 127.551 334.892 127.469 334.803C127.387 334.716 127.29 334.648 127.179 334.598C127.067 334.545 126.937 334.519 126.789 334.519C126.643 334.519 126.514 334.545 126.403 334.598C126.291 334.65 126.194 334.72 126.112 334.806C126.03 334.895 125.962 334.998 125.907 335.114C125.853 335.228 125.809 335.347 125.777 335.473C125.743 335.6 125.718 335.729 125.702 335.859C125.688 335.986 125.681 336.108 125.678 336.225V336.799C125.681 336.915 125.688 337.038 125.702 337.168C125.718 337.298 125.743 337.425 125.777 337.551C125.812 337.678 125.856 337.8 125.911 337.917C125.965 338.033 126.034 338.134 126.116 338.221C126.198 338.31 126.295 338.38 126.406 338.433C126.518 338.485 126.648 338.511 126.796 338.511C126.944 338.511 127.074 338.485 127.186 338.433C127.299 338.38 127.397 338.31 127.479 338.221C127.559 338.134 127.625 338.034 127.678 337.92C127.732 337.804 127.777 337.682 127.811 337.554C127.843 337.429 127.865 337.301 127.876 337.171C127.89 337.042 127.898 336.917 127.9 336.799V336.225ZM132.617 334.023L132.624 337.394C132.624 337.626 132.583 337.844 132.5 338.046C132.418 338.249 132.306 338.426 132.162 338.576C132.019 338.729 131.848 338.85 131.649 338.938C131.451 339.025 131.234 339.068 130.997 339.068C130.755 339.068 130.535 339.025 130.337 338.938C130.139 338.852 129.969 338.732 129.828 338.58C129.686 338.429 129.576 338.253 129.496 338.05C129.416 337.845 129.375 337.626 129.373 337.394L129.38 334.023H129.981L129.995 337.394C129.997 337.542 130.02 337.684 130.063 337.821C130.109 337.958 130.174 338.078 130.258 338.183C130.34 338.288 130.443 338.372 130.566 338.436C130.691 338.5 130.835 338.532 130.997 338.532C131.158 338.532 131.301 338.501 131.424 338.439C131.547 338.376 131.651 338.29 131.735 338.183C131.817 338.078 131.88 337.958 131.923 337.821C131.966 337.684 131.99 337.542 131.995 337.394L132.005 334.023H132.617ZM137.053 334.563H135.515V339H134.9V334.563H133.362V334.023H137.053V334.563Z"
     fill="black"
     id="path12" />
  <rect
     x="10"
     y="41"
     width="130"
     height="130"
     fill="#D9D9D9"
     id="rect12" />
  <g
     id="g2"
     transform="matrix(0.31496151,0,0,0.31496151,55.386259,293.84395)"
     inkscape:label="logo"
     style="fill:#000000">
    <path
       class="cls-1"
       d="m 80.724758,201.82627 c 0.32927,0.32927 0.59867,0.97967 0.59867,1.44534 v 4.02166 c 0,0.46567 -0.2694,1.11607 -0.59867,1.44534 l -0.70763,0.70763 c -0.32927,0.32927 -0.97967,0.59867 -1.44534,0.59867 H 55.500121 c -0.465666,0 -1.116065,0.2694 -1.445339,0.59868 l -0.707628,0.70762 c -0.329274,0.32928 -0.598673,0.97968 -0.598673,1.44534 v 5.92667 c 0,0.46567 0.381,0.84667 0.846667,0.84667 h 24.97667 c 0.46566,0 1.11606,0.2694 1.44534,0.59867 l 0.70762,0.70763 c 0.32928,0.32927 0.59868,0.97967 0.59868,1.44534 v 13.54666 c 0,0.46567 -0.2694,1.11607 -0.59868,1.44534 l -0.70762,0.70763 c -0.32928,0.32927 -0.97968,0.59867 -1.44534,0.59867 h -4.02167 c -0.46567,0 -1.11607,0.2694 -1.44534,0.59868 l -0.707628,0.70762 c -0.329274,0.32928 -0.598673,0.97968 -0.598673,1.44534 v 4.02167 c 0,0.46567 -0.269398,1.11607 -0.598672,1.44534 l -0.707628,0.70763 c -0.329274,0.32927 -0.979673,0.59867 -1.44534,0.59867 H 45.975201 c -0.465667,0 -1.116065,-0.2694 -1.445339,-0.59867 l -0.707629,-0.70763 c -0.329273,-0.32927 -0.598672,-0.97967 -0.598672,-1.44534 v -4.02167 c 0,-0.46566 0.269399,-1.11606 0.598672,-1.44534 l 0.707629,-0.70762 c 0.329274,-0.32928 0.979672,-0.59868 1.445339,-0.59868 h 23.071666 c 0.465667,0 1.116066,-0.2694 1.44534,-0.59867 l 0.707628,-0.70763 c 0.329274,-0.32927 0.598672,-0.97967 0.598672,-1.44534 v -4.02166 c 0,-0.46567 -0.269398,-1.11607 -0.598672,-1.44534 l -0.707628,-0.70763 c -0.329274,-0.32927 -0.979673,-0.59867 -1.44534,-0.59867 H 45.975201 c -0.465667,0 -1.116065,-0.2694 -1.445339,-0.59868 l -0.707629,-0.70762 c -0.329273,-0.32928 -0.598672,-0.97968 -0.598672,-1.44534 v -13.54667 c 0,-0.46567 0.269399,-1.11607 0.598672,-1.44534 l 0.707629,-0.70763 c 0.329274,-0.32927 0.979672,-0.59867 1.445339,-0.59867 h 4.021667 c 0.465666,0 1.116065,-0.2694 1.445339,-0.59867 l 0.707628,-0.70763 c 0.329274,-0.32928 0.598673,-0.97967 0.598673,-1.44534 v -4.02167 c 0,-0.46566 0.269398,-1.11606 0.598672,-1.44534 l 0.707629,-0.70762 c 0.329273,-0.32928 0.979672,-0.59868 1.445339,-0.59868 h 23.07167 c 0.46566,0 1.11606,0.2694 1.44534,0.59868 l 0.70762,0.70762 z"
       id="path1-3"
       style="fill:#000000;stroke-width:0.264583" />
    <path
       class="cls-1"
       d="m 17.611762,190.99494 c 0.465667,0 1.116066,0.2694 1.445339,0.59867 l 0.707629,0.70763 c 0.329274,0.32927 0.598672,0.97967 0.598672,1.44534 v 13.54667 c 0,0.46566 0.269399,1.11606 0.598673,1.44534 l 0.707628,0.70762 c 0.329274,0.32928 0.979673,0.59868 1.445339,0.59868 h 13.546667 c 0.465667,0 1.116065,0.2694 1.445339,0.59867 l 0.707628,0.70763 c 0.329274,0.32927 0.598673,0.97967 0.598673,1.44534 v 4.02166 c 0,0.46567 -0.269399,1.11607 -0.598673,1.44534 l -0.707628,0.70763 c -0.329274,0.32928 -0.979672,0.59867 -1.445339,0.59867 H 23.115042 c -0.465666,0 -1.116065,0.2694 -1.445339,0.59868 l -0.707628,0.70762 c -0.329274,0.32928 -0.598673,0.97968 -0.598673,1.44534 v 13.54667 c 0,0.46567 0.269399,1.11607 0.598673,1.44534 l 0.707628,0.70763 c 0.329274,0.32927 0.979673,0.59867 1.445339,0.59867 h 13.546667 c 0.465667,0 1.116065,0.2694 1.445339,0.59867 l 0.707628,0.70763 c 0.329274,0.32928 0.598673,0.97967 0.598673,1.44534 v 4.02167 c 0,0.46566 -0.269399,1.11606 -0.598673,1.44534 l -0.707628,0.70762 c -0.329274,0.32928 -0.979672,0.59868 -1.445339,0.59868 H 23.115042 c -0.465666,0 -1.116065,-0.2694 -1.445339,-0.59868 l -0.707628,-0.70762 c -0.329274,-0.32928 -0.598673,-0.97968 -0.598673,-1.44534 v -4.02167 c 0,-0.46567 -0.269398,-1.11606 -0.598672,-1.44534 l -0.707629,-0.70763 c -0.329273,-0.32927 -0.979672,-0.59867 -1.445339,-0.59867 h -4.021666 c -0.465667,0 -1.116066,-0.2694 -1.44534,-0.59867 l -0.707628,-0.70763 c -0.329274,-0.32927 -0.598673,-0.97967 -0.598673,-1.44534 v -13.54667 c 0,-0.46566 -0.269398,-1.11606 -0.598672,-1.44534 l -0.7076279,-0.70762 c -0.329274,-0.32928 -0.979673,-0.59868 -1.44534,-0.59868 h -4.021666 c -0.465667,0 -1.116066,-0.26939 -1.44534,-0.59867 l -0.707628,-0.70763 c -0.329274,-0.32927 -0.598673,-0.97967 -0.598673,-1.44534 v -4.02166 c 0,-0.46567 0.269399,-1.11607 0.598673,-1.44534 l 0.707628,-0.70763 c 0.329274,-0.32927 0.979673,-0.59867 1.44534,-0.59867 h 4.021666 c 0.465667,0 1.116066,-0.2694 1.44534,-0.59868 l 0.7076279,-0.70762 c 0.329274,-0.32928 0.598672,-0.97968 0.598672,-1.44534 v -13.54664 c 0,-0.46567 0.269399,-1.11607 0.598673,-1.44534 l 0.707628,-0.70763 c 0.329274,-0.32927 0.979673,-0.59867 1.44534,-0.59867 h 4.021666 z"
       id="path2-8"
       style="fill:#000000;stroke-width:0.264583" />
    <path
       class="cls-1"
       d="m 121.9271,210.64361 c -0.32927,-0.32927 -0.97967,-0.59867 -1.44534,-0.59867 h -4.02166 c -0.46567,0 -1.11607,-0.2694 -1.44534,-0.59867 l -0.70763,-0.70763 c -0.32928,-0.32928 -0.59867,-0.97967 -0.59867,-1.44534 v -4.02167 c 0,-0.46566 -0.2694,-1.11606 -0.59868,-1.44534 l -0.70762,-0.70762 c -0.32928,-0.32928 -0.97968,-0.59868 -1.44534,-0.59868 H 87.885148 c -0.46567,0 -1.11607,0.2694 -1.44534,0.59868 l -0.70763,0.70762 c -0.32927,0.32928 -0.59867,0.97968 -0.59867,1.44534 v 4.02167 c 0,0.46567 0.2694,1.11606 0.59867,1.44534 l 0.70763,0.70763 c 0.32927,0.32927 0.97967,0.59867 1.44534,0.59867 h 23.071672 c 0.46566,0 1.11606,0.2694 1.44534,0.59867 l 0.70762,0.70763 c 0.32928,0.32927 0.59868,0.97967 0.59868,1.44534 v 4.02167 c 0,0.46566 -0.2694,1.11606 -0.59868,1.44534 l -0.70762,0.70762 c -0.32928,0.32928 -0.97968,0.59868 -1.44534,0.59868 H 87.885148 c -0.46567,0 -1.11607,0.2694 -1.44534,0.59867 l -0.70763,0.70763 c -0.32927,0.32927 -0.59867,0.97967 -0.59867,1.44534 v 13.54666 c 0,0.46567 0.2694,1.11607 0.59867,1.44534 l 0.70763,0.70763 c 0.32927,0.32927 0.97967,0.59867 1.44534,0.59867 h 4.02167 c 0.46566,0 1.11606,0.2694 1.44534,0.59868 l 0.70762,0.70762 c 0.32928,0.32928 0.59868,0.97968 0.59868,1.44534 v 4.02167 c 0,0.46567 0.2694,1.11607 0.59867,1.44534 l 0.70763,0.70763 c 0.32927,0.32927 0.97967,0.59867 1.44534,0.59867 h 23.071662 c 0.46567,0 1.11607,-0.2694 1.44534,-0.59867 l 0.70763,-0.70763 c 0.32927,-0.32927 0.59867,-0.97967 0.59867,-1.44534 v -32.59667 c 0,-0.46566 -0.2694,-1.11606 -0.59867,-1.44534 l -0.70763,-0.70762 z m -8.21867,25.22466 c 0,0.46567 -0.2694,1.11607 -0.59867,1.44534 l -0.70763,0.70763 c -0.32928,0.32927 -0.97967,0.59867 -1.44534,0.59867 H 97.410118 c -0.46566,0 -1.11606,-0.2694 -1.44534,-0.59867 l -0.70762,-0.70763 c -0.32928,-0.32927 -0.59868,-0.97967 -0.59868,-1.44534 v -4.02166 c 0,-0.46567 0.2694,-1.11607 0.59868,-1.44534 l 0.70762,-0.70763 c 0.32928,-0.32928 0.97968,-0.59867 1.44534,-0.59867 h 13.546672 c 0.46567,0 1.11606,0.26939 1.44534,0.59867 l 0.70763,0.70763 c 0.32927,0.32927 0.59867,0.97967 0.59867,1.44534 z"
       id="path3-0"
       style="fill:#000000;stroke-width:0.264583" />
  </g>
  <path
     style="font-family:'Monaspace Krypton';-inkscape-font-specification:'Monaspace Krypton';display:inline;fill:#000000"
     d="m 57.594032,26.166 h 1.176 v -8.76 h -1.176 v 3.774 h -2.904 v -3.774 h -1.176 v 8.76 h 1.176 v -4.038 h 2.904 z m 3.419987,0 h 5.202 l 0.144,-0.984 h -4.182 v -2.928 h 3.216 v -0.936 h -3.216 V 18.39 h 3.96 l -0.138,-0.984 h -4.986 z m 11.579987,0 h 1.176 v -1.704 l -1.95,-2.556 1.95,-2.814 v -1.686 h -1.092 v 1.428 l -1.488,2.244 -1.74,-2.28 v -1.392 h -1.176 v 1.704 l 1.95,2.55 -1.95,2.82 v 1.686 h 1.092 V 24.75 l 1.494,-2.256 1.734,2.268 z m 3.239987,0 h 1.092 v -6.51 h 0.072 l 3.108,6.504 h 0.984 V 17.4 h -1.092 v 6.366 h -0.072 l -3.048,-6.36 h -1.044 z m 8.471988,0 h 3.192 l 1.032,-1.29 v -7.47 h -1.176 v 7.044 l -0.54,0.732 h -1.824 l -0.54,-0.732 v -7.044 h -1.176 v 7.47 z m 8.417987,0 h 1.164 V 18.39 h 2.598 l -0.096,-0.984 h -6.096 l -0.102,0.984 h 2.532 z"
     id="text1"
     aria-label="HEXNUT" />
</svg>
