<?xml version="1.0" encoding="UTF-8" standalone="no"?>
<svg
   width="50.723999mm"
   height="128.50078mm"
   viewBox="0 0 139.12881 352.4596"
   version="1.1"
   id="svg26"
   sodipodi:docname="HexNutHex.svg"
   inkscape:version="1.3 (0e150ed, 2023-07-21)"
   xmlns:inkscape="http://www.inkscape.org/namespaces/inkscape"
   xmlns:sodipodi="http://sodipodi.sourceforge.net/DTD/sodipodi-0.dtd"
   xmlns="http://www.w3.org/2000/svg"
   xmlns:svg="http://www.w3.org/2000/svg">
  <sodipodi:namedview
     id="namedview26"
     pagecolor="#ffffff"
     bordercolor="#000000"
     borderopacity="0.25"
     inkscape:showpageshadow="2"
     inkscape:pageopacity="0.0"
     inkscape:pagecheckerboard="0"
     inkscape:deskcolor="#d1d1d1"
     inkscape:zoom="1.7669559"
     inkscape:cx="83.193927"
     inkscape:cy="252.97745"
     inkscape:window-width="1392"
     inkscape:window-height="1099"
     inkscape:window-x="0"
     inkscape:window-y="25"
     inkscape:window-maximized="0"
     inkscape:current-layer="svg26"
     showgrid="true"
     inkscape:document-units="px"
     inkscape:clip-to-page="true"
     shape-rendering="auto"
     showguides="true" />
  <defs
     id="defs2">
    <linearGradient
       id="uuid-8d2ada1e-9607-436b-9caa-9d38c4b7fccb"
       x1="75"
       y1="0"
       x2="75"
       y2="380"
       gradientUnits="userSpaceOnUse"
       gradientTransform="scale(0.92751585)">
      <stop
         offset="0"
         stop-color="#2a2a2b"
         id="stop1" />
      <stop
         offset="1"
         stop-color="#171717"
         id="stop2" />
    </linearGradient>
  </defs>
  <rect
     width="139.12738"
     height="352.45602"
     fill="url(#uuid-8d2ada1e-9607-436b-9caa-9d38c4b7fccb)"
     id="rect2"
     inkscape:label="bg"
     x="0"
     y="0"
     style="display:inline;fill:url(#uuid-8d2ada1e-9607-436b-9caa-9d38c4b7fccb);stroke-width:0.927516" />
  <g
     id="g8"
     inkscape:label="tsa"
     transform="matrix(0.65553284,0,0,0.65553284,23.963121,119.2639)">
    <path
       class="cls-1"
       d="m 75.895991,327.28481 c 0.113002,0.113 0.205457,0.33621 0.205457,0.49603 v 1.3802 c 0,0.15981 -0.09246,0.38301 -0.205457,0.49601 l -0.242852,0.24286 c -0.113001,0.113 -0.336212,0.20545 -0.496026,0.20545 H 67.23915 c -0.159813,0 -0.383023,0.0925 -0.496026,0.20547 l -0.242851,0.24284 c -0.113004,0.11301 -0.205459,0.33622 -0.205459,0.49603 v 2.03397 c 0,0.15982 0.130756,0.29057 0.290568,0.29057 h 8.571742 c 0.15981,0 0.383021,0.0925 0.496026,0.20546 l 0.242848,0.24286 c 0.113006,0.113 0.205461,0.33621 0.205461,0.49602 v 4.64908 c 0,0.15981 -0.09246,0.38302 -0.205461,0.49602 l -0.242848,0.24285 c -0.113005,0.113 -0.336216,0.20546 -0.496026,0.20546 h -1.380197 c -0.159814,0 -0.383024,0.0924 -0.496026,0.20546 l -0.242851,0.24285 c -0.113004,0.11301 -0.205458,0.33622 -0.205458,0.49603 v 1.38019 c 0,0.15981 -0.09246,0.38303 -0.205458,0.49603 l -0.242851,0.24285 c -0.113004,0.113 -0.336214,0.20546 -0.496026,0.20546 h -7.917964 c -0.159812,0 -0.383023,-0.0925 -0.496026,-0.20546 l -0.242851,-0.24285 c -0.113004,-0.113 -0.205458,-0.33622 -0.205458,-0.49603 v -1.38019 c 0,-0.15981 0.09246,-0.38302 0.205458,-0.49603 l 0.242851,-0.24285 c 0.113003,-0.11301 0.336214,-0.20546 0.496026,-0.20546 h 7.917964 c 0.159812,0 0.383022,-0.0925 0.496026,-0.20546 l 0.242851,-0.24285 c 0.113003,-0.113 0.205458,-0.33621 0.205458,-0.49602 v -1.3802 c 0,-0.15981 -0.09246,-0.38302 -0.205458,-0.49603 l -0.242851,-0.24285 c -0.113004,-0.11299 -0.336214,-0.20545 -0.496026,-0.20545 h -7.917964 c -0.159812,0 -0.383023,-0.0924 -0.496026,-0.20546 l -0.242851,-0.24285 c -0.113004,-0.113 -0.205458,-0.33622 -0.205458,-0.49603 v -4.64908 c 0,-0.15981 0.09246,-0.38302 0.205458,-0.49602 l 0.242851,-0.24286 c 0.113003,-0.113 0.336214,-0.20546 0.496026,-0.20546 h 1.380195 c 0.159813,0 0.383023,-0.0924 0.496026,-0.20545 l 0.242851,-0.24286 c 0.113004,-0.113 0.205458,-0.3362 0.205458,-0.49601 v -1.38021 c 0,-0.15981 0.09246,-0.38302 0.205459,-0.49603 l 0.242851,-0.24284 c 0.113003,-0.113 0.336213,-0.20546 0.496026,-0.20546 h 7.917965 c 0.15981,0 0.383021,0.0925 0.496026,0.20546 l 0.242848,0.24284 z"
       id="path1-3"
       style="fill:#ffffff;stroke-width:0.0908022" />
    <path
       class="cls-1"
       d="m 54.236246,323.56761 c 0.159812,0 0.383022,0.0925 0.496026,0.20546 l 0.242851,0.24285 c 0.113003,0.113 0.205458,0.33621 0.205458,0.49603 v 4.64908 c 0,0.15981 0.09246,0.38301 0.205459,0.49602 l 0.24285,0.24285 c 0.113003,0.113 0.336215,0.20546 0.496026,0.20546 h 4.64908 c 0.159812,0 0.383022,0.0924 0.496026,0.20546 l 0.242851,0.24285 c 0.113003,0.113 0.205458,0.33621 0.205458,0.49603 v 1.38019 c 0,0.15981 -0.09246,0.38302 -0.205458,0.49602 l -0.242851,0.24286 c -0.113004,0.113 -0.336214,0.20545 -0.496026,0.20545 h -4.64908 c -0.159811,0 -0.383023,0.0925 -0.496026,0.20547 l -0.24285,0.24285 c -0.113004,0.113 -0.205459,0.33621 -0.205459,0.49602 v 4.64908 c 0,0.15982 0.09246,0.38302 0.205459,0.49602 l 0.24285,0.24285 c 0.113003,0.11301 0.336215,0.20546 0.496026,0.20546 h 4.64908 c 0.159812,0 0.383022,0.0925 0.496026,0.20546 l 0.242851,0.24285 c 0.113003,0.11301 0.205458,0.33622 0.205458,0.49603 v 1.38019 c 0,0.15981 -0.09246,0.38303 -0.205458,0.49603 l -0.242851,0.24285 c -0.113004,0.11301 -0.336214,0.20546 -0.496026,0.20546 h -4.64908 c -0.159811,0 -0.383023,-0.0924 -0.496026,-0.20546 l -0.24285,-0.24285 c -0.113004,-0.113 -0.205459,-0.33622 -0.205459,-0.49603 v -1.38019 c 0,-0.15981 -0.09245,-0.38302 -0.205458,-0.49603 l -0.242851,-0.24285 c -0.113004,-0.113 -0.336214,-0.20546 -0.496026,-0.20546 H 52.85605 c -0.159812,0 -0.383022,-0.0924 -0.496026,-0.20546 l -0.242851,-0.24285 c -0.113003,-0.113 -0.205458,-0.3362 -0.205458,-0.49602 v -4.64908 c 0,-0.15981 -0.09246,-0.38302 -0.205458,-0.49602 l -0.242851,-0.24285 c -0.113004,-0.11301 -0.336214,-0.20547 -0.496026,-0.20547 h -1.380195 c -0.159813,0 -0.383023,-0.0924 -0.496026,-0.20545 l -0.242851,-0.24286 c -0.113004,-0.113 -0.205459,-0.33621 -0.205459,-0.49602 v -1.38019 c 0,-0.15982 0.09246,-0.38303 0.205459,-0.49603 l 0.242851,-0.24285 c 0.113003,-0.11301 0.336213,-0.20546 0.496026,-0.20546 h 1.380195 c 0.159812,0 0.383022,-0.0925 0.496026,-0.20546 l 0.242851,-0.24285 c 0.113003,-0.11301 0.205458,-0.33621 0.205458,-0.49602 v -4.64907 c 0,-0.15982 0.09246,-0.38303 0.205458,-0.49603 l 0.242851,-0.24285 c 0.113004,-0.113 0.336214,-0.20546 0.496026,-0.20546 h 1.380196 z"
       id="path2-8"
       style="fill:#ffffff;stroke-width:0.0908022" />
    <path
       class="cls-1"
       d="m 90.03622,330.31083 c -0.113002,-0.113 -0.336212,-0.20546 -0.496026,-0.20546 h -1.380193 c -0.159813,0 -0.383024,-0.0924 -0.496026,-0.20545 l -0.242852,-0.24286 c -0.113005,-0.113 -0.205457,-0.3362 -0.205457,-0.49601 v -1.38021 c 0,-0.15981 -0.09246,-0.38302 -0.205461,-0.49603 l -0.242848,-0.24284 c -0.113006,-0.113 -0.336217,-0.20546 -0.496026,-0.20546 h -7.917966 c -0.159813,0 -0.383024,0.0925 -0.496026,0.20546 l -0.242852,0.24284 c -0.113002,0.11301 -0.205457,0.33622 -0.205457,0.49603 v 1.38021 c 0,0.15981 0.09246,0.38301 0.205457,0.49601 l 0.242852,0.24286 c 0.113002,0.113 0.336213,0.20545 0.496026,0.20545 h 7.917966 c 0.159809,0 0.38302,0.0925 0.496026,0.20546 l 0.242848,0.24286 c 0.113005,0.113 0.205461,0.33621 0.205461,0.49602 v 1.3802 c 0,0.15981 -0.09246,0.38302 -0.205461,0.49602 l -0.242848,0.24285 c -0.113006,0.11301 -0.336217,0.20546 -0.496026,0.20546 h -7.917966 c -0.159813,0 -0.383024,0.0925 -0.496026,0.20546 l -0.242852,0.24286 c -0.113002,0.113 -0.205457,0.33621 -0.205457,0.49602 v 4.64908 c 0,0.15981 0.09246,0.38302 0.205457,0.49602 l 0.242852,0.24285 c 0.113002,0.113 0.336213,0.20546 0.496026,0.20546 h 1.380197 c 0.15981,0 0.38302,0.0924 0.496025,0.20546 l 0.242849,0.24285 c 0.113005,0.11301 0.205461,0.33622 0.205461,0.49603 v 1.38019 c 0,0.15981 0.09246,0.38303 0.205457,0.49603 l 0.242852,0.24285 c 0.113002,0.113 0.336212,0.20546 0.496026,0.20546 h 7.917962 c 0.159814,0 0.383024,-0.0925 0.496026,-0.20546 l 0.242851,-0.24285 c 0.113003,-0.113 0.205459,-0.33622 0.205459,-0.49603 v -11.18684 c 0,-0.15981 -0.09246,-0.38303 -0.205459,-0.49603 L 90.03622,330.3108 Z m -2.820565,8.65686 c 0,0.15981 -0.09246,0.38301 -0.205457,0.49602 l -0.242851,0.24285 c -0.113006,0.113 -0.336214,0.20546 -0.496027,0.20546 h -4.649081 c -0.159811,0 -0.383021,-0.0925 -0.496026,-0.20546 l -0.242848,-0.24285 c -0.113006,-0.11301 -0.205461,-0.33621 -0.205461,-0.49602 v -1.3802 c 0,-0.15982 0.09246,-0.38303 0.205461,-0.49603 l 0.242848,-0.24285 c 0.113005,-0.113 0.336215,-0.20545 0.496026,-0.20545 h 4.649081 c 0.159813,0 0.383021,0.0925 0.496027,0.20545 l 0.242851,0.24285 c 0.113002,0.113 0.205457,0.33621 0.205457,0.49603 z"
       id="path3-0"
       style="fill:#ffffff;stroke-width:0.0908022" />
  </g>
  <path
     style="fill:#0a0a0a;fill-opacity:1;stroke:none;stroke-width:0.927516;stroke-dasharray:none;stroke-opacity:1"
     d="m 40.162614,281.15761 v -23.18789 l 20.081307,-11.59395 0.463759,-23.50482 19.617548,-11.27702 v -23.1879 L 60.243921,176.81208 v -23.1879 L 40.162614,142.03024 0,165.21814 v 139.12737 z"
     id="path31"
     sodipodi:nodetypes="cccccccccccc"
     inkscape:label="block write" />
  <path
     style="fill:#333333;fill-opacity:1;stroke:none;stroke-width:0.927516;stroke-dasharray:none;stroke-opacity:1"
     d="m 120.48784,142.03024 -20.08131,11.277 V 177.129 l -20.081302,11.27703 v 23.1879 l -20.081307,11.59394 v 23.1879 l 20.081305,11.80965 2e-6,22.97219 20.081312,11.59396 40.31862,-23.18787 -0.156,-115.93952 z"
     id="path32"
     sodipodi:nodetypes="ccccccccccccc"
     inkscape:label="block read" />
  <circle
     style="display:inline;fill:#ffffff;fill-opacity:1;fill-rule:evenodd;stroke:#ffffff;stroke-width:0.837749;stroke-linecap:butt;stroke-linejoin:miter;stroke-miterlimit:4;stroke-dasharray:none;stroke-dashoffset:0;stroke-opacity:1;paint-order:normal"
     id="circle18"
     cx="120.48784"
     cy="-304.34549"
     r="12.566347"
     inkscape:label="output ring"
     transform="scale(1,-1)" />
  <g
     id="g2"
     inkscape:label="text"
     transform="translate(0,2.9028598)">
    <path
       d="m 115.2831,177.22302 -0.1484,3.60866 h 0.40811 l 0.0841,-2.88149 h 0.0322 l 0.63071,1.91687 h 0.19293 l 0.60598,-1.91687 h 0.0371 l 0.10635,2.88149 h 0.41553 l -0.1484,-3.60866 h -0.46005 l -0.62329,1.8575 h -0.0297 l -0.61587,-1.8575 z m 4.13302,3.65566 c 0.75933,0 1.27874,-0.62577 1.27874,-1.8303 0,-0.89784 -0.21766,-1.87236 -1.1897,-1.87236 -0.75932,0 -1.28368,0.62577 -1.28368,1.8303 0,0.89784 0.22508,1.87236 1.19464,1.87236 z m -0.69007,-2.0628 c 0,-0.7346 0.15582,-0.99925 0.24734,-1.09077 0.0915,-0.089 0.23992,-0.16324 0.46252,-0.16324 0.61092,0 0.74944,0.56887 0.74944,1.67448 0,0.76675 -0.15582,1.02151 -0.24486,1.11302 -0.0915,0.089 -0.23993,0.16572 -0.46253,0.16572 -0.6134,0 -0.75191,-0.59609 -0.75191,-1.69921 z m 2.71577,2.0158 h 0.67029 c 1.09323,0 1.63491,-0.65544 1.63491,-1.87977 0,-1.13528 -0.47985,-1.73137 -1.55082,-1.73137 h -0.75438 z m 0.47736,-0.41305 v -2.81224 h 0.28691 c 0.75933,0 1.02894,0.37843 1.02894,1.44693 0,0.81869 -0.16572,1.0784 -0.30423,1.18723 -0.14098,0.10882 -0.38833,0.17808 -0.74202,0.17808 z m 2.61436,0.41305 h 2.17659 l 0.0594,-0.40315 h -1.75858 v -1.23423 h 1.41972 v -0.38584 h -1.41972 v -1.18475 h 1.75858 l -0.0594,-0.40317 h -2.17659 z"
       id="text18"
       style="font-size:5.33333px;font-family:'Monaspace Argon';-inkscape-font-specification:'Monaspace Argon, Normal';text-align:center;text-anchor:middle;fill:#989898;stroke-width:0.92752"
       aria-label="MODE" />
    <path
       d="m 74.70851,177.16121 c -1.258952,0 -1.723948,0.75438 -1.723948,1.87977 0,1.37272 0.751908,1.85257 1.649746,1.85257 0.324014,0 0.591139,-0.0643 0.734596,-0.11378 l 0.03216,-0.42295 c -0.195398,0.0693 -0.442737,0.11872 -0.692548,0.11872 -0.583719,0 -1.239166,-0.29928 -1.239166,-1.57555 0,-0.789 0.272073,-1.04624 0.393269,-1.13775 0.136035,-0.10388 0.321539,-0.16324 0.690073,-0.16324 0.378428,0 0.660394,0.0619 0.848372,0.10635 l -0.01732,-0.46004 c -0.20529,-0.0494 -0.422949,-0.0841 -0.675234,-0.0841 z m 1.491446,3.66802 h 2.230993 l 0.06678,-0.40563 -1.82041,0.003 v -3.20798 h -0.477363 z m 5.508221,0 -1.142703,-3.61114 h -0.516938 l -1.14023,3.61114 h 0.479836 l 0.29928,-0.99677 h 1.221852 l 0.29928,0.99677 z m -1.911926,-1.35293 0.487257,-1.6176 h 0.02968 l 0.487257,1.6176 z m 2.470906,-2.25573 -0.148403,3.60866 h 0.408108 l 0.0841,-2.88148 h 0.03216 l 0.630713,1.91686 h 0.192923 l 0.605979,-1.91686 h 0.0371 l 0.106356,2.88148 h 0.415529 l -0.148403,-3.60866 h -0.46005 l -0.623293,1.85751 h -0.02968 l -0.615872,-1.85751 z m 3.588875,3.60866 v -1.27873 l 0.08162,-0.007 c 1.13281,-0.1113 1.728896,-0.57877 1.728896,-1.37521 0,-0.69255 -0.47489,-0.94978 -1.11797,-0.94978 h -1.17733 v 3.61114 z m 0,-1.63985 v -1.6176 h 0.591139 c 0.529303,0 0.737068,0.27703 0.737068,0.65051 0,0.57382 -0.497151,0.89784 -1.2639,0.95967 z"
       id="text19"
       style="font-size:5.33333px;font-family:'Monaspace Argon';-inkscape-font-specification:'Monaspace Argon, Normal';text-align:end;text-anchor:end;display:none;fill:#989898;stroke-width:0.92752"
       aria-label="CLAMP" />
    <path
       d="m 36.322859,177.68061 -0.0272,-0.44274 c -0.242392,-0.0544 -0.479837,-0.0816 -0.709862,-0.0816 -0.727175,0 -1.439509,0.23497 -1.439509,0.99183 0,0.50704 0.331433,0.7618 0.915152,1.04129 0.628239,0.29928 0.895365,0.40811 0.895365,0.77417 0,0.18551 -0.07668,0.29681 -0.150877,0.35864 -0.08904,0.0742 -0.262178,0.15088 -0.618346,0.15088 -0.393268,0 -0.806323,-0.0965 -1.120443,-0.21519 l 0.0099,0.44027 c 0.252286,0.094 0.576299,0.18303 0.954727,0.18303 0.855791,0 1.390042,-0.41306 1.390042,-1.05613 -0.01236,-0.59362 -0.45263,-0.76923 -1.051189,-1.05367 -0.479836,-0.22508 -0.793956,-0.41306 -0.793956,-0.73459 0,-0.16325 0.05936,-0.24487 0.140983,-0.30918 0.08904,-0.0717 0.289386,-0.14593 0.714808,-0.14593 0.274545,0 0.571352,0.0297 0.890418,0.0989 z m 0.868153,3.15109 h 2.243359 l 0.04946,-0.40316 h -0.944832 v -2.80482 h 0.944832 l -0.04946,-0.40316 h -2.243359 l -0.04946,0.40316 h 0.920099 v 2.80482 h -0.920099 z m 3.113984,-3.60867 -0.138509,0.39574 h 1.674481 l -1.610173,2.94085 0.04204,0.2696 H 42.4692 l 0.148403,-0.41552 H 40.82935 l 1.602753,-2.93591 -0.04946,-0.25723 z m 3.084306,3.60867 h 2.176578 l 0.05936,-0.40316 h -1.758577 v -1.23422 h 1.419722 v -0.38585 h -1.419722 v -1.18475 h 1.758576 l -0.05936,-0.40316 h -2.176578 z"
       id="text20"
       style="font-size:5.33333px;font-family:'Monaspace Argon';-inkscape-font-specification:'Monaspace Argon, Normal';text-align:center;text-anchor:middle;fill:#989898;stroke-width:0.92752"
       aria-label="SIZE" />
    <path
       d="m 117.35333,320.00668 c 0.75933,0 1.27874,-0.62577 1.27874,-1.8303 0,-0.89784 -0.21766,-1.87236 -1.1897,-1.87236 -0.75933,0 -1.28369,0.62577 -1.28369,1.8303 0,0.89784 0.22508,1.87236 1.19465,1.87236 z m -0.69008,-2.0628 c 0,-0.7346 0.15583,-0.99925 0.24734,-1.09077 0.0915,-0.089 0.23992,-0.16324 0.46252,-0.16324 0.61093,0 0.74944,0.56888 0.74944,1.67448 0,0.76675 -0.15583,1.02151 -0.24487,1.11302 -0.0915,0.089 -0.23991,0.16572 -0.46252,0.16572 -0.6134,0 -0.75191,-0.59609 -0.75191,-1.69921 z m 3.73975,2.0628 c 0.67771,0 1.19959,-0.25723 1.19959,-1.15755 v -2.50059 h -0.48231 v 2.62674 c 0,0.31412 -0.0693,0.43284 -0.15087,0.50704 -0.0791,0.0717 -0.23002,0.11625 -0.46253,0.11625 -0.59608,0 -0.69749,-0.36359 -0.69749,-0.8731 v -2.37693 h -0.48725 v 2.51544 c 0,0.64803 0.2968,1.1427 1.08086,1.1427 z m 3.35144,-0.047 v -3.20797 h 1.06355 l -0.0494,-0.40317 h -2.48081 l -0.0494,0.40317 h 1.03883 v 3.20797 z"
       id="text24"
       style="font-size:5.33333px;font-family:'Monaspace Argon';-inkscape-font-specification:'Monaspace Argon, Normal';text-align:center;text-anchor:middle;fill:#989898;stroke-width:0.92752"
       aria-label="OUT" />
    <path
       d="m 73.045158,319.96215 h 1.061082 c 0.80385,0 1.298526,-0.37595 1.298526,-1.01656 0,-0.65545 -0.524357,-0.86568 -1.127862,-0.93494 v -0.0174 c 0.450155,-0.0989 0.922572,-0.36358 0.922572,-0.9201 0,-0.52187 -0.415529,-0.7247 -0.989354,-0.72222 h -1.164964 z m 0.484783,-0.37101 v -1.37767 l 0.116249,0.003 c 0.667814,0.0174 1.2639,0.19293 1.2639,0.74202 0,0.36606 -0.267126,0.63319 -0.769223,0.63319 z m 0,-1.62749 v -1.24163 h 0.610926 c 0.380902,0 0.571352,0.13356 0.571352,0.43531 0,0.41058 -0.348747,0.70244 -1.011614,0.78654 z m 2.611889,1.9985 h 2.230993 l 0.06678,-0.40563 -1.820411,0.003 v -3.20829 H 76.14183 Z m 3.049677,0 h 2.176578 l 0.05936,-0.40317 H 79.66887 v -1.23421 h 1.419723 v -0.38585 H 79.66887 v -1.18476 h 1.758576 l -0.05936,-0.40315 h -2.176578 z m 3.042258,0 h 0.413055 v -2.8246 h 0.02968 l 1.204538,2.8246 h 0.51941 v -3.61362 h -0.413055 v 2.78009 h -0.02968 l -1.204538,-2.77761 h -0.51941 z m 3.06699,0 h 0.670288 c 1.093236,0 1.634907,-0.65545 1.634907,-1.87978 0,-1.13528 -0.479837,-1.73136 -1.550812,-1.73136 h -0.754383 z m 0.477364,-0.41305 v -2.81224 h 0.286913 c 0.759328,0 1.028928,0.37843 1.028928,1.44693 0,0.81868 -0.165717,1.07839 -0.304227,1.18722 -0.140983,0.10883 -0.388322,0.17809 -0.742015,0.17809 z"
       id="text25"
       style="font-size:5.33333px;font-family:'Monaspace Argon';-inkscape-font-specification:'Monaspace Argon, Normal';text-align:end;text-anchor:end;fill:#989898;stroke-width:0.92752"
       aria-label="BLEND" />
    <path
       d="m 37.550885,319.96215 h 2.243361 l 0.04946,-0.40317 h -0.944832 v -2.80482 h 0.944832 l -0.04946,-0.40315 h -2.243361 l -0.04946,0.40315 h 0.920099 v 2.80482 h -0.920099 z m 3.106566,0 h 0.413055 v -2.8246 h 0.02968 l 1.204538,2.8246 h 0.519411 v -3.61362 H 42.41108 v 2.78009 H 42.3814 l -1.204538,-2.77761 h -0.519411 z"
       id="text26"
       style="font-size:5.33333px;font-family:'Monaspace Argon';-inkscape-font-specification:'Monaspace Argon, Normal';text-align:center;text-anchor:middle;fill:#989898;stroke-width:0.92752"
       aria-label="IN" />
    <path
       d="m 96.883618,282.03527 -0.02718,-0.44273 c -0.242388,-0.0544 -0.479833,-0.0816 -0.709858,-0.0816 -0.727176,0 -1.439511,0.23497 -1.439511,0.99183 0,0.50705 0.331431,0.7618 0.915156,1.0413 0.628237,0.29927 0.895363,0.40811 0.895363,0.77416 0,0.1855 -0.07671,0.29681 -0.15088,0.35864 -0.08904,0.0742 -0.262173,0.15088 -0.61834,0.15088 -0.393269,0 -0.80633,-0.0965 -1.120444,-0.21518 l 0.0099,0.44026 c 0.252285,0.094 0.576305,0.18303 0.954733,0.18303 0.855785,0 1.390036,-0.41306 1.390036,-1.05614 -0.01234,-0.59361 -0.452629,-0.76922 -1.051186,-1.05366 -0.479833,-0.22508 -0.793956,-0.41305 -0.793956,-0.73459 0,-0.16325 0.05936,-0.24487 0.140983,-0.30917 0.08904,-0.0717 0.289386,-0.14594 0.714811,-0.14594 0.274546,0 0.571352,0.0297 0.890419,0.0989 z m 0.868149,3.15109 h 2.243354 l 0.04944,-0.40316 h -0.944828 v -2.80482 h 0.944828 l -0.04944,-0.40316 h -2.243354 l -0.04944,0.40316 h 0.92009 v 2.80482 h -0.92009 z m 3.113983,-3.60866 -0.13851,0.39573 h 1.67448 l -1.61017,2.94086 0.042,0.2696 h 2.19637 l 0.1484,-0.41553 h -1.78826 l 1.60276,-2.93591 -0.0494,-0.25723 z m 3.08431,3.60866 h 2.17658 l 0.0594,-0.40316 h -1.75858 v -1.23422 h 1.41972 v -0.38585 h -1.41972 v -1.18475 h 1.75858 l -0.0594,-0.40316 h -2.17658 z"
       id="text27"
       style="font-size:5.33333px;font-family:'Monaspace Argon';-inkscape-font-specification:'Monaspace Argon, Normal';text-align:center;text-anchor:middle;fill:#989898;stroke-width:0.92752"
       aria-label="SIZE" />
    <path
       d="m 53.631589,282.03527 -0.0272,-0.44273 c -0.242392,-0.0544 -0.479837,-0.0816 -0.709861,-0.0816 -0.727176,0 -1.43951,0.23497 -1.43951,0.99183 0,0.50705 0.331433,0.7618 0.915152,1.0413 0.62824,0.29927 0.895365,0.40811 0.895365,0.77416 0,0.1855 -0.07668,0.29681 -0.150876,0.35864 -0.08904,0.0742 -0.262179,0.15088 -0.618346,0.15088 -0.393269,0 -0.806324,-0.0965 -1.120444,-0.21518 l 0.0099,0.44026 c 0.252285,0.094 0.576298,0.18303 0.954726,0.18303 0.855791,0 1.390042,-0.41306 1.390042,-1.05614 -0.01236,-0.59361 -0.452629,-0.76922 -1.051188,-1.05366 -0.479837,-0.22508 -0.793957,-0.41305 -0.793957,-0.73459 0,-0.16325 0.05936,-0.24487 0.140983,-0.30917 0.08904,-0.0717 0.289386,-0.14594 0.714809,-0.14594 0.274545,0 0.571351,0.0297 0.890418,0.0989 z m 1.404877,3.15109 v -1.27874 l 0.08162,-0.007 c 1.13281,-0.1113 1.728895,-0.57877 1.728895,-1.3752 0,-0.69255 -0.47489,-0.94978 -1.11797,-0.94978 h -1.17733 v 3.61114 z m 0,-1.63986 v -1.61759 h 0.591139 c 0.529304,0 0.737068,0.27702 0.737068,0.65051 0,0.57382 -0.497149,0.89784 -1.263899,0.95966 z m 3.054625,1.63986 v -3.25745 h 0.630712 c 0.420475,0 0.640607,0.15336 0.640607,0.51199 0,0.48726 -0.422949,0.7717 -1.051188,1.0042 l 0.0025,0.1014 1.15507,1.63739 h 0.591139 l -1.214432,-1.62501 c 0.601032,-0.24734 1.023981,-0.62083 1.023981,-1.18476 0,-0.64308 -0.536724,-0.8088 -1.157543,-0.80384 l -1.105604,0.005 v 3.61114 z m 2.606941,0 h 2.176579 l 0.05936,-0.40316 h -1.758575 v -1.23422 h 1.419721 v -0.38585 h -1.419721 v -1.18475 h 1.758575 l -0.05936,-0.40316 h -2.176579 z m 5.525535,0 -1.142703,-3.61114 h -0.516938 l -1.14023,3.61114 h 0.479836 l 0.29928,-0.99677 h 1.221852 l 0.29928,0.99677 z m -1.911926,-1.35294 0.487257,-1.61759 h 0.02968 l 0.487257,1.61759 z m 2.495639,1.35294 h 0.670287 c 1.093236,0 1.634907,-0.65544 1.634907,-1.87977 0,-1.13528 -0.479836,-1.73137 -1.550812,-1.73137 H 66.80728 Z m 0.477363,-0.41305 v -2.81224 h 0.286913 c 0.759329,0 1.028927,0.37843 1.028927,1.44693 0,0.81869 -0.165716,1.0784 -0.304226,1.18722 -0.140982,0.10883 -0.388321,0.17809 -0.742015,0.17809 z"
       id="text28"
       style="font-size:5.33333px;font-family:'Monaspace Argon';-inkscape-font-specification:'Monaspace Argon, Normal';text-align:center;text-anchor:middle;fill:#989898;stroke-width:0.92752"
       aria-label="SPREAD" />
    <path
       d="m 14.4124,281.56903 -0.148403,3.60867 h 0.408109 l 0.0841,-2.88149 h 0.03216 l 0.630712,1.91687 h 0.192924 l 0.60598,-1.91687 h 0.0371 l 0.106356,2.88149 h 0.415529 l -0.148403,-3.60867 h -0.46005 l -0.623293,1.85751 h -0.02968 l -0.615872,-1.85751 z m 4.133019,3.65566 c 0.75933,0 1.27874,-0.62577 1.27874,-1.8303 0,-0.89784 -0.217657,-1.87236 -1.189698,-1.87236 -0.759329,0 -1.283686,0.62577 -1.283686,1.83031 0,0.89784 0.225078,1.87235 1.194644,1.87235 z m -0.690073,-2.0628 c 0,-0.7346 0.155823,-0.99925 0.247338,-1.09076 0.09152,-0.089 0.239918,-0.16325 0.462523,-0.16325 0.610926,0 0.749435,0.56889 0.749435,1.67448 0,0.76675 -0.155823,1.02152 -0.244865,1.11303 -0.09152,0.089 -0.239918,0.16572 -0.462523,0.16572 -0.613399,0 -0.751908,-0.59609 -0.751908,-1.69922 z m 2.71577,2.01581 h 0.670287 c 1.093236,0 1.634907,-0.65545 1.634907,-1.87977 0,-1.13529 -0.479837,-1.73137 -1.550812,-1.73137 h -0.754382 z m 0.477363,-0.41306 v -2.81224 h 0.286913 c 0.759329,0 1.028928,0.37843 1.028928,1.44693 0,0.8187 -0.165717,1.0784 -0.304227,1.18723 -0.140982,0.10883 -0.388321,0.17808 -0.742015,0.17808 z m 2.614362,0.41306 h 2.176578 l 0.05936,-0.40316 h -1.758575 v -1.23422 h 1.419721 v -0.38585 h -1.419721 v -1.18475 h 1.758575 l -0.05936,-0.40316 h -2.176578 z"
       id="text29"
       style="font-size:5.33333px;font-family:'Monaspace Argon';-inkscape-font-specification:'Monaspace Argon, Normal';text-align:center;text-anchor:middle;fill:#989898;stroke-width:0.92752"
       aria-label="MODE" />
  </g>
  <path
     d="m 95.138239,225.29067 v -3.25743 h 0.630711 c 0.420473,0 0.640603,0.15334 0.640603,0.51198 0,0.48726 -0.422946,0.7717 -1.051183,1.00419 l 0.0025,0.10141 1.155066,1.63737 h 0.591137 l -1.214427,-1.625 c 0.601029,-0.24734 1.023976,-0.62082 1.023976,-1.18475 0,-0.64307 -0.536721,-0.80879 -1.157539,-0.80384 l -1.105598,0.005 v 3.61112 z m 2.606932,0 h 2.17657 l 0.05936,-0.40316 h -1.75857 v -1.23421 h 1.419717 v -0.38585 h -1.419717 v -1.18474 h 1.75857 l -0.05936,-0.40316 h -2.17657 z m 5.525519,0 -1.14271,-3.61112 h -0.51692 l -1.14023,3.61112 h 0.47983 l 0.29928,-0.99677 h 1.22184 l 0.29928,0.99677 z m -1.91192,-1.35293 0.48725,-1.6176 h 0.0297 l 0.48725,1.6176 z m 2.49563,1.35293 h 0.67028 c 1.09323,0 1.63491,-0.65545 1.63491,-1.87977 0,-1.13528 -0.47984,-1.73135 -1.55082,-1.73135 h -0.75437 z m 0.47735,-0.41306 v -2.81222 h 0.28692 c 0.75933,0 1.02893,0.37842 1.02893,1.44692 0,0.81869 -0.16572,1.0784 -0.30423,1.18722 -0.14098,0.10883 -0.38832,0.17808 -0.74202,0.17808 z"
     id="text22"
     style="font-size:4.94677px;font-family:'Monaspace Argon';-inkscape-font-specification:'Monaspace Argon, Normal';text-align:end;text-anchor:end;fill:#999999;stroke-width:0.927516"
     aria-label="READ" />
  <path
     d="m 34.195612,213.89168 h 0.331432 c 0.371007,-1.21196 0.561457,-2.46595 0.638131,-3.60866 h -0.430367 c -0.06183,0.84838 -0.20529,1.83031 -0.38832,2.66878 h -0.04205 c -0.160769,-0.66781 -0.304226,-1.50876 -0.393266,-2.06527 h -0.348747 c -0.09399,0.55651 -0.242391,1.39746 -0.415526,2.06527 h -0.0371 c -0.18303,-0.84589 -0.324013,-1.8204 -0.385847,-2.66878 h -0.460048 c 0.07668,1.14271 0.269598,2.3967 0.640605,3.60866 h 0.309171 c 0.234971,-0.81374 0.3809,-1.64726 0.487255,-2.27797 h 0.03957 c 0.09894,0.62824 0.232497,1.46423 0.455101,2.27797 z m 1.986115,0.002 v -3.25744 h 0.630711 c 0.420473,0 0.640604,0.15335 0.640604,0.51199 0,0.48726 -0.422947,0.7717 -1.051185,1.00419 l 0.0025,0.10141 1.155067,1.63737 h 0.591136 l -1.214427,-1.625 c 0.601031,-0.24734 1.023978,-0.62082 1.023978,-1.18475 0,-0.64308 -0.536723,-0.8088 -1.15754,-0.80385 l -1.105599,0.005 v 3.61114 z m 2.537678,0 h 1.867397 l 0.04452,-0.40316 h -0.751905 v -2.80481 h 0.751906 l -0.04452,-0.40317 h -1.867397 l -0.04452,0.40317 h 0.727172 v 2.80481 h -0.727172 z m 4.43723,0 v -3.2055 h 1.367776 l -0.06678,-0.40564 H 41.37333 l -0.06678,0.40564 h 1.37025 v 3.2055 z m 1.973747,0 h 1.968807 l 0.05936,-0.40316 h -1.550804 v -1.23174 h 1.211953 v -0.38537 h -1.211953 v -1.18722 h 1.550805 l -0.05936,-0.40317 h -1.968807 z"
     id="text23"
     style="font-size:4.94677px;font-family:'Monaspace Argon';-inkscape-font-specification:'Monaspace Argon, Normal';text-align:center;text-anchor:middle;fill:#999999;stroke-width:0.927516"
     aria-label="WRITE" />
  <path
     style="display:inline;fill:none;stroke:#333333;stroke-width:0.927515;stroke-opacity:1"
     d="m 40.162613,188.40601 -20.081307,11.59393 v 23.18793 l 20.081307,11.59396 20.081309,-11.59396 v -23.18793 z"
     id="path5"
     sodipodi:nodetypes="ccccccc"
     inkscape:label="g" />
  <path
     style="display:inline;fill:none;stroke:#1d1414;stroke-width:0.927515;stroke-opacity:1"
     d="M 100.40653,246.37578 80.325228,234.78185 v -23.18793 l 20.081302,-11.59396 20.08131,11.59396 v 23.18793 z"
     id="path7"
     sodipodi:nodetypes="ccccccc"
     inkscape:label="g" />
  <g
     id="g1"
     inkscape:label="components"
     style="display:none"
     transform="translate(0,2.9028598)">
    <circle
       style="display:inline;vector-effect:none;fill:#ff0000;fill-opacity:1;fill-rule:evenodd;stroke:none;stroke-width:2.97773;stroke-linecap:butt;stroke-linejoin:miter;stroke-miterlimit:4;stroke-dasharray:none;stroke-dashoffset:0;stroke-opacity:1;paint-order:normal"
       id="circle26"
       cx="40.162777"
       cy="231.87991"
       r="11.910927"
       inkscape:label="vwz" />
    <circle
       style="display:inline;vector-effect:none;fill:#ff0000;fill-opacity:1;fill-rule:evenodd;stroke:none;stroke-width:2.97773;stroke-linecap:butt;stroke-linejoin:miter;stroke-miterlimit:4;stroke-dasharray:none;stroke-dashoffset:0;stroke-opacity:1;paint-order:normal"
       id="circle3"
       cx="60.244167"
       cy="197.09792"
       r="11.910927"
       inkscape:label="vwx" />
    <circle
       style="display:inline;vector-effect:none;fill:#ff0000;fill-opacity:1;fill-rule:evenodd;stroke:none;stroke-width:2.97773;stroke-linecap:butt;stroke-linejoin:miter;stroke-miterlimit:4;stroke-dasharray:none;stroke-dashoffset:0;stroke-opacity:1;paint-order:normal"
       id="path4954"
       cx="20.081388"
       cy="197.09792"
       r="11.910927"
       inkscape:label="vwy" />
    <circle
       style="display:inline;vector-effect:none;fill:#ff0000;fill-opacity:1;fill-rule:evenodd;stroke:none;stroke-width:2.97773;stroke-linecap:butt;stroke-linejoin:miter;stroke-miterlimit:4;stroke-dasharray:none;stroke-dashoffset:0;stroke-opacity:1;paint-order:normal"
       id="circle5"
       cx="100.40694"
       cy="-197.09792"
       r="11.910927"
       inkscape:label="vrz"
       transform="scale(1,-1)" />
    <circle
       style="display:inline;vector-effect:none;fill:#ff0000;fill-opacity:1;fill-rule:evenodd;stroke:none;stroke-width:2.97773;stroke-linecap:butt;stroke-linejoin:miter;stroke-miterlimit:4;stroke-dasharray:none;stroke-dashoffset:0;stroke-opacity:1;paint-order:normal"
       id="circle6"
       cx="120.48833"
       cy="-231.87991"
       r="11.910927"
       inkscape:label="vry"
       transform="scale(1,-1)" />
    <circle
       style="display:inline;vector-effect:none;fill:#ff0000;fill-opacity:1;fill-rule:evenodd;stroke:none;stroke-width:2.97773;stroke-linecap:butt;stroke-linejoin:miter;stroke-miterlimit:4;stroke-dasharray:none;stroke-dashoffset:0;stroke-opacity:1;paint-order:normal"
       id="circle7"
       cx="80.325554"
       cy="-231.87991"
       r="11.910927"
       inkscape:label="vrx"
       transform="scale(1,-1)" />
    <circle
       style="display:inline;vector-effect:none;fill:#00ff00;fill-opacity:1;fill-rule:evenodd;stroke:none;stroke-width:2.97773;stroke-linecap:butt;stroke-linejoin:miter;stroke-miterlimit:4;stroke-dasharray:none;stroke-dashoffset:0;stroke-opacity:1;paint-order:normal"
       id="circle9"
       cx="40.162777"
       cy="301.44391"
       r="11.910927"
       inkscape:label="input" />
    <circle
       style="display:inline;vector-effect:none;fill:#ff0000;fill-opacity:1;fill-rule:evenodd;stroke:none;stroke-width:2.97773;stroke-linecap:butt;stroke-linejoin:miter;stroke-miterlimit:4;stroke-dasharray:none;stroke-dashoffset:0;stroke-opacity:1;paint-order:normal"
       id="circle10"
       cx="60.244167"
       cy="266.66193"
       r="11.910927"
       inkscape:label="read_ring" />
    <circle
       style="display:inline;vector-effect:none;fill:#ff0000;fill-opacity:1;fill-rule:evenodd;stroke:none;stroke-width:2.97773;stroke-linecap:butt;stroke-linejoin:miter;stroke-miterlimit:4;stroke-dasharray:none;stroke-dashoffset:0;stroke-opacity:1;paint-order:normal"
       id="circle11"
       cx="20.081388"
       cy="266.66193"
       r="11.910927"
       inkscape:label="write_mode" />
    <circle
       style="display:inline;vector-effect:none;fill:#ff0000;fill-opacity:1;fill-rule:evenodd;stroke:none;stroke-width:2.97773;stroke-linecap:butt;stroke-linejoin:miter;stroke-miterlimit:4;stroke-dasharray:none;stroke-dashoffset:0;stroke-opacity:1;paint-order:normal"
       id="circle12"
       cx="100.40694"
       cy="-266.66193"
       r="11.910927"
       inkscape:label="read_radius"
       transform="scale(1,-1)" />
    <circle
       style="display:inline;vector-effect:none;fill:#0000ff;fill-opacity:1;fill-rule:evenodd;stroke:none;stroke-width:2.97773;stroke-linecap:butt;stroke-linejoin:miter;stroke-miterlimit:4;stroke-dasharray:none;stroke-dashoffset:0;stroke-opacity:1;paint-order:normal"
       id="circle13"
       cx="120.48833"
       cy="-301.44391"
       r="11.910927"
       inkscape:label="output"
       transform="scale(1,-1)" />
    <circle
       style="display:inline;vector-effect:none;fill:#ff0000;fill-opacity:1;fill-rule:evenodd;stroke:none;stroke-width:2.97773;stroke-linecap:butt;stroke-linejoin:miter;stroke-miterlimit:4;stroke-dasharray:none;stroke-dashoffset:0;stroke-opacity:1;paint-order:normal"
       id="circle14"
       cx="80.325554"
       cy="-301.44391"
       r="11.910927"
       inkscape:label="blend"
       transform="scale(1,-1)" />
    <circle
       style="display:inline;vector-effect:none;fill:#ff0000;fill-opacity:1;fill-rule:evenodd;stroke:none;stroke-width:2.97773;stroke-linecap:butt;stroke-linejoin:miter;stroke-miterlimit:4;stroke-dasharray:none;stroke-dashoffset:0;stroke-opacity:1;paint-order:normal"
       id="circle15"
       cx="80.325554"
       cy="-162.31595"
       r="11.910927"
       inkscape:label="crop"
       transform="scale(1,-1)" />
    <circle
       style="display:inline;vector-effect:none;fill:#ff0000;fill-opacity:1;fill-rule:evenodd;stroke:none;stroke-width:2.97773;stroke-linecap:butt;stroke-linejoin:miter;stroke-miterlimit:4;stroke-dasharray:none;stroke-dashoffset:0;stroke-opacity:1;paint-order:normal"
       id="circle16"
       cx="40.162777"
       cy="-162.31595"
       r="11.910927"
       inkscape:label="write_radius"
       transform="scale(1,-1)" />
    <circle
       style="display:inline;vector-effect:none;fill:#ff0000;fill-opacity:1;fill-rule:evenodd;stroke:none;stroke-width:2.97773;stroke-linecap:butt;stroke-linejoin:miter;stroke-miterlimit:4;stroke-dasharray:none;stroke-dashoffset:0;stroke-opacity:1;paint-order:normal"
       id="circle17"
       cx="120.48833"
       cy="-162.31592"
       r="11.910927"
       inkscape:label="read_mode"
       transform="scale(1,-1)" />
  </g>
  <path
     style="font-family:'Monaspace Krypton';-inkscape-font-specification:'Monaspace Krypton';display:inline;fill:#ffffff;stroke-width:0.92752"
     d="m 53.670026,16.359216 h 1.090763 V 8.234144 h -1.090763 v 3.500459 H 50.976509 V 8.234144 h -1.090763 v 8.125072 h 1.090763 v -3.745324 h 2.693517 z m 3.172105,0 h 4.824957 l 0.133563,-0.912679 H 57.921764 V 12.73076 h 2.982903 V 11.862601 H 57.921764 V 9.1468236 h 3.672977 L 61.466744,8.234144 h -4.624613 z m 10.740665,0 h 1.090763 v -1.580493 l -1.808663,-2.37074 1.808663,-2.6100414 V 8.234144 H 67.660708 V 9.5586416 L 66.280559,11.639996 64.666674,9.5252516 V 8.234144 h -1.090763 v 1.5804936 l 1.808664,2.3651754 -1.808664,2.615605 v 1.563798 h 1.012852 v -1.313367 l 1.385714,-2.092485 1.608319,2.103615 z m 3.005152,0 h 1.012851 v -6.038152 h 0.06678 l 2.882731,6.032587 h 0.912679 V 8.2285789 h -1.012852 v 5.9045901 h -0.06678 l -2.82708,-5.899025 h -0.96833 z m 7.857935,0 h 2.960643 l 0.9572,-1.1965 V 8.234144 h -1.090763 v 6.533449 l -0.500861,0.678944 h -1.691796 l -0.50086,-0.678944 V 8.234144 h -1.090763 v 6.928572 z m 7.807848,0 h 1.079633 V 9.1468236 H 89.74306 L 89.65402,8.234144 h -5.65416 l -0.09461,0.9126796 h 2.34848 z"
     id="text1"
     aria-label="HEXNUT"
     inkscape:label="hexnut" />
  <path
     sodipodi:type="star"
     style="display:none;fill:#333333;fill-opacity:1;stroke-width:0.725715"
     id="path8"
     inkscape:flatsided="true"
     sodipodi:sides="6"
     sodipodi:cx="40.162777"
     sodipodi:cy="278.57285"
     sodipodi:r1="23.34807"
     sodipodi:r2="20.220022"
     sodipodi:arg1="-0.53535462"
     sodipodi:arg2="-0.011755847"
     inkscape:rounded="0"
     inkscape:randomized="0"
     d="m 60.244167,266.66192 0.27447,23.34646 -20.08139,11.91092 -20.35586,-11.43553 -0.27447,-23.34645 20.08139,-11.91093 z"
     transform="matrix(2.9371262,0,0,2.9371262,-48.39874,-726.79369)" />
</svg>
