<?xml version="1.0" encoding="UTF-8" standalone="no"?>
<svg
   width="150"
   height="380"
   viewBox="0 0 150 380"
   version="1.1"
   id="svg26"
   sodipodi:docname="HexNut.svg"
   inkscape:version="1.3 (0e150ed, 2023-07-21)"
   xmlns:inkscape="http://www.inkscape.org/namespaces/inkscape"
   xmlns:sodipodi="http://sodipodi.sourceforge.net/DTD/sodipodi-0.dtd"
   xmlns="http://www.w3.org/2000/svg"
   xmlns:svg="http://www.w3.org/2000/svg">
  <sodipodi:namedview
     id="namedview26"
     pagecolor="#ffffff"
     bordercolor="#000000"
     borderopacity="0.25"
     inkscape:showpageshadow="2"
     inkscape:pageopacity="0.0"
     inkscape:pagecheckerboard="0"
     inkscape:deskcolor="#d1d1d1"
     inkscape:zoom="1.7019936"
     inkscape:cx="29.671087"
     inkscape:cy="237.95624"
     inkscape:window-width="1392"
     inkscape:window-height="1099"
     inkscape:window-x="0"
     inkscape:window-y="25"
     inkscape:window-maximized="0"
     inkscape:current-layer="svg26" />
  <defs
     id="defs2">
    <linearGradient
       id="uuid-8d2ada1e-9607-436b-9caa-9d38c4b7fccb"
       x1="75"
       y1="0"
       x2="75"
       y2="380"
       gradientUnits="userSpaceOnUse">
      <stop
         offset="0"
         stop-color="#2a2a2b"
         id="stop1" />
      <stop
         offset="1"
         stop-color="#171717"
         id="stop2" />
    </linearGradient>
  </defs>
  <rect
     width="150"
     height="380"
     fill="url(#uuid-8d2ada1e-9607-436b-9caa-9d38c4b7fccb)"
     id="rect2"
     inkscape:label="bg" />
  <g
     id="g2"
     transform="matrix(0.37000978,0,0,0.37000978,51.958213,278.184)"
     inkscape:label="logo"
     style="fill:#ffffff">
    <path
       class="cls-1"
       d="m 80.724758,201.82627 c 0.32927,0.32927 0.59867,0.97967 0.59867,1.44534 v 4.02166 c 0,0.46567 -0.2694,1.11607 -0.59867,1.44534 l -0.70763,0.70763 c -0.32927,0.32927 -0.97967,0.59867 -1.44534,0.59867 H 55.500121 c -0.465666,0 -1.116065,0.2694 -1.445339,0.59868 l -0.707628,0.70762 c -0.329274,0.32928 -0.598673,0.97968 -0.598673,1.44534 v 5.92667 c 0,0.46567 0.381,0.84667 0.846667,0.84667 h 24.97667 c 0.46566,0 1.11606,0.2694 1.44534,0.59867 l 0.70762,0.70763 c 0.32928,0.32927 0.59868,0.97967 0.59868,1.44534 v 13.54666 c 0,0.46567 -0.2694,1.11607 -0.59868,1.44534 l -0.70762,0.70763 c -0.32928,0.32927 -0.97968,0.59867 -1.44534,0.59867 h -4.02167 c -0.46567,0 -1.11607,0.2694 -1.44534,0.59868 l -0.707628,0.70762 c -0.329274,0.32928 -0.598673,0.97968 -0.598673,1.44534 v 4.02167 c 0,0.46567 -0.269398,1.11607 -0.598672,1.44534 l -0.707628,0.70763 c -0.329274,0.32927 -0.979673,0.59867 -1.44534,0.59867 H 45.975201 c -0.465667,0 -1.116065,-0.2694 -1.445339,-0.59867 l -0.707629,-0.70763 c -0.329273,-0.32927 -0.598672,-0.97967 -0.598672,-1.44534 v -4.02167 c 0,-0.46566 0.269399,-1.11606 0.598672,-1.44534 l 0.707629,-0.70762 c 0.329274,-0.32928 0.979672,-0.59868 1.445339,-0.59868 h 23.071666 c 0.465667,0 1.116066,-0.2694 1.44534,-0.59867 l 0.707628,-0.70763 c 0.329274,-0.32927 0.598672,-0.97967 0.598672,-1.44534 v -4.02166 c 0,-0.46567 -0.269398,-1.11607 -0.598672,-1.44534 l -0.707628,-0.70763 c -0.329274,-0.32927 -0.979673,-0.59867 -1.44534,-0.59867 H 45.975201 c -0.465667,0 -1.116065,-0.2694 -1.445339,-0.59868 l -0.707629,-0.70762 c -0.329273,-0.32928 -0.598672,-0.97968 -0.598672,-1.44534 v -13.54667 c 0,-0.46567 0.269399,-1.11607 0.598672,-1.44534 l 0.707629,-0.70763 c 0.329274,-0.32927 0.979672,-0.59867 1.445339,-0.59867 h 4.021667 c 0.465666,0 1.116065,-0.2694 1.445339,-0.59867 l 0.707628,-0.70763 c 0.329274,-0.32928 0.598673,-0.97967 0.598673,-1.44534 v -4.02167 c 0,-0.46566 0.269398,-1.11606 0.598672,-1.44534 l 0.707629,-0.70762 c 0.329273,-0.32928 0.979672,-0.59868 1.445339,-0.59868 h 23.07167 c 0.46566,0 1.11606,0.2694 1.44534,0.59868 l 0.70762,0.70762 z"
       id="path1-3"
       style="fill:#ffffff;stroke-width:0.264583" />
    <path
       class="cls-1"
       d="m 17.611762,190.99494 c 0.465667,0 1.116066,0.2694 1.445339,0.59867 l 0.707629,0.70763 c 0.329274,0.32927 0.598672,0.97967 0.598672,1.44534 v 13.54667 c 0,0.46566 0.269399,1.11606 0.598673,1.44534 l 0.707628,0.70762 c 0.329274,0.32928 0.979673,0.59868 1.445339,0.59868 h 13.546667 c 0.465667,0 1.116065,0.2694 1.445339,0.59867 l 0.707628,0.70763 c 0.329274,0.32927 0.598673,0.97967 0.598673,1.44534 v 4.02166 c 0,0.46567 -0.269399,1.11607 -0.598673,1.44534 l -0.707628,0.70763 c -0.329274,0.32928 -0.979672,0.59867 -1.445339,0.59867 H 23.115042 c -0.465666,0 -1.116065,0.2694 -1.445339,0.59868 l -0.707628,0.70762 c -0.329274,0.32928 -0.598673,0.97968 -0.598673,1.44534 v 13.54667 c 0,0.46567 0.269399,1.11607 0.598673,1.44534 l 0.707628,0.70763 c 0.329274,0.32927 0.979673,0.59867 1.445339,0.59867 h 13.546667 c 0.465667,0 1.116065,0.2694 1.445339,0.59867 l 0.707628,0.70763 c 0.329274,0.32928 0.598673,0.97967 0.598673,1.44534 v 4.02167 c 0,0.46566 -0.269399,1.11606 -0.598673,1.44534 l -0.707628,0.70762 c -0.329274,0.32928 -0.979672,0.59868 -1.445339,0.59868 H 23.115042 c -0.465666,0 -1.116065,-0.2694 -1.445339,-0.59868 l -0.707628,-0.70762 c -0.329274,-0.32928 -0.598673,-0.97968 -0.598673,-1.44534 v -4.02167 c 0,-0.46567 -0.269398,-1.11606 -0.598672,-1.44534 l -0.707629,-0.70763 c -0.329273,-0.32927 -0.979672,-0.59867 -1.445339,-0.59867 h -4.021666 c -0.465667,0 -1.116066,-0.2694 -1.44534,-0.59867 l -0.707628,-0.70763 c -0.329274,-0.32927 -0.598673,-0.97967 -0.598673,-1.44534 v -13.54667 c 0,-0.46566 -0.269398,-1.11606 -0.598672,-1.44534 l -0.7076279,-0.70762 c -0.329274,-0.32928 -0.979673,-0.59868 -1.44534,-0.59868 h -4.021666 c -0.465667,0 -1.116066,-0.26939 -1.44534,-0.59867 l -0.707628,-0.70763 c -0.329274,-0.32927 -0.598673,-0.97967 -0.598673,-1.44534 v -4.02166 c 0,-0.46567 0.269399,-1.11607 0.598673,-1.44534 l 0.707628,-0.70763 c 0.329274,-0.32927 0.979673,-0.59867 1.44534,-0.59867 h 4.021666 c 0.465667,0 1.116066,-0.2694 1.44534,-0.59868 l 0.7076279,-0.70762 c 0.329274,-0.32928 0.598672,-0.97968 0.598672,-1.44534 v -13.54664 c 0,-0.46567 0.269399,-1.11607 0.598673,-1.44534 l 0.707628,-0.70763 c 0.329274,-0.32927 0.979673,-0.59867 1.44534,-0.59867 h 4.021666 z"
       id="path2-8"
       style="fill:#ffffff;stroke-width:0.264583" />
    <path
       class="cls-1"
       d="m 121.9271,210.64361 c -0.32927,-0.32927 -0.97967,-0.59867 -1.44534,-0.59867 h -4.02166 c -0.46567,0 -1.11607,-0.2694 -1.44534,-0.59867 l -0.70763,-0.70763 c -0.32928,-0.32928 -0.59867,-0.97967 -0.59867,-1.44534 v -4.02167 c 0,-0.46566 -0.2694,-1.11606 -0.59868,-1.44534 l -0.70762,-0.70762 c -0.32928,-0.32928 -0.97968,-0.59868 -1.44534,-0.59868 H 87.885148 c -0.46567,0 -1.11607,0.2694 -1.44534,0.59868 l -0.70763,0.70762 c -0.32927,0.32928 -0.59867,0.97968 -0.59867,1.44534 v 4.02167 c 0,0.46567 0.2694,1.11606 0.59867,1.44534 l 0.70763,0.70763 c 0.32927,0.32927 0.97967,0.59867 1.44534,0.59867 h 23.071672 c 0.46566,0 1.11606,0.2694 1.44534,0.59867 l 0.70762,0.70763 c 0.32928,0.32927 0.59868,0.97967 0.59868,1.44534 v 4.02167 c 0,0.46566 -0.2694,1.11606 -0.59868,1.44534 l -0.70762,0.70762 c -0.32928,0.32928 -0.97968,0.59868 -1.44534,0.59868 H 87.885148 c -0.46567,0 -1.11607,0.2694 -1.44534,0.59867 l -0.70763,0.70763 c -0.32927,0.32927 -0.59867,0.97967 -0.59867,1.44534 v 13.54666 c 0,0.46567 0.2694,1.11607 0.59867,1.44534 l 0.70763,0.70763 c 0.32927,0.32927 0.97967,0.59867 1.44534,0.59867 h 4.02167 c 0.46566,0 1.11606,0.2694 1.44534,0.59868 l 0.70762,0.70762 c 0.32928,0.32928 0.59868,0.97968 0.59868,1.44534 v 4.02167 c 0,0.46567 0.2694,1.11607 0.59867,1.44534 l 0.70763,0.70763 c 0.32927,0.32927 0.97967,0.59867 1.44534,0.59867 h 23.071662 c 0.46567,0 1.11607,-0.2694 1.44534,-0.59867 l 0.70763,-0.70763 c 0.32927,-0.32927 0.59867,-0.97967 0.59867,-1.44534 v -32.59667 c 0,-0.46566 -0.2694,-1.11606 -0.59867,-1.44534 l -0.70763,-0.70762 z m -8.21867,25.22466 c 0,0.46567 -0.2694,1.11607 -0.59867,1.44534 l -0.70763,0.70763 c -0.32928,0.32927 -0.97967,0.59867 -1.44534,0.59867 H 97.410118 c -0.46566,0 -1.11606,-0.2694 -1.44534,-0.59867 l -0.70762,-0.70763 c -0.32928,-0.32927 -0.59868,-0.97967 -0.59868,-1.44534 v -4.02166 c 0,-0.46567 0.2694,-1.11607 0.59868,-1.44534 l 0.70762,-0.70763 c 0.32928,-0.32928 0.97968,-0.59867 1.44534,-0.59867 h 13.546672 c 0.46567,0 1.11606,0.26939 1.44534,0.59867 l 0.70763,0.70763 c 0.32927,0.32927 0.59867,0.97967 0.59867,1.44534 z"
       id="path3-0"
       style="fill:#ffffff;stroke-width:0.264583" />
  </g>
  <g
     inkscape:groupmode="layer"
     id="layer2"
     inkscape:label="components"
     style="display:none"
     transform="matrix(3.2104245,0,0,3.2104245,26.073133,-36.655986)">
    <circle
       style="display:inline;opacity:1;vector-effect:none;fill:#0000ff;fill-opacity:1;fill-rule:evenodd;stroke:none;stroke-width:1;stroke-linecap:butt;stroke-linejoin:miter;stroke-miterlimit:4;stroke-dasharray:none;stroke-dashoffset:0;stroke-opacity:1;paint-order:normal"
       id="circle4958"
       cx="22.141983"
       cy="113.32281"
       r="4"
       inkscape:label="output" />
    <circle
       r="4"
       cy="103.17253"
       cx="22.141983"
       id="circle1"
       style="display:inline;opacity:1;vector-effect:none;fill:#00ff00;fill-opacity:1;fill-rule:evenodd;stroke:none;stroke-width:1;stroke-linecap:butt;stroke-linejoin:miter;stroke-miterlimit:4;stroke-dasharray:none;stroke-dashoffset:0;stroke-opacity:1;paint-order:normal"
       inkscape:label="input" />
    <circle
       cy="93.022247"
       cx="22.141983"
       id="circle4956"
       style="display:inline;opacity:1;vector-effect:none;fill:#00ff00;fill-opacity:1;fill-rule:evenodd;stroke:none;stroke-width:1;stroke-linecap:butt;stroke-linejoin:miter;stroke-miterlimit:4;stroke-dasharray:none;stroke-dashoffset:0;stroke-opacity:1;paint-order:normal"
       inkscape:label="reset"
       r="4" />
    <circle
       style="display:inline;opacity:1;vector-effect:none;fill:#ff0000;fill-opacity:1;fill-rule:evenodd;stroke:none;stroke-width:1;stroke-linecap:butt;stroke-linejoin:miter;stroke-miterlimit:4;stroke-dasharray:none;stroke-dashoffset:0;stroke-opacity:1;paint-order:normal"
       id="circle26"
       cx="8.3380136"
       cy="113.32281"
       r="4"
       inkscape:label="vz" />
    <circle
       style="display:inline;opacity:1;vector-effect:none;fill:#ff0000;fill-opacity:1;fill-rule:evenodd;stroke:none;stroke-width:1;stroke-linecap:butt;stroke-linejoin:miter;stroke-miterlimit:4;stroke-dasharray:none;stroke-dashoffset:0;stroke-opacity:1;paint-order:normal"
       id="circle3"
       cx="8.3380136"
       cy="103.17253"
       r="4"
       inkscape:label="vy" />
    <circle
       style="display:inline;opacity:1;vector-effect:none;fill:#ff0000;fill-opacity:1;fill-rule:evenodd;stroke:none;stroke-width:1;stroke-linecap:butt;stroke-linejoin:miter;stroke-miterlimit:4;stroke-dasharray:none;stroke-dashoffset:0;stroke-opacity:1;paint-order:normal"
       id="path4954"
       cx="8.3380136"
       cy="93.022255"
       r="4"
       inkscape:label="vx" />
  </g>
  <path
     style="font-family:'Monaspace Krypton';-inkscape-font-specification:'Monaspace Krypton';fill:#ffffff"
     d="m 57.864032,18.766001 h 1.176 v -8.76 h -1.176 v 3.774 h -2.904 v -3.774 h -1.176 v 8.76 h 1.176 v -4.038 h 2.904 z m 3.419987,0 h 5.202 l 0.144,-0.984 h -4.182 v -2.928 h 3.216 v -0.936 h -3.216 v -2.928 h 3.96 l -0.138,-0.984 h -4.986 z m 11.579987,0 h 1.176 v -1.704 l -1.95,-2.556 1.95,-2.814 v -1.686 h -1.092 v 1.428 l -1.488,2.244 -1.74,-2.28 v -1.392 h -1.176 v 1.704 l 1.95,2.55 -1.95,2.82 v 1.686 h 1.092 v -1.416 l 1.494,-2.256 1.734,2.268 z m 3.239987,0 h 1.092 v -6.51 h 0.072 l 3.108,6.504 h 0.984 v -8.76 h -1.092 v 6.366 h -0.072 l -3.048,-6.36 h -1.044 z m 8.471988,0 h 3.192 l 1.032,-1.29 v -7.47 h -1.176 v 7.044 l -0.54,0.732 h -1.824 l -0.54,-0.732 v -7.044 h -1.176 v 7.47 z m 8.417987,0 h 1.164 v -7.776 h 2.598 l -0.096,-0.984 h -6.096 l -0.102,0.984 h 2.532 z"
     id="text1"
     aria-label="HEXNUT" />
</svg>
