<?xml version="1.0" encoding="UTF-8" standalone="no"?>
<svg
   width="150"
   height="380"
   viewBox="0 0 150 380"
   version="1.1"
   id="svg26"
   sodipodi:docname="HexNutNoCV.svg"
   inkscape:version="1.3 (0e150ed, 2023-07-21)"
   xmlns:inkscape="http://www.inkscape.org/namespaces/inkscape"
   xmlns:sodipodi="http://sodipodi.sourceforge.net/DTD/sodipodi-0.dtd"
   xmlns="http://www.w3.org/2000/svg"
   xmlns:svg="http://www.w3.org/2000/svg">
  <sodipodi:namedview
     id="namedview26"
     pagecolor="#ffffff"
     bordercolor="#000000"
     borderopacity="0.25"
     inkscape:showpageshadow="2"
     inkscape:pageopacity="0.0"
     inkscape:pagecheckerboard="0"
     inkscape:deskcolor="#d1d1d1"
     inkscape:zoom="1.7019936"
     inkscape:cx="29.671087"
     inkscape:cy="237.95624"
     inkscape:window-width="1392"
     inkscape:window-height="1099"
     inkscape:window-x="0"
     inkscape:window-y="25"
     inkscape:window-maximized="0"
     inkscape:current-layer="svg26" />
  <defs
     id="defs2">
    <linearGradient
       id="uuid-8d2ada1e-9607-436b-9caa-9d38c4b7fccb"
       x1="75"
       y1="0"
       x2="75"
       y2="380"
       gradientUnits="userSpaceOnUse">
      <stop
         offset="0"
         stop-color="#2a2a2b"
         id="stop1" />
      <stop
         offset="1"
         stop-color="#171717"
         id="stop2" />
    </linearGradient>
  </defs>
  <g
     inkscape:groupmode="layer"
     id="layer2"
     inkscape:label="components"
     style="display:none"
     transform="matrix(3.2104245,0,0,3.2104245,26.073133,-36.655986)">
    <circle
       style="display:inline;opacity:1;vector-effect:none;fill:#0000ff;fill-opacity:1;fill-rule:evenodd;stroke:none;stroke-width:1;stroke-linecap:butt;stroke-linejoin:miter;stroke-miterlimit:4;stroke-dasharray:none;stroke-dashoffset:0;stroke-opacity:1;paint-order:normal"
       id="circle4958"
       cx="22.141983"
       cy="113.32281"
       r="4"
       inkscape:label="output" />
    <circle
       r="4"
       cy="103.17253"
       cx="22.141983"
       id="circle1"
       style="display:inline;opacity:1;vector-effect:none;fill:#00ff00;fill-opacity:1;fill-rule:evenodd;stroke:none;stroke-width:1;stroke-linecap:butt;stroke-linejoin:miter;stroke-miterlimit:4;stroke-dasharray:none;stroke-dashoffset:0;stroke-opacity:1;paint-order:normal"
       inkscape:label="input" />
    <circle
       cy="93.022247"
       cx="22.141983"
       id="circle4956"
       style="display:inline;opacity:1;vector-effect:none;fill:#00ff00;fill-opacity:1;fill-rule:evenodd;stroke:none;stroke-width:1;stroke-linecap:butt;stroke-linejoin:miter;stroke-miterlimit:4;stroke-dasharray:none;stroke-dashoffset:0;stroke-opacity:1;paint-order:normal"
       inkscape:label="reset"
       r="4" />
    <circle
       style="display:inline;opacity:1;vector-effect:none;fill:#ff0000;fill-opacity:1;fill-rule:evenodd;stroke:none;stroke-width:1;stroke-linecap:butt;stroke-linejoin:miter;stroke-miterlimit:4;stroke-dasharray:none;stroke-dashoffset:0;stroke-opacity:1;paint-order:normal"
       id="circle26"
       cx="8.3380136"
       cy="113.32281"
       r="4"
       inkscape:label="vz" />
    <circle
       style="display:inline;opacity:1;vector-effect:none;fill:#ff0000;fill-opacity:1;fill-rule:evenodd;stroke:none;stroke-width:1;stroke-linecap:butt;stroke-linejoin:miter;stroke-miterlimit:4;stroke-dasharray:none;stroke-dashoffset:0;stroke-opacity:1;paint-order:normal"
       id="circle3"
       cx="8.3380136"
       cy="103.17253"
       r="4"
       inkscape:label="vy" />
    <circle
       style="display:inline;opacity:1;vector-effect:none;fill:#ff0000;fill-opacity:1;fill-rule:evenodd;stroke:none;stroke-width:1;stroke-linecap:butt;stroke-linejoin:miter;stroke-miterlimit:4;stroke-dasharray:none;stroke-dashoffset:0;stroke-opacity:1;paint-order:normal"
       id="path4954"
       cx="8.3380136"
       cy="93.022255"
       r="4"
       inkscape:label="vx" />
  </g>
  <g
     id="g1"
     transform="translate(95,-176)">
    <rect
       width="150"
       height="380"
       fill="#1e1e1e"
       id="rect1"
       x="-95"
       y="176" />
    <rect
       width="150"
       height="380"
       fill="#ffffff"
       id="rect2-3"
       x="-95"
       y="176" />
    <rect
       width="150"
       height="374"
       fill="#ffffff"
       id="rect3"
       x="-95"
       y="179" />
    <path
       d="m -19.9658,393.975 1.0732,-1.952 h 0.7451 l -1.4458,2.468 1.48,2.509 h -0.7383 l -1.1005,-1.989 -1.1041,1.989 h -0.7485 l 1.4834,-2.509 -1.4458,-2.468 h 0.7417 z m -0.0752,28.547 1.1348,-2.499 h 0.7177 l -1.5483,3.121 -0.0103,1.856 h -0.5879 l -0.0102,-1.856 -1.5484,-3.121 h 0.7212 z m -0.9502,29.941 h 2.5771 V 453 h -3.2915 l -0.0068,-0.492 2.478,-3.945 h -2.4336 v -0.54 h 3.1548 l 0.0069,0.482 z"
       fill="#000000"
       id="path3"
       style="display:inline" />
    <circle
       cx="-76"
       cy="450"
       r="12"
       fill="#d9d9d9"
       id="circle3-9" />
    <circle
       cx="36"
       cy="450"
       r="12"
       fill="#d9d9d9"
       id="circle4" />
    <circle
       cx="36"
       cy="534"
       r="12"
       fill="#d9d9d9"
       id="circle5" />
    <circle
       cx="-76"
       cy="422"
       r="12"
       fill="#d9d9d9"
       id="circle6" />
    <circle
       cx="36"
       cy="422"
       r="12"
       fill="#d9d9d9"
       id="circle7" />
    <circle
       cx="8"
       cy="422"
       r="12"
       fill="#d9d9d9"
       id="circle8" />
    <circle
       cx="8"
       cy="394"
       r="12"
       fill="#d9d9d9"
       id="circle9" />
    <circle
       cx="8"
       cy="450"
       r="12"
       fill="#d9d9d9"
       id="circle10" />
    <circle
       cx="-48"
       cy="422"
       r="12"
       fill="#d9d9d9"
       id="circle11" />
    <circle
       cx="-48"
       cy="506"
       r="12"
       fill="#d9d9d9"
       id="circle12" />
    <circle
       cx="-20"
       cy="506"
       r="12"
       fill="#d9d9d9"
       id="circle13" />
    <circle
       cx="8"
       cy="506"
       r="12"
       fill="#d9d9d9"
       id="circle14" />
    <circle
       cx="-48"
       cy="450"
       r="12"
       fill="#d9d9d9"
       id="circle15" />
    <circle
       cx="-48"
       cy="394"
       r="12"
       fill="#d9d9d9"
       id="circle16" />
    <circle
       cx="-76"
       cy="534"
       r="12"
       fill="#d9d9d9"
       id="circle17" />
    <rect
       x="-85"
       y="217"
       width="130"
       height="130"
       fill="#d9d9d9"
       id="rect17" />
    <path
       d="m -79.6094,509.023 h 3.0078 v 0.551 h -1.1928 v 3.879 h 1.1928 V 514 h -3.0078 v -0.547 h 1.1656 v -3.879 h -1.1656 z m 7.3213,4.977 h -0.6426 l -1.9311,-3.719 -0.0103,3.719 h -0.6391 v -4.977 h 0.6425 l 1.9312,3.712 0.0103,-3.712 h 0.6391 z"
       fill="#000000"
       id="path17" />
    <path
       d="m -57.6558,374 -0.6049,-4.977 h 0.6015 l 0.3589,3.432 0.0205,0.198 0.0376,-0.205 0.6016,-3.425 h 0.5503 l 0.6049,3.429 0.0376,0.201 0.0206,-0.205 0.3588,-3.425 h 0.5982 l -0.605,4.977 h -0.646 l -0.605,-3.541 -0.0342,-0.209 -0.0375,0.212 -0.6084,3.538 z m 5.5918,-2.03 h -0.9946 V 374 h -0.6289 v -4.977 h 1.4595 c 0.2324,0.005 0.4511,0.038 0.6562,0.1 0.2051,0.061 0.3851,0.153 0.5401,0.276 0.1526,0.123 0.2723,0.278 0.3588,0.465 0.0889,0.185 0.1333,0.402 0.1333,0.653 0,0.162 -0.0239,0.31 -0.0717,0.444 -0.0456,0.135 -0.1094,0.257 -0.1914,0.366 -0.0821,0.11 -0.18,0.206 -0.294,0.291 -0.1139,0.084 -0.2392,0.156 -0.376,0.215 l 1.0562,2.126 -0.0034,0.041 h -0.6665 z m -0.9946,-0.52 h 0.8477 c 0.1412,-0.002 0.2745,-0.024 0.3999,-0.065 0.1253,-0.043 0.2358,-0.105 0.3315,-0.184 0.0934,-0.08 0.1675,-0.177 0.2222,-0.291 0.0547,-0.116 0.082,-0.249 0.082,-0.4 0,-0.159 -0.0262,-0.298 -0.0786,-0.417 -0.0524,-0.121 -0.1253,-0.222 -0.2188,-0.304 -0.0934,-0.08 -0.205,-0.14 -0.3349,-0.181 -0.1276,-0.041 -0.2678,-0.063 -0.4204,-0.065 h -0.8306 z m 3.5513,-2.427 h 3.0078 v 0.551 h -1.1929 v 3.879 h 1.1929 V 374 h -3.0078 v -0.547 h 1.1655 v -3.879 h -1.1655 z m 7.5605,0.54 h -1.5381 V 374 h -0.6152 v -4.437 h -1.5381 v -0.54 h 3.6914 z m 3.5855,2.137 h -2.0782 v 1.763 h 2.4234 V 374 h -3.0557 v -4.977 h 3.0249 v 0.54 h -2.3926 v 1.6 h 2.0782 z"
       fill="#000000"
       id="path18" />
    <path
       d="m -57.9224,486 v -4.977 h 1.48 c 0.2051,0.003 0.4056,0.03 0.6016,0.082 0.1959,0.051 0.3703,0.129 0.5229,0.236 0.1527,0.107 0.2746,0.244 0.3658,0.41 0.0911,0.167 0.1355,0.366 0.1333,0.599 -0.0023,0.129 -0.024,0.248 -0.065,0.355 -0.0387,0.107 -0.0923,0.203 -0.1606,0.287 -0.0707,0.087 -0.1493,0.16 -0.2359,0.219 -0.0843,0.059 -0.1868,0.115 -0.3076,0.167 v 0.011 c 0.1253,0.029 0.2461,0.083 0.3623,0.16 0.1162,0.078 0.2119,0.163 0.2871,0.257 0.0798,0.102 0.1413,0.217 0.1846,0.345 0.0456,0.127 0.0684,0.265 0.0684,0.413 0.0022,0.233 -0.0422,0.438 -0.1333,0.616 -0.0912,0.177 -0.2131,0.326 -0.3658,0.444 -0.1526,0.121 -0.3292,0.213 -0.5298,0.277 -0.1982,0.064 -0.4033,0.097 -0.6152,0.099 z m 0.6358,-2.328 v 1.791 h 0.9741 c 0.1322,-0.002 0.2575,-0.024 0.376,-0.065 0.1185,-0.043 0.2233,-0.102 0.3144,-0.177 0.0912,-0.075 0.163,-0.168 0.2154,-0.277 0.0546,-0.11 0.082,-0.234 0.082,-0.373 0.0023,-0.141 -0.0217,-0.266 -0.0718,-0.376 -0.0478,-0.109 -0.1151,-0.202 -0.2016,-0.28 -0.0866,-0.075 -0.188,-0.133 -0.3042,-0.174 -0.1163,-0.041 -0.2416,-0.064 -0.376,-0.069 z m 0,-0.526 h 0.8818 c 0.1185,-0.002 0.2347,-0.021 0.3486,-0.055 0.114,-0.036 0.2154,-0.089 0.3042,-0.157 0.0889,-0.066 0.1607,-0.148 0.2154,-0.246 0.0547,-0.098 0.082,-0.212 0.082,-0.342 0,-0.139 -0.0273,-0.257 -0.082,-0.355 -0.0524,-0.098 -0.1231,-0.179 -0.2119,-0.243 -0.0912,-0.061 -0.196,-0.107 -0.3145,-0.137 -0.1162,-0.029 -0.2358,-0.045 -0.3589,-0.048 h -0.8647 z m 4.2895,2.317 h 2.4336 V 486 h -3.0659 v -4.977 h 0.6323 z m 6.2276,-1.763 h -2.0782 v 1.763 h 2.4234 V 486 H -49.48 v -4.977 h 3.0249 v 0.54 h -2.3926 v 1.6 h 2.0782 z m 4.5835,2.3 h -0.6426 L -44.7598,482.281 -44.77,486 h -0.6392 v -4.977 h 0.6426 l 1.9312,3.712 0.0102,-3.712 h 0.6392 z m 1.0219,0 v -4.977 h 1.1519 c 0.1937,0.003 0.376,0.023 0.5469,0.062 0.1731,0.036 0.3327,0.089 0.4785,0.157 0.2028,0.094 0.3817,0.217 0.5366,0.369 0.1572,0.151 0.2826,0.325 0.376,0.523 0.0843,0.169 0.1481,0.353 0.1914,0.554 0.0456,0.201 0.0695,0.415 0.0718,0.643 v 0.365 c 0,0.219 -0.0217,0.426 -0.065,0.622 -0.041,0.196 -0.1014,0.376 -0.1811,0.54 -0.0821,0.171 -0.1857,0.326 -0.3111,0.465 -0.1253,0.139 -0.2654,0.258 -0.4204,0.356 -0.164,0.102 -0.3497,0.181 -0.5571,0.236 -0.2051,0.054 -0.4272,0.083 -0.6665,0.085 z m 0.6426,-4.457 v 3.941 h 0.5093 c 0.1823,-0.002 0.3475,-0.025 0.4956,-0.068 0.1504,-0.044 0.2837,-0.105 0.3999,-0.185 0.123,-0.082 0.229,-0.182 0.3179,-0.301 0.0911,-0.121 0.1629,-0.255 0.2153,-0.403 0.0456,-0.121 0.0798,-0.251 0.1025,-0.39 0.0228,-0.141 0.0354,-0.288 0.0376,-0.441 v -0.372 c -0.0022,-0.155 -0.0159,-0.303 -0.041,-0.445 -0.0228,-0.143 -0.0581,-0.276 -0.1059,-0.4 -0.0616,-0.159 -0.1447,-0.303 -0.2495,-0.43 -0.1026,-0.13 -0.229,-0.235 -0.3794,-0.315 -0.1071,-0.059 -0.2268,-0.104 -0.3589,-0.136 -0.1322,-0.035 -0.2769,-0.053 -0.4341,-0.055 z"
       fill="#000000"
       id="path19" />
    <path
       d="m -1.4131,484.742 c 0,-0.152 -0.0353,-0.281 -0.1059,-0.386 -0.0684,-0.105 -0.1573,-0.194 -0.2666,-0.267 -0.1094,-0.07 -0.2302,-0.13 -0.3623,-0.177 -0.1299,-0.048 -0.2553,-0.092 -0.376,-0.13 -0.1755,-0.057 -0.3544,-0.126 -0.5366,-0.205 -0.1801,-0.082 -0.3441,-0.18 -0.4922,-0.294 -0.1504,-0.116 -0.2735,-0.253 -0.3692,-0.41 -0.0934,-0.16 -0.1401,-0.347 -0.1401,-0.561 0,-0.214 0.0467,-0.406 0.1401,-0.574 0.0957,-0.169 0.2199,-0.311 0.3726,-0.427 0.1527,-0.117 0.3258,-0.204 0.5195,-0.264 0.1937,-0.061 0.3885,-0.092 0.5845,-0.092 0.2165,0 0.425,0.037 0.6255,0.109 0.2005,0.071 0.3782,0.171 0.5332,0.301 0.1549,0.13 0.2791,0.287 0.3725,0.472 0.0935,0.184 0.1425,0.391 0.147,0.619 h -0.6494 c -0.0182,-0.144 -0.0536,-0.274 -0.106,-0.39 -0.0524,-0.119 -0.1219,-0.22 -0.2085,-0.304 -0.0865,-0.085 -0.1902,-0.15 -0.311,-0.195 -0.1185,-0.048 -0.2529,-0.072 -0.4033,-0.072 -0.1208,0 -0.2393,0.017 -0.3555,0.051 -0.1139,0.035 -0.2153,0.086 -0.3042,0.154 -0.0911,0.069 -0.164,0.153 -0.2187,0.253 -0.0524,0.1 -0.0786,0.217 -0.0786,0.349 0.0022,0.143 0.0387,0.265 0.1093,0.365 0.0707,0.098 0.1607,0.182 0.2701,0.25 0.107,0.068 0.2233,0.125 0.3486,0.171 0.1276,0.045 0.2472,0.085 0.3589,0.12 0.1845,0.056 0.3691,0.126 0.5537,0.208 0.1846,0.08 0.3532,0.182 0.5058,0.308 0.1504,0.116 0.2712,0.258 0.3623,0.427 0.0935,0.168 0.1402,0.363 0.1402,0.584 0,0.224 -0.0501,0.418 -0.1504,0.585 -0.098,0.166 -0.2256,0.304 -0.3828,0.413 -0.1572,0.112 -0.335,0.196 -0.5332,0.253 -0.1983,0.055 -0.3965,0.082 -0.5948,0.082 -0.2369,0 -0.4705,-0.04 -0.7006,-0.119 -0.2279,-0.08 -0.4261,-0.195 -0.5948,-0.345 -0.1504,-0.13 -0.27,-0.282 -0.3588,-0.455 -0.0866,-0.176 -0.1333,-0.37 -0.1402,-0.585 h 0.646 c 0.0205,0.155 0.0627,0.293 0.1265,0.414 0.0638,0.119 0.1458,0.219 0.2461,0.301 0.1002,0.084 0.2153,0.148 0.3452,0.191 0.1321,0.041 0.2757,0.062 0.4306,0.062 0.1231,0 0.2439,-0.015 0.3624,-0.045 0.1207,-0.032 0.2278,-0.081 0.3212,-0.147 0.0935,-0.063 0.1698,-0.144 0.229,-0.242 0.0593,-0.101 0.0889,-0.219 0.0889,-0.356 z M 0.877,484.004 V 486 H 0.2446 v -4.977 h 1.6133 c 0.2233,0.005 0.4341,0.04 0.6323,0.106 0.2006,0.066 0.376,0.162 0.5264,0.288 0.1504,0.125 0.2689,0.28 0.3555,0.464 0.0888,0.185 0.1333,0.397 0.1333,0.636 0,0.239 -0.0445,0.451 -0.1333,0.636 -0.0866,0.182 -0.2051,0.336 -0.3555,0.461 -0.1504,0.126 -0.3258,0.221 -0.5264,0.287 -0.1982,0.066 -0.409,0.101 -0.6323,0.103 z m 0,-0.52 h 0.9809 c 0.1458,-0.002 0.2803,-0.025 0.4033,-0.068 0.1231,-0.046 0.2302,-0.109 0.3213,-0.191 0.0912,-0.082 0.1618,-0.182 0.2119,-0.298 0.0524,-0.118 0.0786,-0.253 0.0786,-0.403 0,-0.15 -0.0262,-0.286 -0.0786,-0.407 -0.0501,-0.121 -0.1196,-0.223 -0.2085,-0.307 -0.0911,-0.085 -0.1993,-0.15 -0.3247,-0.195 -0.123,-0.046 -0.2575,-0.07 -0.4033,-0.072 H 0.877 Z m 5.161,0.486 H 5.043 V 486 H 4.4146 v -4.977 H 5.874 c 0.232,0.005 0.451,0.038 0.656,0.1 0.205,0.061 0.385,0.153 0.54,0.276 0.153,0.123 0.273,0.278 0.359,0.465 0.089,0.185 0.133,0.402 0.133,0.653 0,0.162 -0.023,0.31 -0.071,0.444 -0.046,0.135 -0.11,0.257 -0.192,0.366 -0.082,0.11 -0.18,0.206 -0.294,0.291 -0.114,0.084 -0.239,0.156 -0.376,0.215 L 7.686,485.959 7.682,486 H 7.016 Z m -0.995,-0.52 h 0.848 c 0.141,-0.002 0.275,-0.024 0.4,-0.065 0.125,-0.043 0.236,-0.105 0.332,-0.184 0.093,-0.08 0.167,-0.177 0.222,-0.291 0.054,-0.116 0.082,-0.249 0.082,-0.4 0,-0.159 -0.026,-0.298 -0.079,-0.417 -0.052,-0.121 -0.125,-0.222 -0.219,-0.304 -0.093,-0.08 -0.205,-0.14 -0.335,-0.181 -0.127,-0.041 -0.267,-0.063 -0.42,-0.065 H 5.043 Z m 6.29,0.25 H 9.254 v 1.763 h 2.424 V 486 H 8.622 v -4.977 h 3.025 v 0.54 H 9.254 v 1.6 h 2.079 z m 3.841,1.011 h -1.661 l -0.4,1.289 h -0.632 l 1.606,-4.977 h 0.53 L 16.196,486 h -0.629 z m -1.49,-0.55 h 1.323 l -0.656,-2.16 z M 16.938,486 v -4.977 h 1.152 c 0.194,0.003 0.376,0.023 0.547,0.062 0.173,0.036 0.332,0.089 0.478,0.157 0.203,0.094 0.382,0.217 0.537,0.369 0.157,0.151 0.282,0.325 0.376,0.523 0.084,0.169 0.148,0.353 0.191,0.554 0.046,0.201 0.07,0.415 0.072,0.643 v 0.365 c 0,0.219 -0.022,0.426 -0.065,0.622 -0.041,0.196 -0.101,0.376 -0.181,0.54 -0.082,0.171 -0.186,0.326 -0.311,0.465 -0.125,0.139 -0.266,0.258 -0.421,0.356 -0.164,0.102 -0.349,0.181 -0.557,0.236 -0.205,0.054 -0.427,0.083 -0.666,0.085 z m 0.643,-4.457 v 3.941 h 0.509 c 0.182,-0.002 0.347,-0.025 0.495,-0.068 0.151,-0.044 0.284,-0.105 0.4,-0.185 0.123,-0.082 0.229,-0.182 0.318,-0.301 0.091,-0.121 0.163,-0.255 0.216,-0.403 0.045,-0.121 0.079,-0.251 0.102,-0.39 0.023,-0.141 0.035,-0.288 0.038,-0.441 v -0.372 c -0.003,-0.155 -0.016,-0.303 -0.041,-0.445 -0.023,-0.143 -0.058,-0.276 -0.106,-0.4 -0.062,-0.159 -0.145,-0.303 -0.25,-0.43 -0.102,-0.13 -0.229,-0.235 -0.379,-0.315 -0.107,-0.059 -0.227,-0.104 -0.359,-0.136 -0.132,-0.035 -0.277,-0.053 -0.434,-0.055 z"
       fill="#000000"
       id="path20" />
    <path
       d="m -24.5903,484.503 c -0.0297,0.23 -0.0889,0.442 -0.1778,0.636 -0.0888,0.191 -0.2039,0.355 -0.3452,0.492 -0.1435,0.139 -0.3133,0.247 -0.5093,0.325 -0.1936,0.075 -0.4101,0.112 -0.6494,0.112 -0.2051,0 -0.3919,-0.028 -0.5605,-0.085 -0.1664,-0.059 -0.3145,-0.14 -0.4444,-0.243 -0.1321,-0.102 -0.246,-0.223 -0.3418,-0.362 -0.0934,-0.139 -0.1709,-0.291 -0.2324,-0.455 -0.0638,-0.164 -0.1116,-0.336 -0.1435,-0.516 -0.0297,-0.18 -0.0456,-0.362 -0.0479,-0.547 v -0.693 c 0.0023,-0.185 0.0182,-0.367 0.0479,-0.547 0.0319,-0.18 0.0797,-0.352 0.1435,-0.516 0.0615,-0.165 0.139,-0.316 0.2324,-0.455 0.0958,-0.141 0.2097,-0.263 0.3418,-0.366 0.1299,-0.102 0.278,-0.182 0.4444,-0.239 0.1663,-0.059 0.3532,-0.089 0.5605,-0.089 0.2484,0 0.4706,0.039 0.6665,0.116 0.196,0.075 0.3646,0.183 0.5059,0.322 0.1413,0.141 0.2541,0.309 0.3384,0.505 0.0866,0.196 0.1435,0.413 0.1709,0.65 h -0.6324 c -0.0205,-0.151 -0.0558,-0.291 -0.1059,-0.421 -0.0501,-0.129 -0.1174,-0.243 -0.2017,-0.341 -0.0843,-0.098 -0.188,-0.175 -0.311,-0.229 -0.1208,-0.057 -0.2643,-0.086 -0.4307,-0.086 -0.1504,0 -0.2837,0.025 -0.3999,0.075 -0.1139,0.048 -0.2119,0.114 -0.2939,0.199 -0.0843,0.084 -0.155,0.182 -0.2119,0.294 -0.0547,0.111 -0.0992,0.23 -0.1333,0.355 -0.0342,0.125 -0.0593,0.254 -0.0752,0.386 -0.0137,0.13 -0.0205,0.257 -0.0205,0.38 v 0.7 c 0,0.123 0.0068,0.251 0.0205,0.383 0.0159,0.13 0.041,0.258 0.0752,0.383 0.0341,0.128 0.0786,0.247 0.1333,0.359 0.0547,0.112 0.1242,0.209 0.2085,0.294 0.0843,0.086 0.1834,0.155 0.2973,0.205 0.114,0.048 0.2473,0.072 0.3999,0.072 0.1664,0 0.3099,-0.027 0.4307,-0.079 0.123,-0.052 0.2267,-0.126 0.311,-0.222 0.0843,-0.094 0.1516,-0.204 0.2017,-0.332 0.0501,-0.13 0.0854,-0.27 0.1059,-0.42 z m 1.6953,0.96 h 2.4336 V 486 h -3.0659 v -4.977 h 0.6323 z m 3.4897,-4.44 h 3.0078 v 0.551 h -1.1928 v 3.879 h 1.1928 V 486 h -3.0078 v -0.547 h 1.1656 v -3.879 h -1.1656 z m 4.8946,2.981 V 486 h -0.6324 v -4.977 h 1.6133 c 0.2233,0.005 0.4341,0.04 0.6323,0.106 0.2006,0.066 0.376,0.162 0.5264,0.288 0.1504,0.125 0.2689,0.28 0.3555,0.464 0.0888,0.185 0.1333,0.397 0.1333,0.636 0,0.239 -0.0445,0.451 -0.1333,0.636 -0.0866,0.182 -0.2051,0.336 -0.3555,0.461 -0.1504,0.126 -0.3258,0.221 -0.5264,0.287 -0.1982,0.066 -0.409,0.101 -0.6323,0.103 z m 0,-0.52 h 0.9809 c 0.1458,-0.002 0.2803,-0.025 0.4033,-0.068 0.1231,-0.046 0.2302,-0.109 0.3213,-0.191 0.0912,-0.082 0.1618,-0.182 0.2119,-0.298 0.0524,-0.118 0.0787,-0.253 0.0787,-0.403 0,-0.15 -0.0263,-0.286 -0.0787,-0.407 -0.0501,-0.121 -0.1196,-0.223 -0.2085,-0.307 -0.0911,-0.085 -0.1993,-0.15 -0.3247,-0.195 -0.123,-0.046 -0.2575,-0.07 -0.4033,-0.072 h -0.9809 z"
       fill="#000000"
       id="path21" />
    <path
       d="m -81.209,400.742 c 0,-0.152 -0.0353,-0.281 -0.1059,-0.386 -0.0684,-0.105 -0.1573,-0.194 -0.2666,-0.267 -0.1094,-0.07 -0.2302,-0.13 -0.3623,-0.177 -0.1299,-0.048 -0.2553,-0.092 -0.376,-0.13 -0.1755,-0.057 -0.3544,-0.126 -0.5366,-0.205 -0.1801,-0.082 -0.3441,-0.18 -0.4922,-0.294 -0.1504,-0.116 -0.2735,-0.253 -0.3692,-0.41 -0.0934,-0.16 -0.1401,-0.347 -0.1401,-0.561 0,-0.214 0.0467,-0.406 0.1401,-0.574 0.0957,-0.169 0.2199,-0.311 0.3726,-0.427 0.1527,-0.117 0.3258,-0.204 0.5195,-0.264 0.1937,-0.061 0.3885,-0.092 0.5845,-0.092 0.2165,0 0.425,0.037 0.6255,0.109 0.2005,0.071 0.3782,0.171 0.5332,0.301 0.1549,0.13 0.2791,0.287 0.3725,0.472 0.0935,0.184 0.1425,0.391 0.147,0.619 h -0.6494 c -0.0182,-0.144 -0.0536,-0.274 -0.106,-0.39 -0.0524,-0.119 -0.1219,-0.22 -0.2085,-0.304 -0.0865,-0.085 -0.1902,-0.15 -0.311,-0.195 -0.1185,-0.048 -0.2529,-0.072 -0.4033,-0.072 -0.1208,0 -0.2393,0.017 -0.3555,0.051 -0.1139,0.035 -0.2153,0.086 -0.3042,0.154 -0.0911,0.069 -0.164,0.153 -0.2187,0.253 -0.0524,0.1 -0.0786,0.217 -0.0786,0.349 0.0022,0.143 0.0387,0.265 0.1093,0.365 0.0707,0.098 0.1607,0.182 0.2701,0.25 0.107,0.068 0.2233,0.125 0.3486,0.171 0.1276,0.045 0.2472,0.085 0.3589,0.12 0.1845,0.056 0.3691,0.126 0.5537,0.208 0.1846,0.08 0.3532,0.182 0.5058,0.308 0.1504,0.116 0.2712,0.258 0.3623,0.427 0.0935,0.168 0.1402,0.363 0.1402,0.584 0,0.224 -0.0501,0.418 -0.1504,0.585 -0.098,0.166 -0.2256,0.304 -0.3828,0.413 -0.1572,0.112 -0.335,0.196 -0.5332,0.253 -0.1983,0.055 -0.3965,0.082 -0.5947,0.082 -0.237,0 -0.4706,-0.04 -0.7007,-0.119 -0.2279,-0.08 -0.4261,-0.195 -0.5948,-0.345 -0.1503,-0.13 -0.27,-0.282 -0.3588,-0.455 -0.0866,-0.176 -0.1333,-0.37 -0.1402,-0.585 h 0.646 c 0.0205,0.155 0.0627,0.293 0.1265,0.414 0.0638,0.119 0.1458,0.219 0.2461,0.301 0.1002,0.084 0.2153,0.148 0.3452,0.191 0.1321,0.041 0.2757,0.062 0.4307,0.062 0.123,0 0.2438,-0.015 0.3623,-0.045 0.1207,-0.032 0.2278,-0.081 0.3212,-0.147 0.0935,-0.063 0.1698,-0.144 0.229,-0.242 0.0593,-0.101 0.0889,-0.219 0.0889,-0.356 z m 1.5996,-3.719 h 3.0078 v 0.551 h -1.1928 v 3.879 h 1.1928 V 402 h -3.0078 v -0.547 h 1.1656 v -3.879 h -1.1656 z m 4.7202,4.44 h 2.5772 V 402 h -3.2915 l -0.0069,-0.492 2.4781,-3.945 h -2.4336 v -0.54 h 3.1548 l 0.0068,0.482 z m 6.4258,-1.763 h -2.0781 v 1.763 h 2.4233 V 402 h -3.0556 v -4.977 h 3.0249 v 0.54 h -2.3926 v 1.6 h 2.0781 z"
       fill="#000000"
       id="path22" />
    <path
       d="m 30.791,400.742 c 0,-0.152 -0.035,-0.281 -0.106,-0.386 -0.068,-0.105 -0.157,-0.194 -0.267,-0.267 -0.109,-0.07 -0.23,-0.13 -0.362,-0.177 -0.13,-0.048 -0.255,-0.092 -0.376,-0.13 -0.175,-0.057 -0.354,-0.126 -0.536,-0.205 -0.18,-0.082 -0.345,-0.18 -0.493,-0.294 -0.15,-0.116 -0.273,-0.253 -0.369,-0.41 -0.093,-0.16 -0.14,-0.347 -0.14,-0.561 0,-0.214 0.047,-0.406 0.14,-0.574 0.096,-0.169 0.22,-0.311 0.373,-0.427 0.152,-0.117 0.326,-0.204 0.519,-0.264 0.194,-0.061 0.389,-0.092 0.585,-0.092 0.216,0 0.425,0.037 0.625,0.109 0.201,0.071 0.379,0.171 0.533,0.301 0.155,0.13 0.28,0.287 0.373,0.472 0.093,0.184 0.142,0.391 0.147,0.619 h -0.649 c -0.019,-0.144 -0.054,-0.274 -0.106,-0.39 -0.053,-0.119 -0.122,-0.22 -0.209,-0.304 -0.086,-0.085 -0.19,-0.15 -0.311,-0.195 -0.118,-0.048 -0.253,-0.072 -0.403,-0.072 -0.121,0 -0.239,0.017 -0.356,0.051 -0.114,0.035 -0.215,0.086 -0.304,0.154 -0.091,0.069 -0.164,0.153 -0.219,0.253 -0.052,0.1 -0.078,0.217 -0.078,0.349 0.002,0.143 0.038,0.265 0.109,0.365 0.071,0.098 0.161,0.182 0.27,0.25 0.107,0.068 0.223,0.125 0.349,0.171 0.127,0.045 0.247,0.085 0.359,0.12 0.184,0.056 0.369,0.126 0.553,0.208 0.185,0.08 0.354,0.182 0.506,0.308 0.151,0.116 0.271,0.258 0.363,0.427 0.093,0.168 0.14,0.363 0.14,0.584 0,0.224 -0.05,0.418 -0.151,0.585 -0.098,0.166 -0.225,0.304 -0.383,0.413 -0.157,0.112 -0.334,0.196 -0.533,0.253 -0.198,0.055 -0.396,0.082 -0.594,0.082 -0.237,0 -0.471,-0.04 -0.701,-0.119 -0.228,-0.08 -0.426,-0.195 -0.595,-0.345 -0.15,-0.13 -0.27,-0.282 -0.359,-0.455 -0.086,-0.176 -0.133,-0.37 -0.14,-0.585 h 0.646 c 0.021,0.155 0.063,0.293 0.127,0.414 0.063,0.119 0.145,0.219 0.246,0.301 0.1,0.084 0.215,0.148 0.345,0.191 0.132,0.041 0.276,0.062 0.431,0.062 0.123,0 0.243,-0.015 0.362,-0.045 0.121,-0.032 0.228,-0.081 0.321,-0.147 0.094,-0.063 0.17,-0.144 0.229,-0.242 0.059,-0.101 0.089,-0.219 0.089,-0.356 z m 1.6,-3.719 h 3.007 v 0.551 h -1.192 v 3.879 h 1.192 V 402 h -3.007 v -0.547 h 1.165 v -3.879 h -1.165 z m 4.72,4.44 h 2.577 V 402 h -3.292 l -0.006,-0.492 2.478,-3.945 h -2.434 v -0.54 h 3.155 l 0.007,0.482 z m 6.426,-1.763 h -2.079 v 1.763 h 2.424 V 402 h -3.056 v -4.977 h 3.025 v 0.54 h -2.393 v 1.6 h 2.079 z"
       fill="#000000"
       id="path23" />
    <path
       d="m -83.1196,471.023 0.81,2.489 0.875,-2.489 h 0.7862 V 476 h -0.6153 v -1.986 l 0.0513,-2.078 -0.9194,2.68 h -0.3623 l -0.8443,-2.608 0.0513,2.006 V 476 h -0.6152 v -4.977 z m 6.747,2.776 c -0.0022,0.178 -0.0182,0.358 -0.0478,0.54 -0.0274,0.18 -0.0706,0.354 -0.1299,0.523 -0.0592,0.168 -0.1356,0.326 -0.229,0.471 -0.0911,0.146 -0.2005,0.274 -0.3281,0.383 -0.1276,0.11 -0.2746,0.196 -0.4409,0.26 -0.1641,0.062 -0.3487,0.092 -0.5538,0.092 -0.205,0 -0.3907,-0.03 -0.5571,-0.092 -0.164,-0.064 -0.3099,-0.15 -0.4375,-0.26 -0.1276,-0.109 -0.2381,-0.237 -0.3315,-0.383 -0.0934,-0.148 -0.1698,-0.306 -0.229,-0.475 -0.0616,-0.168 -0.1071,-0.343 -0.1367,-0.523 -0.0297,-0.18 -0.0456,-0.358 -0.0479,-0.536 v -0.568 c 0.0023,-0.177 0.0171,-0.356 0.0444,-0.536 0.0297,-0.182 0.0752,-0.358 0.1368,-0.527 0.0592,-0.168 0.1344,-0.325 0.2255,-0.471 0.0935,-0.148 0.204,-0.278 0.3316,-0.39 0.1276,-0.109 0.2734,-0.195 0.4375,-0.256 0.1663,-0.064 0.352,-0.096 0.5571,-0.096 0.2051,0 0.3908,0.032 0.5571,0.096 0.1664,0.061 0.3134,0.147 0.441,0.256 0.1276,0.11 0.2369,0.238 0.3281,0.386 0.0934,0.146 0.1709,0.303 0.2324,0.472 0.0593,0.169 0.1025,0.344 0.1299,0.526 0.0296,0.183 0.0456,0.363 0.0478,0.54 z m -0.6254,-0.574 c -0.0023,-0.119 -0.0103,-0.242 -0.024,-0.37 -0.0136,-0.129 -0.0364,-0.258 -0.0683,-0.386 -0.0342,-0.125 -0.0786,-0.245 -0.1333,-0.359 -0.0547,-0.116 -0.1231,-0.218 -0.2051,-0.307 -0.082,-0.087 -0.1789,-0.155 -0.2905,-0.205 -0.1117,-0.053 -0.2416,-0.079 -0.3897,-0.079 -0.1458,0 -0.2746,0.026 -0.3862,0.079 -0.1117,0.052 -0.2085,0.122 -0.2905,0.208 -0.0821,0.089 -0.1504,0.192 -0.2051,0.308 -0.0547,0.114 -0.098,0.233 -0.1299,0.359 -0.0342,0.127 -0.0593,0.256 -0.0752,0.386 -0.0137,0.127 -0.0216,0.249 -0.0239,0.366 v 0.574 c 0.0023,0.116 0.0102,0.239 0.0239,0.369 0.0159,0.13 0.041,0.257 0.0752,0.383 0.0342,0.127 0.0786,0.249 0.1333,0.366 0.0547,0.116 0.123,0.217 0.2051,0.304 0.082,0.089 0.1788,0.159 0.2905,0.212 0.1117,0.052 0.2415,0.078 0.3896,0.078 0.1482,0 0.278,-0.026 0.3897,-0.078 0.1139,-0.053 0.2119,-0.123 0.2939,-0.212 0.0798,-0.087 0.1459,-0.187 0.1983,-0.301 0.0547,-0.116 0.0991,-0.238 0.1333,-0.366 0.0319,-0.125 0.0535,-0.253 0.0649,-0.383 0.0137,-0.129 0.0217,-0.254 0.024,-0.372 z m 1.5278,2.775 v -4.977 h 1.1518 c 0.1937,0.003 0.376,0.023 0.5469,0.062 0.1732,0.036 0.3327,0.089 0.4785,0.157 0.2028,0.094 0.3817,0.217 0.5367,0.369 0.1572,0.151 0.2825,0.325 0.3759,0.523 0.0843,0.169 0.1481,0.353 0.1914,0.554 0.0456,0.201 0.0695,0.415 0.0718,0.643 v 0.365 c 0,0.219 -0.0216,0.426 -0.0649,0.622 -0.041,0.196 -0.1014,0.376 -0.1812,0.54 -0.082,0.171 -0.1857,0.326 -0.311,0.465 -0.1253,0.139 -0.2655,0.258 -0.4204,0.356 -0.1641,0.102 -0.3498,0.181 -0.5572,0.236 -0.205,0.054 -0.4272,0.083 -0.6665,0.085 z m 0.6426,-4.457 v 3.941 h 0.5092 c 0.1823,-0.002 0.3475,-0.025 0.4956,-0.068 0.1504,-0.044 0.2837,-0.105 0.3999,-0.185 0.1231,-0.082 0.2291,-0.182 0.3179,-0.301 0.0912,-0.121 0.1629,-0.255 0.2154,-0.403 0.0455,-0.121 0.0797,-0.251 0.1025,-0.39 0.0228,-0.141 0.0353,-0.288 0.0376,-0.441 v -0.372 c -0.0023,-0.155 -0.016,-0.303 -0.041,-0.445 -0.0228,-0.143 -0.0581,-0.276 -0.106,-0.4 -0.0615,-0.159 -0.1447,-0.303 -0.2495,-0.43 -0.1025,-0.13 -0.229,-0.235 -0.3794,-0.315 -0.1071,-0.059 -0.2267,-0.104 -0.3589,-0.136 -0.1321,-0.035 -0.2768,-0.053 -0.4341,-0.055 z m 6.3642,2.157 h -2.0781 v 1.763 h 2.4233 V 476 h -3.0556 v -4.977 h 3.0249 v 0.54 h -2.3926 v 1.6 h 2.0781 z"
       fill="#000000"
       id="path24" />
    <path
       d="m 28.88,471.023 0.81,2.489 0.875,-2.489 h 0.787 V 476 h -0.616 v -1.986 l 0.052,-2.078 -0.92,2.68 h -0.362 l -0.844,-2.608 0.051,2.006 V 476 h -0.615 v -4.977 z m 6.747,2.776 c -0.002,0.178 -0.018,0.358 -0.047,0.54 -0.028,0.18 -0.071,0.354 -0.13,0.523 -0.06,0.168 -0.136,0.326 -0.229,0.471 -0.091,0.146 -0.201,0.274 -0.328,0.383 -0.128,0.11 -0.275,0.196 -0.441,0.26 -0.164,0.062 -0.349,0.092 -0.554,0.092 -0.205,0 -0.391,-0.03 -0.557,-0.092 -0.164,-0.064 -0.31,-0.15 -0.438,-0.26 -0.127,-0.109 -0.238,-0.237 -0.331,-0.383 -0.094,-0.148 -0.17,-0.306 -0.229,-0.475 -0.062,-0.168 -0.107,-0.343 -0.137,-0.523 -0.03,-0.18 -0.046,-0.358 -0.048,-0.536 v -0.568 c 0.002,-0.177 0.017,-0.356 0.045,-0.536 0.029,-0.182 0.075,-0.358 0.136,-0.527 0.06,-0.168 0.135,-0.325 0.226,-0.471 0.093,-0.148 0.204,-0.278 0.331,-0.39 0.128,-0.109 0.274,-0.195 0.438,-0.256 0.166,-0.064 0.352,-0.096 0.557,-0.096 0.205,0 0.391,0.032 0.557,0.096 0.167,0.061 0.314,0.147 0.441,0.256 0.128,0.11 0.237,0.238 0.328,0.386 0.094,0.146 0.171,0.303 0.233,0.472 0.059,0.169 0.102,0.344 0.13,0.526 0.029,0.183 0.045,0.363 0.047,0.54 z m -0.625,-0.574 c -0.002,-0.119 -0.01,-0.242 -0.024,-0.37 -0.014,-0.129 -0.036,-0.258 -0.068,-0.386 -0.035,-0.125 -0.079,-0.245 -0.134,-0.359 -0.054,-0.116 -0.123,-0.218 -0.205,-0.307 -0.082,-0.087 -0.179,-0.155 -0.29,-0.205 -0.112,-0.053 -0.242,-0.079 -0.39,-0.079 -0.146,0 -0.274,0.026 -0.386,0.079 -0.112,0.052 -0.209,0.122 -0.291,0.208 -0.082,0.089 -0.15,0.192 -0.205,0.308 -0.054,0.114 -0.098,0.233 -0.13,0.359 -0.034,0.127 -0.059,0.256 -0.075,0.386 -0.013,0.127 -0.021,0.249 -0.024,0.366 v 0.574 c 0.003,0.116 0.011,0.239 0.024,0.369 0.016,0.13 0.041,0.257 0.075,0.383 0.035,0.127 0.079,0.249 0.134,0.366 0.054,0.116 0.123,0.217 0.205,0.304 0.082,0.089 0.179,0.159 0.29,0.212 0.112,0.052 0.242,0.078 0.39,0.078 0.148,0 0.278,-0.026 0.39,-0.078 0.114,-0.053 0.212,-0.123 0.294,-0.212 0.079,-0.087 0.145,-0.187 0.198,-0.301 0.054,-0.116 0.099,-0.238 0.133,-0.366 0.032,-0.125 0.054,-0.253 0.065,-0.383 0.014,-0.129 0.022,-0.254 0.024,-0.372 z M 36.53,476 v -4.977 h 1.152 c 0.193,0.003 0.376,0.023 0.547,0.062 0.173,0.036 0.332,0.089 0.478,0.157 0.203,0.094 0.382,0.217 0.537,0.369 0.157,0.151 0.282,0.325 0.376,0.523 0.084,0.169 0.148,0.353 0.191,0.554 0.046,0.201 0.07,0.415 0.072,0.643 v 0.365 c 0,0.219 -0.022,0.426 -0.065,0.622 -0.041,0.196 -0.102,0.376 -0.181,0.54 -0.082,0.171 -0.186,0.326 -0.311,0.465 -0.126,0.139 -0.266,0.258 -0.421,0.356 -0.164,0.102 -0.349,0.181 -0.557,0.236 -0.205,0.054 -0.427,0.083 -0.666,0.085 z m 0.642,-4.457 v 3.941 h 0.51 c 0.182,-0.002 0.347,-0.025 0.495,-0.068 0.151,-0.044 0.284,-0.105 0.4,-0.185 0.123,-0.082 0.229,-0.182 0.318,-0.301 0.091,-0.121 0.163,-0.255 0.215,-0.403 0.046,-0.121 0.08,-0.251 0.103,-0.39 0.023,-0.141 0.035,-0.288 0.037,-0.441 v -0.372 c -0.002,-0.155 -0.015,-0.303 -0.041,-0.445 -0.022,-0.143 -0.058,-0.276 -0.105,-0.4 -0.062,-0.159 -0.145,-0.303 -0.25,-0.43 -0.103,-0.13 -0.229,-0.235 -0.379,-0.315 -0.107,-0.059 -0.227,-0.104 -0.359,-0.136 -0.132,-0.035 -0.277,-0.053 -0.434,-0.055 z m 6.365,2.157 h -2.079 v 1.763 h 2.424 V 476 h -3.056 v -4.977 h 3.025 v 0.54 h -2.393 v 1.6 h 2.079 z"
       fill="#000000"
       id="path25" />
    <path
       d="m -28.897,201 h -0.5981 v -2.3003 h -2.0405 V 201 h -0.5948 v -4.9766 h 0.5948 v 2.1397 h 2.0405 v -2.1397 h 0.5981 z m 3.8213,-2.3003 h -2.0781 v 1.7637 h 2.4233 V 201 h -3.0556 v -4.9766 h 3.0249 v 0.5401 h -2.3926 v 1.5996 h 2.0781 z m 3.0078,-0.7246 1.0733,-1.9517 h 0.7451 l -1.4458,2.4678 1.48,2.5088 h -0.7383 l -1.1006,-1.9893 -1.104,1.9893 h -0.7485 l 1.4834,-2.5088 -1.4458,-2.4678 h 0.7417 z M -16.2881,201 h -0.6426 l -1.9311,-3.7188 -0.0103,3.7188 h -0.6391 v -4.9766 h 0.6425 l 1.9312,3.712 0.0103,-3.712 h 0.6391 z m 4.211,-4.9766 0.0068,3.3702 c 0,0.2324 -0.041,0.45 -0.1231,0.6528 -0.082,0.2028 -0.1948,0.3794 -0.3383,0.5298 -0.1436,0.1526 -0.3145,0.2734 -0.5127,0.3623 -0.1983,0.0866 -0.4159,0.1299 -0.6529,0.1299 -0.2415,0 -0.4614,-0.0433 -0.6596,-0.1299 -0.1983,-0.0866 -0.368,-0.2062 -0.5093,-0.3589 -0.1413,-0.1504 -0.2518,-0.327 -0.3316,-0.5298 -0.0797,-0.2051 -0.1207,-0.4238 -0.123,-0.6562 l 0.0068,-3.3702 h 0.6016 l 0.0137,3.3702 c 0.0022,0.1481 0.025,0.2905 0.0683,0.4272 0.0456,0.1367 0.1105,0.2575 0.1949,0.3623 0.082,0.1048 0.1845,0.1891 0.3076,0.2529 0.1253,0.0638 0.2689,0.0957 0.4306,0.0957 0.1618,0 0.3042,-0.0307 0.4273,-0.0922 0.123,-0.0638 0.2267,-0.1493 0.311,-0.2564 0.082,-0.1048 0.1447,-0.2256 0.188,-0.3623 0.0433,-0.1367 0.0672,-0.2791 0.0718,-0.4272 l 0.0102,-3.3702 z m 4.4365,0.5401 H -9.1787 V 201 h -0.6152 v -4.4365 h -1.5381 v -0.5401 h 3.6914 z"
       fill="#000000"
       id="path26"
       style="display:none" />
    <path
       d="M 1.834,371.97 H 0.8394 V 374 h -0.629 v -4.977 h 1.4595 c 0.2324,0.005 0.4512,0.038 0.6563,0.1 0.205,0.061 0.3851,0.153 0.54,0.276 0.1527,0.123 0.2723,0.278 0.3589,0.465 0.0889,0.185 0.1333,0.402 0.1333,0.653 0,0.162 -0.0239,0.31 -0.0718,0.444 -0.0456,0.135 -0.1094,0.257 -0.1914,0.366 -0.082,0.11 -0.18,0.206 -0.2939,0.291 -0.114,0.084 -0.2393,0.156 -0.376,0.215 L 3.4814,373.959 3.478,374 H 2.8115 Z M 0.8394,371.45 H 1.687 c 0.1413,-0.002 0.2746,-0.024 0.3999,-0.065 0.1253,-0.043 0.2359,-0.105 0.3316,-0.184 0.0934,-0.08 0.1674,-0.177 0.2221,-0.291 0.0547,-0.116 0.0821,-0.249 0.0821,-0.4 0,-0.159 -0.0262,-0.298 -0.0787,-0.417 -0.0524,-0.121 -0.1253,-0.222 -0.2187,-0.304 -0.0934,-0.08 -0.2051,-0.14 -0.335,-0.181 -0.1276,-0.041 -0.2677,-0.063 -0.4204,-0.065 H 0.8394 Z M 7.128,371.7 H 5.05 v 1.763 H 7.474 V 374 H 4.418 v -4.977 h 3.025 v 0.54 H 5.05 v 1.6 h 2.078 z m 3.842,1.011 H 9.309 L 8.909,374 H 8.277 l 1.606,-4.977 h 0.53 L 11.992,374 h -0.629 z m -1.49,-0.55 h 1.323 l -0.657,-2.16 z M 12.734,374 v -4.977 h 1.152 c 0.193,0.003 0.376,0.023 0.547,0.062 0.173,0.036 0.332,0.089 0.478,0.157 0.203,0.094 0.382,0.217 0.537,0.369 0.157,0.151 0.282,0.325 0.376,0.523 0.084,0.169 0.148,0.353 0.191,0.554 0.046,0.201 0.07,0.415 0.072,0.643 v 0.365 c 0,0.219 -0.022,0.426 -0.065,0.622 -0.041,0.196 -0.101,0.376 -0.181,0.54 -0.082,0.171 -0.186,0.326 -0.311,0.465 -0.126,0.139 -0.266,0.258 -0.421,0.356 -0.164,0.102 -0.349,0.181 -0.557,0.236 -0.205,0.054 -0.427,0.083 -0.666,0.085 z m 0.642,-4.457 v 3.941 h 0.51 c 0.182,-0.002 0.347,-0.025 0.495,-0.068 0.151,-0.044 0.284,-0.105 0.4,-0.185 0.123,-0.082 0.229,-0.182 0.318,-0.301 0.091,-0.121 0.163,-0.255 0.215,-0.403 0.046,-0.121 0.08,-0.251 0.103,-0.39 0.023,-0.141 0.035,-0.288 0.038,-0.441 v -0.372 c -0.003,-0.155 -0.016,-0.303 -0.041,-0.445 -0.023,-0.143 -0.059,-0.276 -0.106,-0.4 -0.062,-0.159 -0.145,-0.303 -0.25,-0.43 -0.102,-0.13 -0.229,-0.235 -0.379,-0.315 -0.107,-0.059 -0.227,-0.104 -0.359,-0.136 -0.132,-0.035 -0.277,-0.053 -0.434,-0.055 z"
       fill="#000000"
       id="path27" />
    <path
       d="m 33.525,511.799 c -0.002,0.178 -0.018,0.358 -0.047,0.54 -0.028,0.18 -0.071,0.354 -0.13,0.523 -0.06,0.168 -0.136,0.326 -0.229,0.471 -0.091,0.146 -0.201,0.274 -0.328,0.383 -0.128,0.11 -0.275,0.196 -0.441,0.26 -0.164,0.062 -0.349,0.092 -0.554,0.092 -0.205,0 -0.391,-0.03 -0.557,-0.092 -0.164,-0.064 -0.31,-0.15 -0.438,-0.26 -0.127,-0.109 -0.238,-0.237 -0.331,-0.383 -0.094,-0.148 -0.17,-0.306 -0.229,-0.475 -0.062,-0.168 -0.107,-0.343 -0.137,-0.523 -0.03,-0.18 -0.046,-0.358 -0.048,-0.536 v -0.568 c 0.002,-0.177 0.017,-0.356 0.045,-0.536 0.029,-0.182 0.075,-0.358 0.136,-0.527 0.06,-0.168 0.135,-0.325 0.226,-0.471 0.093,-0.148 0.204,-0.278 0.331,-0.39 0.128,-0.109 0.274,-0.195 0.438,-0.256 0.166,-0.064 0.352,-0.096 0.557,-0.096 0.205,0 0.391,0.032 0.557,0.096 0.167,0.061 0.314,0.147 0.441,0.256 0.128,0.11 0.237,0.238 0.328,0.386 0.094,0.146 0.171,0.303 0.233,0.472 0.059,0.169 0.102,0.344 0.13,0.526 0.029,0.183 0.045,0.363 0.047,0.54 z M 32.9,511.225 c -0.002,-0.119 -0.01,-0.242 -0.024,-0.37 -0.014,-0.129 -0.036,-0.258 -0.068,-0.386 -0.035,-0.125 -0.079,-0.245 -0.134,-0.359 -0.054,-0.116 -0.123,-0.218 -0.205,-0.307 -0.082,-0.087 -0.179,-0.155 -0.29,-0.205 -0.112,-0.053 -0.242,-0.079 -0.39,-0.079 -0.146,0 -0.275,0.026 -0.386,0.079 -0.112,0.052 -0.209,0.122 -0.291,0.208 -0.082,0.089 -0.15,0.192 -0.205,0.308 -0.054,0.114 -0.098,0.233 -0.13,0.359 -0.034,0.127 -0.059,0.256 -0.075,0.386 -0.014,0.127 -0.021,0.249 -0.024,0.366 v 0.574 c 0.003,0.116 0.01,0.239 0.024,0.369 0.016,0.13 0.041,0.257 0.075,0.383 0.035,0.127 0.079,0.249 0.134,0.366 0.054,0.116 0.123,0.217 0.205,0.304 0.082,0.089 0.179,0.159 0.29,0.212 0.112,0.052 0.242,0.078 0.39,0.078 0.148,0 0.278,-0.026 0.39,-0.078 0.113,-0.053 0.211,-0.123 0.293,-0.212 0.08,-0.087 0.146,-0.187 0.199,-0.301 0.054,-0.116 0.099,-0.238 0.133,-0.366 0.032,-0.125 0.054,-0.253 0.065,-0.383 0.014,-0.129 0.022,-0.254 0.024,-0.372 z m 4.717,-2.202 0.007,3.371 c 0,0.232 -0.041,0.45 -0.124,0.652 -0.082,0.203 -0.194,0.38 -0.338,0.53 -0.143,0.153 -0.314,0.274 -0.513,0.362 -0.198,0.087 -0.415,0.13 -0.652,0.13 -0.242,0 -0.462,-0.043 -0.66,-0.13 -0.198,-0.086 -0.368,-0.206 -0.509,-0.358 -0.142,-0.151 -0.252,-0.327 -0.332,-0.53 -0.08,-0.205 -0.121,-0.424 -0.123,-0.656 l 0.007,-3.371 h 0.601 l 0.014,3.371 c 0.002,0.148 0.025,0.29 0.068,0.427 0.046,0.137 0.111,0.257 0.195,0.362 0.082,0.105 0.185,0.189 0.308,0.253 0.125,0.064 0.269,0.096 0.431,0.096 0.161,0 0.304,-0.031 0.427,-0.093 0.123,-0.063 0.227,-0.149 0.311,-0.256 0.082,-0.105 0.145,-0.225 0.188,-0.362 0.043,-0.137 0.067,-0.279 0.072,-0.427 l 0.01,-3.371 z m 4.436,0.54 H 40.515 V 514 H 39.9 v -4.437 h -1.538 v -0.54 h 3.691 z"
       fill="#000000"
       id="path28"
       style="display:inline" />
  </g>
  <g
     id="g2"
     transform="matrix(0.31496151,0,0,0.31496151,55.386259,293.84395)"
     inkscape:label="logo"
     style="fill:#000000">
    <path
       class="cls-1"
       d="m 80.724758,201.82627 c 0.32927,0.32927 0.59867,0.97967 0.59867,1.44534 v 4.02166 c 0,0.46567 -0.2694,1.11607 -0.59867,1.44534 l -0.70763,0.70763 c -0.32927,0.32927 -0.97967,0.59867 -1.44534,0.59867 H 55.500121 c -0.465666,0 -1.116065,0.2694 -1.445339,0.59868 l -0.707628,0.70762 c -0.329274,0.32928 -0.598673,0.97968 -0.598673,1.44534 v 5.92667 c 0,0.46567 0.381,0.84667 0.846667,0.84667 h 24.97667 c 0.46566,0 1.11606,0.2694 1.44534,0.59867 l 0.70762,0.70763 c 0.32928,0.32927 0.59868,0.97967 0.59868,1.44534 v 13.54666 c 0,0.46567 -0.2694,1.11607 -0.59868,1.44534 l -0.70762,0.70763 c -0.32928,0.32927 -0.97968,0.59867 -1.44534,0.59867 h -4.02167 c -0.46567,0 -1.11607,0.2694 -1.44534,0.59868 l -0.707628,0.70762 c -0.329274,0.32928 -0.598673,0.97968 -0.598673,1.44534 v 4.02167 c 0,0.46567 -0.269398,1.11607 -0.598672,1.44534 l -0.707628,0.70763 c -0.329274,0.32927 -0.979673,0.59867 -1.44534,0.59867 H 45.975201 c -0.465667,0 -1.116065,-0.2694 -1.445339,-0.59867 l -0.707629,-0.70763 c -0.329273,-0.32927 -0.598672,-0.97967 -0.598672,-1.44534 v -4.02167 c 0,-0.46566 0.269399,-1.11606 0.598672,-1.44534 l 0.707629,-0.70762 c 0.329274,-0.32928 0.979672,-0.59868 1.445339,-0.59868 h 23.071666 c 0.465667,0 1.116066,-0.2694 1.44534,-0.59867 l 0.707628,-0.70763 c 0.329274,-0.32927 0.598672,-0.97967 0.598672,-1.44534 v -4.02166 c 0,-0.46567 -0.269398,-1.11607 -0.598672,-1.44534 l -0.707628,-0.70763 c -0.329274,-0.32927 -0.979673,-0.59867 -1.44534,-0.59867 H 45.975201 c -0.465667,0 -1.116065,-0.2694 -1.445339,-0.59868 l -0.707629,-0.70762 c -0.329273,-0.32928 -0.598672,-0.97968 -0.598672,-1.44534 v -13.54667 c 0,-0.46567 0.269399,-1.11607 0.598672,-1.44534 l 0.707629,-0.70763 c 0.329274,-0.32927 0.979672,-0.59867 1.445339,-0.59867 h 4.021667 c 0.465666,0 1.116065,-0.2694 1.445339,-0.59867 l 0.707628,-0.70763 c 0.329274,-0.32928 0.598673,-0.97967 0.598673,-1.44534 v -4.02167 c 0,-0.46566 0.269398,-1.11606 0.598672,-1.44534 l 0.707629,-0.70762 c 0.329273,-0.32928 0.979672,-0.59868 1.445339,-0.59868 h 23.07167 c 0.46566,0 1.11606,0.2694 1.44534,0.59868 l 0.70762,0.70762 z"
       id="path1-3"
       style="fill:#000000;stroke-width:0.264583" />
    <path
       class="cls-1"
       d="m 17.611762,190.99494 c 0.465667,0 1.116066,0.2694 1.445339,0.59867 l 0.707629,0.70763 c 0.329274,0.32927 0.598672,0.97967 0.598672,1.44534 v 13.54667 c 0,0.46566 0.269399,1.11606 0.598673,1.44534 l 0.707628,0.70762 c 0.329274,0.32928 0.979673,0.59868 1.445339,0.59868 h 13.546667 c 0.465667,0 1.116065,0.2694 1.445339,0.59867 l 0.707628,0.70763 c 0.329274,0.32927 0.598673,0.97967 0.598673,1.44534 v 4.02166 c 0,0.46567 -0.269399,1.11607 -0.598673,1.44534 l -0.707628,0.70763 c -0.329274,0.32928 -0.979672,0.59867 -1.445339,0.59867 H 23.115042 c -0.465666,0 -1.116065,0.2694 -1.445339,0.59868 l -0.707628,0.70762 c -0.329274,0.32928 -0.598673,0.97968 -0.598673,1.44534 v 13.54667 c 0,0.46567 0.269399,1.11607 0.598673,1.44534 l 0.707628,0.70763 c 0.329274,0.32927 0.979673,0.59867 1.445339,0.59867 h 13.546667 c 0.465667,0 1.116065,0.2694 1.445339,0.59867 l 0.707628,0.70763 c 0.329274,0.32928 0.598673,0.97967 0.598673,1.44534 v 4.02167 c 0,0.46566 -0.269399,1.11606 -0.598673,1.44534 l -0.707628,0.70762 c -0.329274,0.32928 -0.979672,0.59868 -1.445339,0.59868 H 23.115042 c -0.465666,0 -1.116065,-0.2694 -1.445339,-0.59868 l -0.707628,-0.70762 c -0.329274,-0.32928 -0.598673,-0.97968 -0.598673,-1.44534 v -4.02167 c 0,-0.46567 -0.269398,-1.11606 -0.598672,-1.44534 l -0.707629,-0.70763 c -0.329273,-0.32927 -0.979672,-0.59867 -1.445339,-0.59867 h -4.021666 c -0.465667,0 -1.116066,-0.2694 -1.44534,-0.59867 l -0.707628,-0.70763 c -0.329274,-0.32927 -0.598673,-0.97967 -0.598673,-1.44534 v -13.54667 c 0,-0.46566 -0.269398,-1.11606 -0.598672,-1.44534 l -0.7076279,-0.70762 c -0.329274,-0.32928 -0.979673,-0.59868 -1.44534,-0.59868 h -4.021666 c -0.465667,0 -1.116066,-0.26939 -1.44534,-0.59867 l -0.707628,-0.70763 c -0.329274,-0.32927 -0.598673,-0.97967 -0.598673,-1.44534 v -4.02166 c 0,-0.46567 0.269399,-1.11607 0.598673,-1.44534 l 0.707628,-0.70763 c 0.329274,-0.32927 0.979673,-0.59867 1.44534,-0.59867 h 4.021666 c 0.465667,0 1.116066,-0.2694 1.44534,-0.59868 l 0.7076279,-0.70762 c 0.329274,-0.32928 0.598672,-0.97968 0.598672,-1.44534 v -13.54664 c 0,-0.46567 0.269399,-1.11607 0.598673,-1.44534 l 0.707628,-0.70763 c 0.329274,-0.32927 0.979673,-0.59867 1.44534,-0.59867 h 4.021666 z"
       id="path2-8"
       style="fill:#000000;stroke-width:0.264583" />
    <path
       class="cls-1"
       d="m 121.9271,210.64361 c -0.32927,-0.32927 -0.97967,-0.59867 -1.44534,-0.59867 h -4.02166 c -0.46567,0 -1.11607,-0.2694 -1.44534,-0.59867 l -0.70763,-0.70763 c -0.32928,-0.32928 -0.59867,-0.97967 -0.59867,-1.44534 v -4.02167 c 0,-0.46566 -0.2694,-1.11606 -0.59868,-1.44534 l -0.70762,-0.70762 c -0.32928,-0.32928 -0.97968,-0.59868 -1.44534,-0.59868 H 87.885148 c -0.46567,0 -1.11607,0.2694 -1.44534,0.59868 l -0.70763,0.70762 c -0.32927,0.32928 -0.59867,0.97968 -0.59867,1.44534 v 4.02167 c 0,0.46567 0.2694,1.11606 0.59867,1.44534 l 0.70763,0.70763 c 0.32927,0.32927 0.97967,0.59867 1.44534,0.59867 h 23.071672 c 0.46566,0 1.11606,0.2694 1.44534,0.59867 l 0.70762,0.70763 c 0.32928,0.32927 0.59868,0.97967 0.59868,1.44534 v 4.02167 c 0,0.46566 -0.2694,1.11606 -0.59868,1.44534 l -0.70762,0.70762 c -0.32928,0.32928 -0.97968,0.59868 -1.44534,0.59868 H 87.885148 c -0.46567,0 -1.11607,0.2694 -1.44534,0.59867 l -0.70763,0.70763 c -0.32927,0.32927 -0.59867,0.97967 -0.59867,1.44534 v 13.54666 c 0,0.46567 0.2694,1.11607 0.59867,1.44534 l 0.70763,0.70763 c 0.32927,0.32927 0.97967,0.59867 1.44534,0.59867 h 4.02167 c 0.46566,0 1.11606,0.2694 1.44534,0.59868 l 0.70762,0.70762 c 0.32928,0.32928 0.59868,0.97968 0.59868,1.44534 v 4.02167 c 0,0.46567 0.2694,1.11607 0.59867,1.44534 l 0.70763,0.70763 c 0.32927,0.32927 0.97967,0.59867 1.44534,0.59867 h 23.071662 c 0.46567,0 1.11607,-0.2694 1.44534,-0.59867 l 0.70763,-0.70763 c 0.32927,-0.32927 0.59867,-0.97967 0.59867,-1.44534 v -32.59667 c 0,-0.46566 -0.2694,-1.11606 -0.59867,-1.44534 l -0.70763,-0.70762 z m -8.21867,25.22466 c 0,0.46567 -0.2694,1.11607 -0.59867,1.44534 l -0.70763,0.70763 c -0.32928,0.32927 -0.97967,0.59867 -1.44534,0.59867 H 97.410118 c -0.46566,0 -1.11606,-0.2694 -1.44534,-0.59867 l -0.70762,-0.70763 c -0.32928,-0.32927 -0.59868,-0.97967 -0.59868,-1.44534 v -4.02166 c 0,-0.46567 0.2694,-1.11607 0.59868,-1.44534 l 0.70762,-0.70763 c 0.32928,-0.32928 0.97968,-0.59867 1.44534,-0.59867 h 13.546672 c 0.46567,0 1.11606,0.26939 1.44534,0.59867 l 0.70763,0.70763 c 0.32927,0.32927 0.59867,0.97967 0.59867,1.44534 z"
       id="path3-0"
       style="fill:#000000;stroke-width:0.264583" />
  </g>
  <path
     style="font-family:'Monaspace Krypton';-inkscape-font-specification:'Monaspace Krypton';display:inline;fill:#000000"
     d="m 57.864032,26.766001 h 1.176 v -8.76 h -1.176 v 3.774 h -2.904 v -3.774 h -1.176 v 8.76 h 1.176 v -4.038 h 2.904 z m 3.419987,0 h 5.202 l 0.144,-0.984 h -4.182 v -2.928 h 3.216 v -0.936 h -3.216 v -2.928 h 3.96 l -0.138,-0.984 h -4.986 z m 11.579987,0 h 1.176 v -1.704 l -1.95,-2.556 1.95,-2.814 v -1.686 h -1.092 v 1.428 l -1.488,2.244 -1.74,-2.28 v -1.392 h -1.176 v 1.704 l 1.95,2.55 -1.95,2.82 v 1.686 h 1.092 v -1.416 l 1.494,-2.256 1.734,2.268 z m 3.239987,0 h 1.092 v -6.51 h 0.072 l 3.108,6.504 h 0.984 v -8.76 h -1.092 v 6.366 h -0.072 l -3.048,-6.36 h -1.044 z m 8.471988,0 h 3.192 l 1.032,-1.29 v -7.47 h -1.176 v 7.044 l -0.54,0.732 h -1.824 l -0.54,-0.732 v -7.044 h -1.176 v 7.47 z m 8.417987,0 h 1.164 v -7.776 h 2.598 l -0.096,-0.984 h -6.096 l -0.102,0.984 h 2.532 z"
     id="text1"
     aria-label="HEXNUT" />
</svg>
