<?xml version="1.0" encoding="UTF-8" standalone="no"?>
<svg
   width="150"
   height="380"
   viewBox="0 0 150 380"
   fill="none"
   version="1.1"
   id="svg13"
   sodipodi:docname="HexNutFlat.svg"
   inkscape:version="1.3 (0e150ed, 2023-07-21)"
   xmlns:inkscape="http://www.inkscape.org/namespaces/inkscape"
   xmlns:sodipodi="http://sodipodi.sourceforge.net/DTD/sodipodi-0.dtd"
   xmlns="http://www.w3.org/2000/svg"
   xmlns:svg="http://www.w3.org/2000/svg">
  <defs
     id="defs13" />
  <sodipodi:namedview
     id="namedview13"
     pagecolor="#ffffff"
     bordercolor="#000000"
     borderopacity="0.25"
     inkscape:showpageshadow="2"
     inkscape:pageopacity="0.0"
     inkscape:pagecheckerboard="0"
     inkscape:deskcolor="#d1d1d1"
     inkscape:zoom="1.8703183"
     inkscape:cx="89.824282"
     inkscape:cy="212.26333"
     inkscape:window-width="1392"
     inkscape:window-height="1099"
     inkscape:window-x="0"
     inkscape:window-y="25"
     inkscape:window-maximized="0"
     inkscape:current-layer="svg13" />
  <rect
     width="150"
     height="380"
     fill="white"
     id="rect2" />
     <rect
     x="10"
     y="41"
     width="130"
     height="130"
     fill="#D9D9D9"
     id="rect666" />
  <path
     d="M 15.4 334 H 18.4 V 334.6 H 17.2 V 338.5 H 18.4 V 339 H 15.4 V 338.5 H 16.6 V 334.6 H 15.4 V 334 Z M 22.7 339 H 22.1 L 20.1 335.3 L 20.1 339 H 19.5 V 334 H 20.1 L 22.1 337.7 L 22.1 334 H 22.7 V 339 Z"
     fill="black"
     id="path2" />
  <path
     d="M 37.3 199 L 36.7 194 H 37.3 L 37.7 197.5 L 37.7 197.7 L 37.8 197.4 L 38.4 194 H 38.9 L 39.5 197.5 L 39.6 197.7 L 39.6 197.4 L 39.9 194 H 40.5 L 39.9 199 H 39.3 L 38.7 195.5 L 38.6 195.3 L 38.6 195.5 L 38 199 H 37.3 Z M 42.9 197 H 41.9 V 199 H 41.3 V 194 H 42.8 C 43 194 43.2 194.1 43.4 194.1 C 43.6 194.2 43.8 194.3 44 194.4 C 44.1 194.5 44.2 194.7 44.3 194.9 C 44.4 195 44.5 195.3 44.5 195.5 C 44.5 195.7 44.4 195.8 44.4 196 C 44.3 196.1 44.3 196.2 44.2 196.3 C 44.1 196.4 44 196.5 43.9 196.6 C 43.8 196.7 43.7 196.8 43.5 196.8 L 44.6 199 L 44.6 199 H 43.9 L 42.9 197 Z M 41.9 196.4 H 42.8 C 42.9 196.4 43.1 196.4 43.2 196.4 C 43.3 196.3 43.4 196.3 43.5 196.2 C 43.6 196.1 43.7 196 43.7 195.9 C 43.8 195.8 43.8 195.7 43.8 195.5 C 43.8 195.4 43.8 195.2 43.7 195.1 C 43.7 195 43.6 194.9 43.5 194.8 C 43.4 194.7 43.3 194.6 43.2 194.6 C 43.1 194.6 42.9 194.5 42.8 194.5 H 41.9 V 196.4 Z M 45.5 194 H 48.5 V 194.6 H 47.3 V 198.5 H 48.5 V 199 H 45.5 V 198.5 H 46.7 V 194.6 H 45.5 V 194 Z M 53.1 194.6 H 51.5 V 199 H 50.9 V 194.6 H 49.4 V 194 H 53.1 V 194.6 Z M 56.6 196.7 H 54.6 V 198.5 H 57 V 199 H 53.9 V 194 H 57 V 194.6 H 54.6 V 196.2 H 56.6 V 196.7 Z"
     fill="black"
     id="path3" />
  <path
     d="M 37.1 311 V 306 H 38.6 C 38.8 306 39 306.1 39.2 306.1 C 39.4 306.2 39.5 306.2 39.7 306.3 C 39.8 306.4 40 306.6 40 306.8 C 40.1 306.9 40.2 307.1 40.2 307.4 C 40.2 307.5 40.2 307.6 40.1 307.7 C 40.1 307.8 40 307.9 40 308 C 39.9 308.1 39.8 308.2 39.7 308.2 C 39.6 308.3 39.5 308.3 39.4 308.4 V 308.4 C 39.5 308.4 39.7 308.5 39.8 308.5 C 39.9 308.6 40 308.7 40.1 308.8 C 40.1 308.9 40.2 309 40.2 309.2 C 40.3 309.3 40.3 309.4 40.3 309.6 C 40.3 309.8 40.3 310 40.2 310.2 C 40.1 310.4 40 310.5 39.8 310.6 C 39.7 310.7 39.5 310.8 39.3 310.9 C 39.1 311 38.9 311 38.7 311 H 37.1 Z M 37.7 308.7 V 310.5 H 38.7 C 38.8 310.5 38.9 310.4 39.1 310.4 C 39.2 310.4 39.3 310.3 39.4 310.2 C 39.5 310.1 39.5 310.1 39.6 309.9 C 39.6 309.8 39.7 309.7 39.7 309.6 C 39.7 309.4 39.7 309.3 39.6 309.2 C 39.6 309.1 39.5 309 39.4 308.9 C 39.3 308.8 39.2 308.8 39.1 308.7 C 39 308.7 38.9 308.7 38.7 308.7 H 37.7 Z M 37.7 308.1 H 38.6 C 38.7 308.1 38.8 308.1 38.9 308.1 C 39.1 308.1 39.2 308 39.2 307.9 C 39.3 307.9 39.4 307.8 39.5 307.7 C 39.5 307.6 39.5 307.5 39.5 307.3 C 39.5 307.2 39.5 307.1 39.5 307 C 39.4 306.9 39.3 306.8 39.3 306.7 C 39.2 306.7 39.1 306.6 38.9 306.6 C 38.8 306.6 38.7 306.6 38.6 306.6 H 37.7 V 308.1 Z M 42 310.5 H 44.4 V 311 H 41.4 V 306 H 42 V 310.5 Z M 48.2 308.7 H 46.2 V 310.5 H 48.6 V 311 H 45.5 V 306 H 48.5 V 306.6 H 46.2 V 308.2 H 48.2 V 308.7 Z M 52.8 311 H 52.2 L 50.2 307.3 L 50.2 311 H 49.6 V 306 H 50.2 L 52.2 309.7 L 52.2 306 H 52.8 V 311 Z M 53.8 311 V 306 H 55 C 55.2 306 55.4 306 55.5 306.1 C 55.7 306.1 55.9 306.2 56 306.2 C 56.2 306.3 56.4 306.5 56.5 306.6 C 56.7 306.8 56.8 306.9 56.9 307.1 C 57 307.3 57.1 307.5 57.1 307.7 C 57.2 307.9 57.2 308.1 57.2 308.3 V 308.7 C 57.2 308.9 57.2 309.1 57.1 309.3 C 57.1 309.5 57 309.7 56.9 309.9 C 56.9 310 56.8 310.2 56.6 310.3 C 56.5 310.5 56.4 310.6 56.2 310.7 C 56 310.8 55.9 310.9 55.7 310.9 C 55.4 311 55.2 311 55 311 H 53.8 Z M 54.5 306.5 V 310.5 H 55 C 55.2 310.5 55.3 310.5 55.5 310.4 C 55.6 310.4 55.8 310.3 55.9 310.2 C 56 310.1 56.1 310 56.2 309.9 C 56.3 309.8 56.4 309.7 56.4 309.5 C 56.5 309.4 56.5 309.3 56.5 309.1 C 56.5 309 56.6 308.8 56.6 308.7 V 308.3 C 56.6 308.2 56.5 308 56.5 307.9 C 56.5 307.7 56.5 307.6 56.4 307.5 C 56.3 307.3 56.3 307.2 56.2 307 C 56.1 306.9 55.9 306.8 55.8 306.7 C 55.7 306.7 55.6 306.6 55.4 306.6 C 55.3 306.6 55.1 306.5 55 306.5 H 54.5 Z"
     fill="black"
     id="path4" />
  <path
     d="M 93.6 309.7 C 93.6 309.6 93.6 309.5 93.5 309.4 C 93.4 309.3 93.3 309.2 93.2 309.1 C 93.1 309 93 309 92.9 308.9 C 92.7 308.9 92.6 308.8 92.5 308.8 C 92.3 308.7 92.1 308.7 91.9 308.6 C 91.8 308.5 91.6 308.4 91.4 308.3 C 91.3 308.2 91.2 308 91.1 307.9 C 91 307.7 90.9 307.5 90.9 307.3 C 90.9 307.1 91 306.9 91.1 306.7 C 91.2 306.6 91.3 306.4 91.5 306.3 C 91.6 306.2 91.8 306.1 92 306 C 92.2 306 92.4 306 92.6 306 C 92.8 306 93 306 93.2 306.1 C 93.4 306.1 93.6 306.2 93.7 306.4 C 93.9 306.5 94 306.7 94.1 306.8 C 94.2 307 94.2 307.2 94.2 307.5 H 93.6 C 93.6 307.3 93.5 307.2 93.5 307.1 C 93.4 306.9 93.4 306.8 93.3 306.8 C 93.2 306.7 93.1 306.6 93 306.6 C 92.8 306.5 92.7 306.5 92.6 306.5 C 92.4 306.5 92.3 306.5 92.2 306.5 C 92.1 306.6 92 306.6 91.9 306.7 C 91.8 306.8 91.7 306.9 91.7 307 C 91.6 307.1 91.6 307.2 91.6 307.3 C 91.6 307.4 91.6 307.6 91.7 307.7 C 91.8 307.8 91.9 307.8 92 307.9 C 92.1 308 92.2 308 92.3 308.1 C 92.5 308.1 92.6 308.2 92.7 308.2 C 92.9 308.3 93.1 308.3 93.2 308.4 C 93.4 308.5 93.6 308.6 93.7 308.7 C 93.9 308.8 94 309 94.1 309.2 C 94.2 309.3 94.2 309.5 94.2 309.7 C 94.2 310 94.2 310.2 94.1 310.3 C 94 310.5 93.9 310.6 93.7 310.7 C 93.6 310.8 93.4 310.9 93.2 311 C 93 311 92.8 311.1 92.6 311.1 C 92.3 311.1 92.1 311 91.9 310.9 C 91.7 310.9 91.5 310.8 91.3 310.6 C 91.1 310.5 91 310.3 90.9 310.1 C 90.8 310 90.8 309.8 90.8 309.6 H 91.4 C 91.5 309.7 91.5 309.9 91.6 310 C 91.6 310.1 91.7 310.2 91.8 310.3 C 91.9 310.4 92 310.4 92.2 310.5 C 92.3 310.5 92.4 310.5 92.6 310.5 C 92.7 310.5 92.8 310.5 92.9 310.5 C 93.1 310.5 93.2 310.4 93.3 310.3 C 93.4 310.3 93.4 310.2 93.5 310.1 C 93.6 310 93.6 309.9 93.6 309.7 Z M 95.9 309 V 311 H 95.2 V 306 H 96.9 C 97.1 306 97.3 306.1 97.5 306.1 C 97.7 306.2 97.9 306.3 98 306.4 C 98.2 306.5 98.3 306.7 98.4 306.9 C 98.5 307.1 98.5 307.3 98.5 307.5 C 98.5 307.8 98.5 308 98.4 308.2 C 98.3 308.3 98.2 308.5 98 308.6 C 97.9 308.7 97.7 308.8 97.5 308.9 C 97.3 309 97.1 309 96.9 309 H 95.9 Z M 95.9 308.5 H 96.9 C 97 308.5 97.1 308.5 97.3 308.4 C 97.4 308.4 97.5 308.3 97.6 308.2 C 97.7 308.1 97.7 308 97.8 307.9 C 97.8 307.8 97.9 307.7 97.9 307.5 C 97.9 307.4 97.8 307.2 97.8 307.1 C 97.7 307 97.7 306.9 97.6 306.8 C 97.5 306.7 97.4 306.7 97.3 306.6 C 97.1 306.6 97 306.5 96.9 306.5 H 95.9 V 308.5 Z M 101 309 H 100 V 311 H 99.4 V 306 H 100.9 C 101.1 306 101.3 306.1 101.5 306.1 C 101.7 306.2 101.9 306.3 102.1 306.4 C 102.2 306.5 102.3 306.7 102.4 306.9 C 102.5 307 102.6 307.3 102.6 307.5 C 102.6 307.7 102.5 307.8 102.5 308 C 102.4 308.1 102.4 308.2 102.3 308.3 C 102.2 308.4 102.1 308.5 102 308.6 C 101.9 308.7 101.8 308.8 101.6 308.8 L 102.7 311 L 102.7 311 H 102 L 101 309 Z M 100 308.4 H 100.9 C 101 308.4 101.2 308.4 101.3 308.4 C 101.4 308.3 101.5 308.3 101.6 308.2 C 101.7 308.1 101.8 308 101.8 307.9 C 101.9 307.8 101.9 307.7 101.9 307.5 C 101.9 307.4 101.9 307.2 101.8 307.1 C 101.8 307 101.7 306.9 101.6 306.8 C 101.5 306.7 101.4 306.6 101.3 306.6 C 101.2 306.6 101 306.5 100.9 306.5 H 100 V 308.4 Z M 106.3 308.7 H 104.3 V 310.5 H 106.7 V 311 H 103.6 V 306 H 106.6 V 306.6 H 104.3 V 308.2 H 106.3 V 308.7 Z M 110.2 309.7 H 108.5 L 108.1 311 H 107.5 L 109.1 306 H 109.6 L 111.2 311 H 110.6 L 110.2 309.7 Z M 108.7 309.2 H 110 L 109.4 307 L 108.7 309.2 Z M 111.9 311 V 306 H 113.1 C 113.3 306 113.5 306 113.6 306.1 C 113.8 306.1 114 306.2 114.1 306.2 C 114.3 306.3 114.5 306.5 114.7 306.6 C 114.8 306.8 114.9 306.9 115 307.1 C 115.1 307.3 115.2 307.5 115.2 307.7 C 115.3 307.9 115.3 308.1 115.3 308.3 V 308.7 C 115.3 308.9 115.3 309.1 115.2 309.3 C 115.2 309.5 115.1 309.7 115 309.9 C 115 310 114.9 310.2 114.7 310.3 C 114.6 310.5 114.5 310.6 114.3 310.7 C 114.1 310.8 114 310.9 113.8 310.9 C 113.6 311 113.3 311 113.1 311 H 111.9 Z M 112.6 306.5 V 310.5 H 113.1 C 113.3 310.5 113.4 310.5 113.6 310.4 C 113.7 310.4 113.9 310.3 114 310.2 C 114.1 310.1 114.2 310 114.3 309.9 C 114.4 309.8 114.5 309.7 114.5 309.5 C 114.6 309.4 114.6 309.3 114.6 309.1 C 114.6 309 114.7 308.8 114.7 308.7 V 308.3 C 114.7 308.2 114.6 308 114.6 307.9 C 114.6 307.7 114.6 307.6 114.5 307.5 C 114.5 307.3 114.4 307.2 114.3 307 C 114.2 306.9 114 306.8 113.9 306.7 C 113.8 306.7 113.7 306.6 113.5 306.6 C 113.4 306.6 113.2 306.5 113.1 306.5 H 112.6 Z"
     fill="black"
     id="path5" />
  <path
     d="M 70.4 309.5 C 70.4 309.7 70.3 309.9 70.2 310.1 C 70.1 310.3 70 310.5 69.9 310.6 C 69.7 310.8 69.6 310.9 69.4 311 C 69.2 311 69 311.1 68.7 311.1 C 68.5 311.1 68.3 311 68.2 311 C 68 310.9 67.9 310.8 67.7 310.7 C 67.6 310.6 67.5 310.5 67.4 310.4 C 67.3 310.2 67.2 310.1 67.1 309.9 C 67.1 309.8 67 309.6 67 309.4 C 67 309.2 67 309 67 308.9 V 308.2 C 67 308 67 307.8 67 307.6 C 67 307.4 67.1 307.3 67.1 307.1 C 67.2 306.9 67.3 306.8 67.4 306.6 C 67.5 306.5 67.6 306.4 67.7 306.3 C 67.9 306.2 68 306.1 68.2 306 C 68.3 306 68.5 306 68.7 306 C 69 306 69.2 306 69.4 306.1 C 69.6 306.1 69.8 306.3 69.9 306.4 C 70 306.5 70.2 306.7 70.2 306.9 C 70.3 307.1 70.4 307.3 70.4 307.5 H 69.8 C 69.8 307.4 69.7 307.3 69.7 307.1 C 69.6 307 69.6 306.9 69.5 306.8 C 69.4 306.7 69.3 306.6 69.2 306.6 C 69 306.5 68.9 306.5 68.7 306.5 C 68.6 306.5 68.4 306.5 68.3 306.5 C 68.2 306.6 68.1 306.7 68 306.7 C 67.9 306.8 67.9 306.9 67.8 307 C 67.8 307.1 67.7 307.3 67.7 307.4 C 67.7 307.5 67.6 307.6 67.6 307.8 C 67.6 307.9 67.6 308 67.6 308.2 V 308.9 C 67.6 309 67.6 309.1 67.6 309.2 C 67.6 309.4 67.7 309.5 67.7 309.6 C 67.7 309.8 67.8 309.9 67.8 310 C 67.9 310.1 67.9 310.2 68 310.3 C 68.1 310.4 68.2 310.4 68.3 310.5 C 68.4 310.5 68.6 310.6 68.7 310.6 C 68.9 310.6 69 310.5 69.2 310.5 C 69.3 310.4 69.4 310.4 69.5 310.3 C 69.6 310.2 69.6 310.1 69.7 309.9 C 69.7 309.8 69.8 309.7 69.8 309.5 H 70.4 Z M 72.1 310.5 H 74.5 V 311 H 71.5 V 306 H 72.1 V 310.5 Z M 75.6 306 H 78.6 V 306.6 H 77.4 V 310.5 H 78.6 V 311 H 75.6 V 310.5 H 76.8 V 306.6 H 75.6 V 306 Z M 80.5 309 V 311 H 79.9 V 306 H 81.5 C 81.7 306 81.9 306.1 82.1 306.1 C 82.3 306.2 82.5 306.3 82.6 306.4 C 82.8 306.5 82.9 306.7 83 306.9 C 83.1 307.1 83.1 307.3 83.1 307.5 C 83.1 307.8 83.1 308 83 308.2 C 82.9 308.3 82.8 308.5 82.6 308.6 C 82.5 308.7 82.3 308.8 82.1 308.9 C 81.9 309 81.7 309 81.5 309 H 80.5 Z M 80.5 308.5 H 81.5 C 81.6 308.5 81.8 308.5 81.9 308.4 C 82 308.4 82.1 308.3 82.2 308.2 C 82.3 308.1 82.4 308 82.4 307.9 C 82.5 307.8 82.5 307.7 82.5 307.5 C 82.5 307.4 82.5 307.2 82.4 307.1 C 82.4 307 82.3 306.9 82.2 306.8 C 82.1 306.7 82 306.7 81.9 306.6 C 81.8 306.6 81.6 306.5 81.5 306.5 H 80.5 V 308.5 Z"
     fill="black"
     id="path6" />
  <path
     d="M 13.8 225.7 C 13.8 225.6 13.8 225.5 13.7 225.4 C 13.6 225.3 13.5 225.2 13.4 225.1 C 13.3 225 13.2 225 13.1 224.9 C 12.9 224.9 12.8 224.8 12.7 224.8 C 12.5 224.7 12.3 224.7 12.1 224.6 C 12 224.5 11.8 224.4 11.7 224.3 C 11.5 224.2 11.4 224 11.3 223.9 C 11.2 223.7 11.1 223.5 11.1 223.3 C 11.1 223.1 11.2 222.9 11.3 222.7 C 11.4 222.6 11.5 222.4 11.7 222.3 C 11.8 222.2 12 222.1 12.2 222 C 12.4 222 12.6 222 12.8 222 C 13 222 13.2 222 13.4 222.1 C 13.6 222.1 13.8 222.2 13.9 222.4 C 14.1 222.5 14.2 222.7 14.3 222.8 C 14.4 223 14.4 223.2 14.4 223.5 H 13.8 C 13.8 223.3 13.7 223.2 13.7 223.1 C 13.6 222.9 13.6 222.8 13.5 222.8 C 13.4 222.7 13.3 222.6 13.2 222.6 C 13 222.5 12.9 222.5 12.8 222.5 C 12.6 222.5 12.5 222.5 12.4 222.5 C 12.3 222.6 12.2 222.6 12.1 222.7 C 12 222.8 11.9 222.9 11.9 223 C 11.8 223.1 11.8 223.2 11.8 223.3 C 11.8 223.4 11.8 223.6 11.9 223.7 C 12 223.8 12.1 223.8 12.2 223.9 C 12.3 224 12.4 224 12.5 224.1 C 12.7 224.1 12.8 224.2 12.9 224.2 C 13.1 224.3 13.3 224.3 13.4 224.4 C 13.6 224.5 13.8 224.6 13.9 224.7 C 14.1 224.8 14.2 225 14.3 225.2 C 14.4 225.3 14.5 225.5 14.5 225.7 C 14.5 226 14.4 226.2 14.3 226.3 C 14.2 226.5 14.1 226.6 13.9 226.7 C 13.8 226.8 13.6 226.9 13.4 227 C 13.2 227 13 227.1 12.8 227.1 C 12.6 227.1 12.3 227 12.1 226.9 C 11.9 226.9 11.7 226.8 11.5 226.6 C 11.3 226.5 11.2 226.3 11.1 226.1 C 11 226 11 225.8 11 225.6 H 11.6 C 11.7 225.7 11.7 225.9 11.8 226 C 11.8 226.1 11.9 226.2 12 226.3 C 12.1 226.4 12.2 226.4 12.4 226.5 C 12.5 226.5 12.6 226.5 12.8 226.5 C 12.9 226.5 13 226.5 13.2 226.5 C 13.3 226.5 13.4 226.4 13.5 226.3 C 13.6 226.3 13.6 226.2 13.7 226.1 C 13.8 226 13.8 225.9 13.8 225.7 Z M 15.4 222 H 18.4 V 222.6 H 17.2 V 226.5 H 18.4 V 227 H 15.4 V 226.5 H 16.6 V 222.6 H 15.4 V 222 Z M 20.1 226.5 H 22.7 V 227 H 19.4 L 19.4 226.5 L 21.9 222.6 H 19.4 V 222 H 22.6 L 22.6 222.5 L 20.1 226.5 Z M 26.5 224.7 H 24.5 V 226.5 H 26.9 V 227 H 23.8 V 222 H 26.9 V 222.6 H 24.5 V 224.2 H 26.5 V 224.7 Z"
     fill="black"
     id="path7" />
  <path
     d="M 125.8 225.7 C 125.8 225.6 125.8 225.5 125.7 225.4 C 125.6 225.3 125.5 225.2 125.4 225.1 C 125.3 225 125.2 225 125.1 224.9 C 124.9 224.9 124.8 224.8 124.7 224.8 C 124.5 224.7 124.3 224.7 124.1 224.6 C 124 224.5 123.8 224.4 123.7 224.3 C 123.5 224.2 123.4 224 123.3 223.9 C 123.2 223.7 123.1 223.5 123.1 223.3 C 123.1 223.1 123.2 222.9 123.3 222.7 C 123.4 222.6 123.5 222.4 123.7 222.3 C 123.8 222.2 124 222.1 124.2 222 C 124.4 222 124.6 222 124.8 222 C 125 222 125.2 222 125.4 222.1 C 125.6 222.1 125.8 222.2 125.9 222.4 C 126.1 222.5 126.2 222.7 126.3 222.8 C 126.4 223 126.4 223.2 126.4 223.5 H 125.8 C 125.8 223.3 125.7 223.2 125.7 223.1 C 125.6 222.9 125.6 222.8 125.5 222.8 C 125.4 222.7 125.3 222.6 125.2 222.6 C 125 222.5 124.9 222.5 124.8 222.5 C 124.6 222.5 124.5 222.5 124.4 222.5 C 124.3 222.6 124.2 222.6 124.1 222.7 C 124 222.8 123.9 222.9 123.9 223 C 123.8 223.1 123.8 223.2 123.8 223.3 C 123.8 223.4 123.8 223.6 123.9 223.7 C 124 223.8 124.1 223.8 124.2 223.9 C 124.3 224 124.4 224 124.5 224.1 C 124.7 224.1 124.8 224.2 124.9 224.2 C 125.1 224.3 125.3 224.3 125.4 224.4 C 125.6 224.5 125.8 224.6 125.9 224.7 C 126.1 224.8 126.2 225 126.3 225.2 C 126.4 225.3 126.5 225.5 126.5 225.7 C 126.5 226 126.4 226.2 126.3 226.3 C 126.2 226.5 126.1 226.6 125.9 226.7 C 125.8 226.8 125.6 226.9 125.4 227 C 125.2 227 125 227.1 124.8 227.1 C 124.6 227.1 124.3 227 124.1 226.9 C 123.9 226.9 123.7 226.8 123.5 226.6 C 123.3 226.5 123.2 226.3 123.1 226.1 C 123 226 123 225.8 123 225.6 H 123.6 C 123.7 225.7 123.7 225.9 123.8 226 C 123.8 226.1 123.9 226.2 124 226.3 C 124.1 226.4 124.2 226.4 124.4 226.5 C 124.5 226.5 124.6 226.5 124.8 226.5 C 124.9 226.5 125 226.5 125.2 226.5 C 125.3 226.5 125.4 226.4 125.5 226.3 C 125.6 226.3 125.6 226.2 125.7 226.1 C 125.8 226 125.8 225.9 125.8 225.7 Z M 127.4 222 H 130.4 V 222.6 H 129.2 V 226.5 H 130.4 V 227 H 127.4 V 226.5 H 128.6 V 222.6 H 127.4 V 222 Z M 132.1 226.5 H 134.7 V 227 H 131.4 L 131.4 226.5 L 133.9 222.6 H 131.4 V 222 H 134.6 L 134.6 222.5 L 132.1 226.5 Z M 138.5 224.7 H 136.5 V 226.5 H 138.9 V 227 H 135.8 V 222 H 138.9 V 222.6 H 136.5 V 224.2 H 138.5 V 224.7 Z"
     fill="black"
     id="path8" />
  <path
     d="M 11.9 293 L 12.7 295.5 L 13.6 293 H 14.4 V 298 H 13.7 V 296 L 13.8 293.9 L 12.9 296.6 H 12.5 L 11.7 294 L 11.7 296 V 298 H 11.1 V 293 H 11.9 Z M 18.6 295.8 C 18.6 296 18.6 296.2 18.6 296.3 C 18.6 296.5 18.5 296.7 18.4 296.9 C 18.4 297 18.3 297.2 18.2 297.3 C 18.1 297.5 18 297.6 17.9 297.7 C 17.8 297.8 17.6 297.9 17.5 298 C 17.3 298 17.1 298.1 16.9 298.1 C 16.7 298.1 16.5 298 16.3 298 C 16.2 297.9 16 297.8 15.9 297.7 C 15.8 297.6 15.7 297.5 15.6 297.3 C 15.5 297.2 15.4 297 15.3 296.9 C 15.3 296.7 15.2 296.5 15.2 296.3 C 15.2 296.2 15.2 296 15.2 295.8 V 295.2 C 15.2 295.1 15.2 294.9 15.2 294.7 C 15.2 294.5 15.3 294.3 15.3 294.2 C 15.4 294 15.5 293.8 15.6 293.7 C 15.7 293.5 15.8 293.4 15.9 293.3 C 16 293.2 16.2 293.1 16.3 293.1 C 16.5 293 16.7 293 16.9 293 C 17.1 293 17.3 293 17.4 293.1 C 17.6 293.1 17.8 293.2 17.9 293.3 C 18 293.4 18.1 293.5 18.2 293.7 C 18.3 293.8 18.4 294 18.4 294.2 C 18.5 294.3 18.6 294.5 18.6 294.7 C 18.6 294.9 18.6 295.1 18.6 295.2 V 295.8 Z M 18 295.2 C 18 295.1 18 295 18 294.9 C 18 294.7 17.9 294.6 17.9 294.5 C 17.9 294.3 17.8 294.2 17.8 294.1 C 17.7 294 17.7 293.9 17.6 293.8 C 17.5 293.7 17.4 293.6 17.3 293.6 C 17.2 293.5 17 293.5 16.9 293.5 C 16.7 293.5 16.6 293.5 16.5 293.6 C 16.4 293.6 16.3 293.7 16.2 293.8 C 16.1 293.9 16.1 294 16 294.1 C 16 294.2 15.9 294.3 15.9 294.5 C 15.8 294.6 15.8 294.7 15.8 294.9 C 15.8 295 15.8 295.1 15.8 295.2 V 295.8 C 15.8 295.9 15.8 296 15.8 296.2 C 15.8 296.3 15.8 296.4 15.9 296.6 C 15.9 296.7 16 296.8 16 296.9 C 16.1 297 16.1 297.1 16.2 297.2 C 16.3 297.3 16.4 297.4 16.5 297.4 C 16.6 297.5 16.7 297.5 16.9 297.5 C 17 297.5 17.2 297.5 17.3 297.4 C 17.4 297.4 17.5 297.3 17.6 297.2 C 17.7 297.1 17.7 297 17.8 296.9 C 17.8 296.8 17.9 296.7 17.9 296.6 C 17.9 296.4 18 296.3 18 296.2 C 18 296 18 295.9 18 295.8 V 295.2 Z M 19.5 298 V 293 H 20.7 C 20.9 293 21.1 293 21.2 293.1 C 21.4 293.1 21.6 293.2 21.7 293.2 C 21.9 293.3 22.1 293.5 22.2 293.6 C 22.4 293.8 22.5 293.9 22.6 294.1 C 22.7 294.3 22.8 294.5 22.8 294.7 C 22.9 294.9 22.9 295.1 22.9 295.3 V 295.7 C 22.9 295.9 22.9 296.1 22.8 296.3 C 22.8 296.5 22.7 296.7 22.6 296.9 C 22.6 297 22.5 297.2 22.3 297.3 C 22.2 297.5 22.1 297.6 21.9 297.7 C 21.7 297.8 21.6 297.9 21.3 297.9 C 21.1 298 20.9 298 20.7 298 H 19.5 Z M 20.2 293.5 V 297.5 H 20.7 C 20.9 297.5 21 297.5 21.2 297.4 C 21.3 297.4 21.5 297.3 21.6 297.2 C 21.7 297.1 21.8 297 21.9 296.9 C 22 296.8 22.1 296.7 22.1 296.5 C 22.2 296.4 22.2 296.3 22.2 296.1 C 22.2 296 22.2 295.8 22.3 295.7 V 295.3 C 22.2 295.2 22.2 295 22.2 294.9 C 22.2 294.7 22.2 294.6 22.1 294.5 C 22 294.3 22 294.2 21.9 294 C 21.8 293.9 21.6 293.8 21.5 293.7 C 21.4 293.7 21.2 293.6 21.1 293.6 C 21 293.6 20.8 293.5 20.7 293.5 H 20.2 Z M 26.5 295.7 H 24.5 V 297.5 H 26.9 V 298 H 23.8 V 293 H 26.9 V 293.6 H 24.5 V 295.2 H 26.5 V 295.7 Z"
     fill="black"
     id="path9" />
  <path
     d="M 123.9 293 L 124.7 295.5 L 125.6 293 H 126.4 V 298 H 125.7 V 296 L 125.8 293.9 L 124.9 296.6 H 124.5 L 123.7 294 L 123.7 296 V 298 H 123.1 V 293 H 123.9 Z M 130.6 295.8 C 130.6 296 130.6 296.2 130.6 296.3 C 130.6 296.5 130.5 296.7 130.4 296.9 C 130.4 297 130.3 297.2 130.2 297.3 C 130.1 297.5 130 297.6 129.9 297.7 C 129.8 297.8 129.6 297.9 129.5 298 C 129.3 298 129.1 298.1 128.9 298.1 C 128.7 298.1 128.5 298 128.3 298 C 128.2 297.9 128 297.8 127.9 297.7 C 127.8 297.6 127.7 297.5 127.6 297.3 C 127.5 297.2 127.4 297 127.3 296.9 C 127.3 296.7 127.2 296.5 127.2 296.3 C 127.2 296.2 127.2 296 127.2 295.8 V 295.2 C 127.2 295.1 127.2 294.9 127.2 294.7 C 127.2 294.5 127.3 294.3 127.3 294.2 C 127.4 294 127.5 293.8 127.6 293.7 C 127.7 293.5 127.8 293.4 127.9 293.3 C 128 293.2 128.2 293.1 128.3 293.1 C 128.5 293 128.7 293 128.9 293 C 129.1 293 129.3 293 129.4 293.1 C 129.6 293.1 129.8 293.2 129.9 293.3 C 130 293.4 130.1 293.5 130.2 293.7 C 130.3 293.8 130.4 294 130.4 294.2 C 130.5 294.3 130.6 294.5 130.6 294.7 C 130.6 294.9 130.6 295.1 130.6 295.2 V 295.8 Z M 130 295.2 C 130 295.1 130 295 130 294.9 C 130 294.7 129.9 294.6 129.9 294.5 C 129.9 294.3 129.8 294.2 129.8 294.1 C 129.7 294 129.7 293.9 129.6 293.8 C 129.5 293.7 129.4 293.6 129.3 293.6 C 129.2 293.5 129 293.5 128.9 293.5 C 128.7 293.5 128.6 293.5 128.5 293.6 C 128.4 293.6 128.3 293.7 128.2 293.8 C 128.1 293.9 128.1 294 128 294.1 C 128 294.2 127.9 294.3 127.9 294.5 C 127.8 294.6 127.8 294.7 127.8 294.9 C 127.8 295 127.8 295.1 127.8 295.2 V 295.8 C 127.8 295.9 127.8 296 127.8 296.2 C 127.8 296.3 127.8 296.4 127.9 296.6 C 127.9 296.7 128 296.8 128 296.9 C 128.1 297 128.1 297.1 128.2 297.2 C 128.3 297.3 128.4 297.4 128.5 297.4 C 128.6 297.5 128.8 297.5 128.9 297.5 C 129 297.5 129.2 297.5 129.3 297.4 C 129.4 297.4 129.5 297.3 129.6 297.2 C 129.7 297.1 129.7 297 129.8 296.9 C 129.8 296.8 129.9 296.7 129.9 296.6 C 129.9 296.4 130 296.3 130 296.2 C 130 296 130 295.9 130 295.8 V 295.2 Z M 131.5 298 V 293 H 132.7 C 132.9 293 133.1 293 133.2 293.1 C 133.4 293.1 133.6 293.2 133.7 293.2 C 133.9 293.3 134.1 293.5 134.2 293.6 C 134.4 293.8 134.5 293.9 134.6 294.1 C 134.7 294.3 134.8 294.5 134.8 294.7 C 134.9 294.9 134.9 295.1 134.9 295.3 V 295.7 C 134.9 295.9 134.9 296.1 134.8 296.3 C 134.8 296.5 134.7 296.7 134.6 296.9 C 134.6 297 134.5 297.2 134.3 297.3 C 134.2 297.5 134.1 297.6 133.9 297.7 C 133.7 297.8 133.6 297.9 133.3 297.9 C 133.1 298 132.9 298 132.7 298 H 131.5 Z M 132.2 293.5 V 297.5 H 132.7 C 132.9 297.5 133 297.5 133.2 297.4 C 133.3 297.4 133.5 297.3 133.6 297.2 C 133.7 297.1 133.8 297 133.9 296.9 C 134 296.8 134.1 296.7 134.1 296.5 C 134.2 296.4 134.2 296.3 134.2 296.1 C 134.2 296 134.2 295.8 134.3 295.7 V 295.3 C 134.2 295.2 134.2 295 134.2 294.9 C 134.2 294.7 134.2 294.6 134.1 294.5 C 134 294.3 134 294.2 133.9 294 C 133.8 293.9 133.6 293.8 133.5 293.7 C 133.4 293.7 133.2 293.6 133.1 293.6 C 133 293.6 132.8 293.5 132.7 293.5 H 132.2 Z M 138.5 295.7 H 136.5 V 297.5 H 138.9 V 298 H 135.8 V 293 H 138.9 V 293.6 H 136.5 V 295.2 H 138.5 V 295.7 Z"
     fill="black"
     id="path10" />
  <path
     d="M 96.8 197 H 95.8 V 199 H 95.2 V 194 H 96.7 C 96.9 194 97.1 194.1 97.3 194.1 C 97.5 194.2 97.7 194.3 97.9 194.4 C 98 194.5 98.1 194.7 98.2 194.9 C 98.3 195 98.4 195.3 98.4 195.5 C 98.4 195.7 98.3 195.8 98.3 196 C 98.2 196.1 98.2 196.2 98.1 196.3 C 98 196.4 97.9 196.5 97.8 196.6 C 97.7 196.7 97.6 196.8 97.4 196.8 L 98.5 199 L 98.5 199 H 97.8 L 96.8 197 Z M 95.8 196.4 H 96.7 C 96.8 196.4 97 196.4 97.1 196.4 C 97.2 196.3 97.3 196.3 97.4 196.2 C 97.5 196.1 97.6 196 97.6 195.9 C 97.7 195.8 97.7 195.7 97.7 195.5 C 97.7 195.4 97.7 195.2 97.6 195.1 C 97.6 195 97.5 194.9 97.4 194.8 C 97.3 194.7 97.2 194.6 97.1 194.6 C 97 194.6 96.8 194.5 96.7 194.5 H 95.8 V 196.4 Z M 102.1 196.7 H 100 V 198.5 H 102.5 V 199 H 99.4 V 194 H 102.4 V 194.6 H 100 V 196.2 H 102.1 V 196.7 Z M 106 197.7 H 104.3 L 103.9 199 H 103.3 L 104.9 194 H 105.4 L 107 199 H 106.4 L 106 197.7 Z M 104.5 197.2 H 105.8 L 105.1 195 L 104.5 197.2 Z M 107.7 199 V 194 H 108.9 C 109.1 194 109.3 194 109.4 194.1 C 109.6 194.1 109.8 194.2 109.9 194.2 C 110.1 194.3 110.3 194.5 110.4 194.6 C 110.6 194.8 110.7 194.9 110.8 195.1 C 110.9 195.3 111 195.5 111 195.7 C 111.1 195.9 111.1 196.1 111.1 196.3 V 196.7 C 111.1 196.9 111.1 197.1 111 197.3 C 111 197.5 110.9 197.7 110.8 197.9 C 110.8 198 110.7 198.2 110.5 198.3 C 110.4 198.5 110.3 198.6 110.1 198.7 C 109.9 198.8 109.8 198.9 109.6 198.9 C 109.3 199 109.1 199 108.9 199 H 107.7 Z M 108.4 194.5 V 198.5 H 108.9 C 109.1 198.5 109.2 198.5 109.4 198.4 C 109.5 198.4 109.7 198.3 109.8 198.2 C 109.9 198.1 110 198 110.1 197.9 C 110.2 197.8 110.3 197.7 110.3 197.5 C 110.4 197.4 110.4 197.3 110.4 197.1 C 110.4 197 110.5 196.8 110.5 196.7 V 196.3 C 110.5 196.2 110.4 196 110.4 195.9 C 110.4 195.7 110.4 195.6 110.3 195.5 C 110.2 195.3 110.2 195.2 110.1 195 C 110 194.9 109.8 194.8 109.7 194.7 C 109.6 194.7 109.5 194.6 109.3 194.6 C 109.2 194.6 109 194.5 108.9 194.5 H 108.4 Z"
     fill="black"
     id="path11" />
  <path
     d="M 128.5 336.8 C 128.5 337 128.5 337.2 128.5 337.3 C 128.4 337.5 128.4 337.7 128.3 337.9 C 128.3 338 128.2 338.2 128.1 338.3 C 128 338.5 127.9 338.6 127.8 338.7 C 127.7 338.8 127.5 338.9 127.3 339 C 127.2 339 127 339.1 126.8 339.1 C 126.6 339.1 126.4 339 126.2 339 C 126.1 338.9 125.9 338.8 125.8 338.7 C 125.7 338.6 125.6 338.5 125.5 338.3 C 125.4 338.2 125.3 338 125.2 337.9 C 125.2 337.7 125.1 337.5 125.1 337.3 C 125.1 337.2 125.1 337 125.1 336.8 V 336.2 C 125.1 336.1 125.1 335.9 125.1 335.7 C 125.1 335.5 125.2 335.3 125.2 335.2 C 125.3 335 125.4 334.8 125.5 334.7 C 125.6 334.5 125.7 334.4 125.8 334.3 C 125.9 334.2 126.1 334.1 126.2 334.1 C 126.4 334 126.6 334 126.8 334 C 127 334 127.2 334 127.3 334.1 C 127.5 334.1 127.7 334.2 127.8 334.3 C 127.9 334.4 128 334.5 128.1 334.7 C 128.2 334.8 128.3 335 128.3 335.2 C 128.4 335.3 128.4 335.5 128.5 335.7 C 128.5 335.9 128.5 336.1 128.5 336.2 V 336.8 Z M 127.9 336.2 C 127.9 336.1 127.9 336 127.9 335.9 C 127.9 335.7 127.8 335.6 127.8 335.5 C 127.8 335.3 127.7 335.2 127.7 335.1 C 127.6 335 127.6 334.9 127.5 334.8 C 127.4 334.7 127.3 334.6 127.2 334.6 C 127.1 334.5 126.9 334.5 126.8 334.5 C 126.6 334.5 126.5 334.5 126.4 334.6 C 126.3 334.6 126.2 334.7 126.1 334.8 C 126 334.9 126 335 125.9 335.1 C 125.9 335.2 125.8 335.3 125.8 335.5 C 125.7 335.6 125.7 335.7 125.7 335.9 C 125.7 336 125.7 336.1 125.7 336.2 V 336.8 C 125.7 336.9 125.7 337 125.7 337.2 C 125.7 337.3 125.7 337.4 125.8 337.6 C 125.8 337.7 125.9 337.8 125.9 337.9 C 126 338 126 338.1 126.1 338.2 C 126.2 338.3 126.3 338.4 126.4 338.4 C 126.5 338.5 126.6 338.5 126.8 338.5 C 126.9 338.5 127.1 338.5 127.2 338.4 C 127.3 338.4 127.4 338.3 127.5 338.2 C 127.6 338.1 127.6 338 127.7 337.9 C 127.7 337.8 127.8 337.7 127.8 337.6 C 127.8 337.4 127.9 337.3 127.9 337.2 C 127.9 337 127.9 336.9 127.9 336.8 V 336.2 Z M 132.6 334 L 132.6 337.4 C 132.6 337.6 132.6 337.8 132.5 338 C 132.4 338.2 132.3 338.4 132.2 338.6 C 132 338.7 131.8 338.9 131.6 338.9 C 131.5 339 131.2 339.1 131 339.1 C 130.8 339.1 130.5 339 130.3 338.9 C 130.1 338.9 130 338.7 129.8 338.6 C 129.7 338.4 129.6 338.3 129.5 338.1 C 129.4 337.8 129.4 337.6 129.4 337.4 L 129.4 334 H 130 L 130 337.4 C 130 337.5 130 337.7 130.1 337.8 C 130.1 338 130.2 338.1 130.3 338.2 C 130.3 338.3 130.4 338.4 130.6 338.4 C 130.7 338.5 130.8 338.5 131 338.5 C 131.2 338.5 131.3 338.5 131.4 338.4 C 131.5 338.4 131.7 338.3 131.7 338.2 C 131.8 338.1 131.9 338 131.9 337.8 C 132 337.7 132 337.5 132 337.4 L 132 334 H 132.6 Z M 137.1 334.6 H 135.5 V 339 H 134.9 V 334.6 H 133.4 V 334 H 137.1 V 334.6 Z"
     fill="black"
     id="path12" />
  <g
     id="g2"
     transform="matrix(0.3,0,0,0.3,55.4,293.8)"
     inkscape:label="logo"
     style="fill: #000000">
    <path
       class="cls-1"
       d="M 80.7 201.8 c 0.3 0.3 0.6 1 0.6 1.4 v 4 c 0 0.5 -0.3 1.1 -0.6 1.4 l -0.7 0.7 c -0.3 0.3 -1 0.6 -1.4 0.6 H 55.5 c -0.5 0 -1.1 0.3 -1.4 0.6 l -0.7 0.7 c -0.3 0.3 -0.6 1 -0.6 1.4 v 5.9 c 0 0.5 0.4 0.8 0.8 0.8 h 25 c 0.5 0 1.1 0.3 1.4 0.6 l 0.7 0.7 c 0.3 0.3 0.6 1 0.6 1.4 v 13.5 c 0 0.5 -0.3 1.1 -0.6 1.4 l -0.7 0.7 c -0.3 0.3 -1 0.6 -1.4 0.6 h -4 c -0.5 0 -1.1 0.3 -1.4 0.6 l -0.7 0.7 c -0.3 0.3 -0.6 1 -0.6 1.4 v 4 c 0 0.5 -0.3 1.1 -0.6 1.4 l -0.7 0.7 c -0.3 0.3 -1 0.6 -1.4 0.6 H 46 c -0.5 0 -1.1 -0.3 -1.4 -0.6 l -0.7 -0.7 c -0.3 -0.3 -0.6 -1 -0.6 -1.4 v -4 c 0 -0.5 0.3 -1.1 0.6 -1.4 l 0.7 -0.7 c 0.3 -0.3 1 -0.6 1.4 -0.6 h 23.1 c 0.5 0 1.1 -0.3 1.4 -0.6 l 0.7 -0.7 c 0.3 -0.3 0.6 -1 0.6 -1.4 v -4 c 0 -0.5 -0.3 -1.1 -0.6 -1.4 l -0.7 -0.7 c -0.3 -0.3 -1 -0.6 -1.4 -0.6 H 46 c -0.5 0 -1.1 -0.3 -1.4 -0.6 l -0.7 -0.7 c -0.3 -0.3 -0.6 -1 -0.6 -1.4 v -13.5 c 0 -0.5 0.3 -1.1 0.6 -1.4 l 0.7 -0.7 c 0.3 -0.3 1 -0.6 1.4 -0.6 h 4 c 0.5 0 1.1 -0.3 1.4 -0.6 l 0.7 -0.7 c 0.3 -0.3 0.6 -1 0.6 -1.4 v -4 c 0 -0.5 0.3 -1.1 0.6 -1.4 l 0.7 -0.7 c 0.3 -0.3 1 -0.6 1.4 -0.6 h 23.1 c 0.5 0 1.1 0.3 1.4 0.6 l 0.7 0.7 z"
       id="path1-3"
       style="fill: #000000; stroke-width: 0.3" />
    <path
       class="cls-1"
       d="M 17.6 191 c 0.5 0 1.1 0.3 1.4 0.6 l 0.7 0.7 c 0.3 0.3 0.6 1 0.6 1.4 v 13.5 c 0 0.5 0.3 1.1 0.6 1.4 l 0.7 0.7 c 0.3 0.3 1 0.6 1.4 0.6 h 13.5 c 0.5 0 1.1 0.3 1.4 0.6 l 0.7 0.7 c 0.3 0.3 0.6 1 0.6 1.4 v 4 c 0 0.5 -0.3 1.1 -0.6 1.4 l -0.7 0.7 c -0.3 0.3 -1 0.6 -1.4 0.6 H 23.1 c -0.5 0 -1.1 0.3 -1.4 0.6 l -0.7 0.7 c -0.3 0.3 -0.6 1 -0.6 1.4 v 13.5 c 0 0.5 0.3 1.1 0.6 1.4 l 0.7 0.7 c 0.3 0.3 1 0.6 1.4 0.6 h 13.5 c 0.5 0 1.1 0.3 1.4 0.6 l 0.7 0.7 c 0.3 0.3 0.6 1 0.6 1.4 v 4 c 0 0.5 -0.3 1.1 -0.6 1.4 l -0.7 0.7 c -0.3 0.3 -1 0.6 -1.4 0.6 H 23.1 c -0.5 0 -1.1 -0.3 -1.4 -0.6 l -0.7 -0.7 c -0.3 -0.3 -0.6 -1 -0.6 -1.4 v -4 c 0 -0.5 -0.3 -1.1 -0.6 -1.4 l -0.7 -0.7 c -0.3 -0.3 -1 -0.6 -1.4 -0.6 h -4 c -0.5 0 -1.1 -0.3 -1.4 -0.6 l -0.7 -0.7 c -0.3 -0.3 -0.6 -1 -0.6 -1.4 v -13.5 c 0 -0.5 -0.3 -1.1 -0.6 -1.4 l -0.7 -0.7 c -0.3 -0.3 -1 -0.6 -1.4 -0.6 h -4 c -0.5 0 -1.1 -0.3 -1.4 -0.6 l -0.7 -0.7 c -0.3 -0.3 -0.6 -1 -0.6 -1.4 v -4 c 0 -0.5 0.3 -1.1 0.6 -1.4 l 0.7 -0.7 c 0.3 -0.3 1 -0.6 1.4 -0.6 h 4 c 0.5 0 1.1 -0.3 1.4 -0.6 l 0.7 -0.7 c 0.3 -0.3 0.6 -1 0.6 -1.4 v -13.5 c 0 -0.5 0.3 -1.1 0.6 -1.4 l 0.7 -0.7 c 0.3 -0.3 1 -0.6 1.4 -0.6 h 4 z"
       id="path2-8"
       style="fill: #000000; stroke-width: 0.3" />
    <path
       class="cls-1"
       d="M 121.9 210.6 c -0.3 -0.3 -1 -0.6 -1.4 -0.6 h -4 c -0.5 0 -1.1 -0.3 -1.4 -0.6 l -0.7 -0.7 c -0.3 -0.3 -0.6 -1 -0.6 -1.4 v -4 c 0 -0.5 -0.3 -1.1 -0.6 -1.4 l -0.7 -0.7 c -0.3 -0.3 -1 -0.6 -1.4 -0.6 H 87.9 c -0.5 0 -1.1 0.3 -1.4 0.6 l -0.7 0.7 c -0.3 0.3 -0.6 1 -0.6 1.4 v 4 c 0 0.5 0.3 1.1 0.6 1.4 l 0.7 0.7 c 0.3 0.3 1 0.6 1.4 0.6 h 23.1 c 0.5 0 1.1 0.3 1.4 0.6 l 0.7 0.7 c 0.3 0.3 0.6 1 0.6 1.4 v 4 c 0 0.5 -0.3 1.1 -0.6 1.4 l -0.7 0.7 c -0.3 0.3 -1 0.6 -1.4 0.6 H 87.9 c -0.5 0 -1.1 0.3 -1.4 0.6 l -0.7 0.7 c -0.3 0.3 -0.6 1 -0.6 1.4 v 13.5 c 0 0.5 0.3 1.1 0.6 1.4 l 0.7 0.7 c 0.3 0.3 1 0.6 1.4 0.6 h 4 c 0.5 0 1.1 0.3 1.4 0.6 l 0.7 0.7 c 0.3 0.3 0.6 1 0.6 1.4 v 4 c 0 0.5 0.3 1.1 0.6 1.4 l 0.7 0.7 c 0.3 0.3 1 0.6 1.4 0.6 h 23.1 c 0.5 0 1.1 -0.3 1.4 -0.6 l 0.7 -0.7 c 0.3 -0.3 0.6 -1 0.6 -1.4 v -32.6 c 0 -0.5 -0.3 -1.1 -0.6 -1.4 l -0.7 -0.7 z m -8.2 25.2 c 0 0.5 -0.3 1.1 -0.6 1.4 l -0.7 0.7 c -0.3 0.3 -1 0.6 -1.4 0.6 H 97.4 c -0.5 0 -1.1 -0.3 -1.4 -0.6 l -0.7 -0.7 c -0.3 -0.3 -0.6 -1 -0.6 -1.4 v -4 c 0 -0.5 0.3 -1.1 0.6 -1.4 l 0.7 -0.7 c 0.3 -0.3 1 -0.6 1.4 -0.6 h 13.5 c 0.5 0 1.1 0.3 1.4 0.6 l 0.7 0.7 c 0.3 0.3 0.6 1 0.6 1.4 z"
       id="path3-0"
       style="fill: #000000; stroke-width: 0.3" />
  </g>
  <path
     style="fill: #000000; font-family: [object Object]; -inkscape-font-specification: 'Monaspace Krypton'; display: inline"
     d="M 57.6 26.2 h 1.2 v -8.8 h -1.2 v 3.8 h -2.9 v -3.8 h -1.2 v 8.8 h 1.2 v -4 h 2.9 z m 3.4 0 h 5.2 l 0.1 -1 h -4.2 v -2.9 h 3.2 v -0.9 h -3.2 V 18.4 h 4 l -0.1 -1 h -5 z m 11.6 0 h 1.2 v -1.7 l -1.9 -2.6 l 1.9 -2.8 v -1.7 h -1.1 v 1.4 l -1.5 2.2 l -1.7 -2.3 v -1.4 h -1.2 v 1.7 l 1.9 2.5 l -1.9 2.8 v 1.7 h 1.1 V 24.8 l 1.5 -2.3 l 1.7 2.3 z m 3.2 0 h 1.1 v -6.5 h 0.1 l 3.1 6.5 h 1 V 17.4 h -1.1 v 6.4 h -0.1 l -3 -6.4 h -1 z m 8.5 0 h 3.2 l 1 -1.3 v -7.5 h -1.2 v 7 l -0.5 0.7 h -1.8 l -0.5 -0.7 v -7 h -1.2 v 7.5 z m 8.4 0 h 1.2 V 18.4 h 2.6 l -0.1 -1 h -6.1 l -0.1 1 h 2.5 z"
     id="text1"
     aria-label="HEXNUT" />
  <path
     d="M 75 218 l 1.1 -2 h 0.7 l -1.4 2.5 l 1.5 2.5 H 76.1 L 75 219 L 73.9 221 h -0.7 l 1.5 -2.5 l -1.4 -2.5 h 0.7 z m -0.1 28.5 l 1.1 -2.5 h 0.7 L 75.3 247.1 L 75.3 249 H 74.7 l 0 -1.9 l -1.5 -3.1 h 0.7 z m -1 29.9 h 2.6 V 277 h -3.3 l 0 -0.5 l 2.5 -3.9 H 73.3 v -0.5 h 3.2 l 0 0.5 z"
     fill="#000000"
     id="path14" />
</svg>
