<svg width="90" height="380" viewBox="0 0 90 380" fill="none" xmlns="http://www.w3.org/2000/svg">
<rect width="90" height="380" fill="#1E1E1E"/>
<rect width="90" height="380" fill="white"/>
<g clip-path="url(#clip0_0_1)">
<rect width="90" height="374" transform="translate(0 3)" fill="white"/>
<path d="M11.3076 224.503C11.278 224.733 11.2188 224.945 11.1299 225.139C11.041 225.33 10.9259 225.494 10.7847 225.631C10.6411 225.77 10.4714 225.878 10.2754 225.956C10.0817 226.031 9.86523 226.068 9.62598 226.068C9.4209 226.068 9.23405 226.04 9.06543 225.983C8.89909 225.924 8.75098 225.843 8.62109 225.74C8.48893 225.638 8.375 225.517 8.2793 225.378C8.18587 225.239 8.1084 225.087 8.04688 224.923C7.98307 224.759 7.93522 224.587 7.90332 224.407C7.8737 224.227 7.85775 224.045 7.85547 223.86V223.167C7.85775 222.982 7.8737 222.8 7.90332 222.62C7.93522 222.44 7.98307 222.268 8.04688 222.104C8.1084 221.939 8.18587 221.788 8.2793 221.649C8.375 221.508 8.48893 221.386 8.62109 221.283C8.75098 221.181 8.89909 221.101 9.06543 221.044C9.23177 220.985 9.41862 220.955 9.62598 220.955C9.87435 220.955 10.0965 220.994 10.2925 221.071C10.4884 221.146 10.6571 221.254 10.7983 221.393C10.9396 221.534 11.0524 221.702 11.1367 221.898C11.2233 222.094 11.2803 222.311 11.3076 222.548H10.6753C10.6548 222.397 10.6195 222.257 10.5693 222.127C10.5192 221.998 10.452 221.884 10.3677 221.786C10.2834 221.688 10.1797 221.611 10.0566 221.557C9.93587 221.5 9.79232 221.471 9.62598 221.471C9.47559 221.471 9.34229 221.496 9.22607 221.546C9.11214 221.594 9.01416 221.66 8.93213 221.745C8.84782 221.829 8.77718 221.927 8.72021 222.039C8.66553 222.15 8.62109 222.269 8.58691 222.394C8.55273 222.519 8.52767 222.648 8.51172 222.78C8.49805 222.91 8.49121 223.037 8.49121 223.16V223.86C8.49121 223.983 8.49805 224.111 8.51172 224.243C8.52767 224.373 8.55273 224.501 8.58691 224.626C8.62109 224.754 8.66553 224.873 8.72021 224.985C8.7749 225.097 8.8444 225.194 8.92871 225.279C9.01302 225.365 9.11214 225.434 9.22607 225.484C9.34001 225.532 9.47331 225.556 9.62598 225.556C9.79232 225.556 9.93587 225.529 10.0566 225.477C10.1797 225.425 10.2834 225.351 10.3677 225.255C10.452 225.161 10.5192 225.051 10.5693 224.923C10.6195 224.793 10.6548 224.653 10.6753 224.503H11.3076ZM13.0029 225.463H15.4365V226H12.3706V221.023H13.0029V225.463ZM19.7295 223.799C19.7272 223.977 19.7113 224.157 19.6816 224.339C19.6543 224.519 19.611 224.693 19.5518 224.862C19.4925 225.03 19.4162 225.188 19.3228 225.333C19.2316 225.479 19.1222 225.607 18.9946 225.716C18.867 225.826 18.7201 225.912 18.5537 225.976C18.3896 226.038 18.2051 226.068 18 226.068C17.7949 226.068 17.6092 226.038 17.4429 225.976C17.2788 225.912 17.133 225.826 17.0054 225.716C16.8778 225.607 16.7673 225.479 16.6738 225.333C16.5804 225.185 16.5041 225.027 16.4448 224.858C16.3833 224.69 16.3377 224.515 16.3081 224.335C16.2785 224.155 16.2625 223.977 16.2603 223.799V223.231C16.2625 223.054 16.2773 222.875 16.3047 222.695C16.3343 222.513 16.3799 222.337 16.4414 222.168C16.5007 222 16.5758 221.843 16.667 221.697C16.7604 221.549 16.8709 221.419 16.9985 221.307C17.1261 221.198 17.272 221.112 17.436 221.051C17.6024 220.987 17.7881 220.955 17.9932 220.955C18.1982 220.955 18.384 220.987 18.5503 221.051C18.7166 221.112 18.8636 221.198 18.9912 221.307C19.1188 221.417 19.2282 221.545 19.3193 221.693C19.4128 221.839 19.4902 221.996 19.5518 222.165C19.611 222.334 19.6543 222.509 19.6816 222.691C19.7113 222.874 19.7272 223.054 19.7295 223.231V223.799ZM19.104 223.225C19.1017 223.106 19.0938 222.983 19.0801 222.855C19.0664 222.726 19.0436 222.597 19.0117 222.469C18.9775 222.344 18.9331 222.224 18.8784 222.11C18.8237 221.994 18.7554 221.892 18.6733 221.803C18.5913 221.716 18.4945 221.648 18.3828 221.598C18.2712 221.545 18.1413 221.519 17.9932 221.519C17.8473 221.519 17.7186 221.545 17.6069 221.598C17.4953 221.65 17.3984 221.72 17.3164 221.806C17.2344 221.895 17.166 221.998 17.1113 222.114C17.0566 222.228 17.0133 222.347 16.9814 222.473C16.9473 222.6 16.9222 222.729 16.9062 222.859C16.8926 222.986 16.8846 223.108 16.8823 223.225V223.799C16.8846 223.915 16.8926 224.038 16.9062 224.168C16.9222 224.298 16.9473 224.425 16.9814 224.551C17.0156 224.678 17.0601 224.8 17.1147 224.917C17.1694 225.033 17.2378 225.134 17.3198 225.221C17.4019 225.31 17.4987 225.38 17.6104 225.433C17.722 225.485 17.8519 225.511 18 225.511C18.1481 225.511 18.278 225.485 18.3896 225.433C18.5036 225.38 18.6016 225.31 18.6836 225.221C18.7633 225.134 18.8294 225.034 18.8818 224.92C18.9365 224.804 18.981 224.682 19.0151 224.554C19.047 224.429 19.0687 224.301 19.0801 224.171C19.0938 224.042 19.1017 223.917 19.104 223.799V223.225ZM23.9199 224.503C23.8903 224.733 23.8311 224.945 23.7422 225.139C23.6533 225.33 23.5382 225.494 23.397 225.631C23.2534 225.77 23.0837 225.878 22.8877 225.956C22.694 226.031 22.4775 226.068 22.2383 226.068C22.0332 226.068 21.8464 226.04 21.6777 225.983C21.5114 225.924 21.3633 225.843 21.2334 225.74C21.1012 225.638 20.9873 225.517 20.8916 225.378C20.7982 225.239 20.7207 225.087 20.6592 224.923C20.5954 224.759 20.5475 224.587 20.5156 224.407C20.486 224.227 20.4701 224.045 20.4678 223.86V223.167C20.4701 222.982 20.486 222.8 20.5156 222.62C20.5475 222.44 20.5954 222.268 20.6592 222.104C20.7207 221.939 20.7982 221.788 20.8916 221.649C20.9873 221.508 21.1012 221.386 21.2334 221.283C21.3633 221.181 21.5114 221.101 21.6777 221.044C21.8441 220.985 22.0309 220.955 22.2383 220.955C22.4867 220.955 22.7088 220.994 22.9048 221.071C23.1007 221.146 23.2694 221.254 23.4106 221.393C23.5519 221.534 23.6647 221.702 23.749 221.898C23.8356 222.094 23.8926 222.311 23.9199 222.548H23.2876C23.2671 222.397 23.2318 222.257 23.1816 222.127C23.1315 221.998 23.0643 221.884 22.98 221.786C22.8957 221.688 22.792 221.611 22.6689 221.557C22.5482 221.5 22.4046 221.471 22.2383 221.471C22.0879 221.471 21.9546 221.496 21.8384 221.546C21.7244 221.594 21.6265 221.66 21.5444 221.745C21.4601 221.829 21.3895 221.927 21.3325 222.039C21.2778 222.15 21.2334 222.269 21.1992 222.394C21.165 222.519 21.14 222.648 21.124 222.78C21.1104 222.91 21.1035 223.037 21.1035 223.16V223.86C21.1035 223.983 21.1104 224.111 21.124 224.243C21.14 224.373 21.165 224.501 21.1992 224.626C21.2334 224.754 21.2778 224.873 21.3325 224.985C21.3872 225.097 21.4567 225.194 21.541 225.279C21.6253 225.365 21.7244 225.434 21.8384 225.484C21.9523 225.532 22.0856 225.556 22.2383 225.556C22.4046 225.556 22.5482 225.529 22.6689 225.477C22.792 225.425 22.8957 225.351 22.98 225.255C23.0643 225.161 23.1315 225.051 23.1816 224.923C23.2318 224.793 23.2671 224.653 23.2876 224.503H23.9199ZM26.0938 223.689L25.54 224.318V226H24.894V221.023H25.54V223.454L26.022 222.852L27.4814 221.023H28.2505L26.5107 223.201L28.3667 226H27.5977L26.0938 223.689Z" fill="black"/>
<path d="M7.62988 111.97H6.63525V114H6.00635V109.023H7.46582C7.69824 109.028 7.91699 109.061 8.12207 109.123C8.32715 109.184 8.50716 109.276 8.66211 109.399C8.81478 109.522 8.93441 109.677 9.021 109.864C9.10986 110.049 9.1543 110.266 9.1543 110.517C9.1543 110.679 9.13037 110.827 9.08252 110.961C9.03695 111.096 8.97314 111.218 8.89111 111.327C8.80908 111.437 8.7111 111.533 8.59717 111.618C8.48324 111.702 8.35791 111.774 8.22119 111.833L9.27734 113.959L9.27393 114H8.60742L7.62988 111.97ZM6.63525 111.45H7.48291C7.62419 111.448 7.75749 111.426 7.88281 111.385C8.00814 111.342 8.11865 111.28 8.21436 111.201C8.30778 111.121 8.38184 111.024 8.43652 110.91C8.49121 110.794 8.51855 110.661 8.51855 110.51C8.51855 110.351 8.49235 110.212 8.43994 110.093C8.38753 109.972 8.31462 109.871 8.22119 109.789C8.12777 109.709 8.01611 109.649 7.88623 109.608C7.75863 109.567 7.61849 109.545 7.46582 109.543H6.63525V111.45ZM12.9243 111.7H10.8462V113.463H13.2695V114H10.2139V109.023H13.2388V109.563H10.8462V111.163H12.9243V111.7ZM15.0811 112.004V114H14.4487V109.023H16.062C16.2853 109.028 16.4961 109.063 16.6943 109.129C16.8949 109.195 17.0703 109.291 17.2207 109.417C17.3711 109.542 17.4896 109.697 17.5762 109.881C17.665 110.066 17.7095 110.278 17.7095 110.517C17.7095 110.756 17.665 110.968 17.5762 111.153C17.4896 111.335 17.3711 111.489 17.2207 111.614C17.0703 111.74 16.8949 111.835 16.6943 111.901C16.4961 111.967 16.2853 112.002 16.062 112.004H15.0811ZM15.0811 111.484H16.062C16.2078 111.482 16.3423 111.459 16.4653 111.416C16.5884 111.37 16.6955 111.307 16.7866 111.225C16.8778 111.143 16.9484 111.043 16.9985 110.927C17.0509 110.809 17.0771 110.674 17.0771 110.524C17.0771 110.374 17.0509 110.238 16.9985 110.117C16.9484 109.996 16.8789 109.894 16.79 109.81C16.6989 109.725 16.5907 109.66 16.4653 109.615C16.3423 109.569 16.2078 109.545 16.062 109.543H15.0811V111.484ZM21.3325 111.7H19.2544V113.463H21.6777V114H18.6221V109.023H21.647V109.563H19.2544V111.163H21.3325V111.7ZM25.1743 112.711H23.5132L23.1133 114H22.481L24.0874 109.023H24.6172L26.1963 114H25.5674L25.1743 112.711ZM23.6841 112.161H25.0068L24.3506 110.001L23.6841 112.161ZM30.3594 109.563H28.8213V114H28.2061V109.563H26.668V109.023H30.3594V109.563Z" fill="black"/>
<path d="M63.7319 223.97H62.7373V226H62.1084V221.023H63.5679C63.8003 221.028 64.019 221.061 64.2241 221.123C64.4292 221.184 64.6092 221.276 64.7642 221.399C64.9168 221.522 65.0365 221.677 65.123 221.864C65.2119 222.049 65.2563 222.266 65.2563 222.517C65.2563 222.679 65.2324 222.827 65.1846 222.961C65.139 223.096 65.0752 223.218 64.9932 223.327C64.9111 223.437 64.8132 223.533 64.6992 223.618C64.5853 223.702 64.46 223.774 64.3232 223.833L65.3794 225.959L65.376 226H64.7095L63.7319 223.97ZM62.7373 223.45H63.585C63.7262 223.448 63.8595 223.426 63.9849 223.385C64.1102 223.342 64.2207 223.28 64.3164 223.201C64.4098 223.121 64.4839 223.024 64.5386 222.91C64.5933 222.794 64.6206 222.661 64.6206 222.51C64.6206 222.351 64.5944 222.212 64.542 222.093C64.4896 221.972 64.4167 221.871 64.3232 221.789C64.2298 221.709 64.1182 221.649 63.9883 221.608C63.8607 221.567 63.7205 221.545 63.5679 221.543H62.7373V223.45ZM69.0264 223.7H66.9482V225.463H69.3716V226H66.3159V221.023H69.3408V221.563H66.9482V223.163H69.0264V223.7ZM73.0972 224.742C73.0972 224.59 73.0618 224.461 72.9912 224.356C72.9229 224.251 72.834 224.162 72.7246 224.089C72.6152 224.019 72.4945 223.959 72.3623 223.912C72.2324 223.864 72.1071 223.82 71.9863 223.782C71.8109 223.725 71.632 223.656 71.4497 223.577C71.2697 223.495 71.1056 223.397 70.9575 223.283C70.8071 223.167 70.6841 223.03 70.5884 222.873C70.495 222.713 70.4482 222.526 70.4482 222.312C70.4482 222.098 70.495 221.906 70.5884 221.738C70.6841 221.569 70.8083 221.427 70.9609 221.311C71.1136 221.194 71.2868 221.107 71.4805 221.047C71.6742 220.986 71.869 220.955 72.0649 220.955C72.2814 220.955 72.4899 220.992 72.6904 221.064C72.891 221.135 73.0687 221.235 73.2236 221.365C73.3786 221.495 73.5028 221.652 73.5962 221.837C73.6896 222.021 73.7386 222.228 73.7432 222.456H73.0938C73.0755 222.312 73.0402 222.182 72.9878 222.066C72.9354 221.947 72.8659 221.846 72.7793 221.762C72.6927 221.677 72.589 221.612 72.4683 221.567C72.3498 221.519 72.2153 221.495 72.0649 221.495C71.9442 221.495 71.8257 221.512 71.7095 221.546C71.5955 221.581 71.4941 221.632 71.4053 221.7C71.3141 221.769 71.2412 221.853 71.1865 221.953C71.1341 222.053 71.1079 222.17 71.1079 222.302C71.1102 222.445 71.1466 222.567 71.2173 222.667C71.2879 222.765 71.3779 222.849 71.4873 222.917C71.5944 222.985 71.7106 223.042 71.8359 223.088C71.9635 223.133 72.0832 223.173 72.1948 223.208C72.3794 223.264 72.564 223.334 72.7485 223.416C72.9331 223.496 73.1017 223.598 73.2544 223.724C73.4048 223.84 73.5256 223.982 73.6167 224.151C73.7101 224.319 73.7568 224.514 73.7568 224.735C73.7568 224.959 73.7067 225.153 73.6064 225.32C73.5085 225.486 73.3809 225.624 73.2236 225.733C73.0664 225.845 72.8887 225.929 72.6904 225.986C72.4922 226.041 72.2939 226.068 72.0957 226.068C71.8587 226.068 71.6252 226.028 71.395 225.949C71.1672 225.869 70.9689 225.754 70.8003 225.604C70.6499 225.474 70.5303 225.322 70.4414 225.149C70.3548 224.973 70.3081 224.779 70.3013 224.564H70.9473C70.9678 224.719 71.0099 224.857 71.0737 224.978C71.1375 225.097 71.2196 225.197 71.3198 225.279C71.4201 225.363 71.5352 225.427 71.665 225.47C71.7972 225.511 71.9408 225.532 72.0957 225.532C72.2188 225.532 72.3395 225.517 72.458 225.487C72.5788 225.455 72.6859 225.406 72.7793 225.34C72.8727 225.277 72.9491 225.196 73.0083 225.098C73.0675 224.997 73.0972 224.879 73.0972 224.742ZM77.4346 223.7H75.3564V225.463H77.7798V226H74.7241V221.023H77.749V221.563H75.3564V223.163H77.4346V223.7ZM82.2573 221.563H80.7192V226H80.104V221.563H78.5659V221.023H82.2573V221.563Z" fill="black"/>
<path d="M65.834 111.97H64.8394V114H64.2104V109.023H65.6699C65.9023 109.028 66.1211 109.061 66.3262 109.123C66.5312 109.184 66.7113 109.276 66.8662 109.399C67.0189 109.522 67.1385 109.677 67.2251 109.864C67.314 110.049 67.3584 110.266 67.3584 110.517C67.3584 110.679 67.3345 110.827 67.2866 110.961C67.241 111.096 67.1772 111.218 67.0952 111.327C67.0132 111.437 66.9152 111.533 66.8013 111.618C66.6873 111.702 66.562 111.774 66.4253 111.833L67.4814 113.959L67.478 114H66.8115L65.834 111.97ZM64.8394 111.45H65.687C65.8283 111.448 65.9616 111.426 66.0869 111.385C66.2122 111.342 66.3228 111.28 66.4185 111.201C66.5119 111.121 66.5859 111.024 66.6406 110.91C66.6953 110.794 66.7227 110.661 66.7227 110.51C66.7227 110.351 66.6965 110.212 66.644 110.093C66.5916 109.972 66.5187 109.871 66.4253 109.789C66.3319 109.709 66.2202 109.649 66.0903 109.608C65.9627 109.567 65.8226 109.545 65.6699 109.543H64.8394V111.45ZM71.1284 111.7H69.0503V113.463H71.4736V114H68.418V109.023H71.4429V109.563H69.0503V111.163H71.1284V111.7ZM75.1992 112.742C75.1992 112.59 75.1639 112.461 75.0933 112.356C75.0249 112.251 74.936 112.162 74.8267 112.089C74.7173 112.019 74.5965 111.959 74.4644 111.912C74.3345 111.864 74.2091 111.82 74.0884 111.782C73.9129 111.725 73.734 111.656 73.5518 111.577C73.3717 111.495 73.2077 111.397 73.0596 111.283C72.9092 111.167 72.7861 111.03 72.6904 110.873C72.597 110.713 72.5503 110.526 72.5503 110.312C72.5503 110.098 72.597 109.906 72.6904 109.738C72.7861 109.569 72.9103 109.427 73.063 109.311C73.2157 109.194 73.3888 109.107 73.5825 109.047C73.7762 108.986 73.971 108.955 74.167 108.955C74.3835 108.955 74.592 108.992 74.7925 109.064C74.993 109.135 75.1707 109.235 75.3257 109.365C75.4806 109.495 75.6048 109.652 75.6982 109.837C75.7917 110.021 75.8407 110.228 75.8452 110.456H75.1958C75.1776 110.312 75.1423 110.182 75.0898 110.066C75.0374 109.947 74.9679 109.846 74.8813 109.762C74.7948 109.677 74.6911 109.612 74.5703 109.567C74.4518 109.519 74.3174 109.495 74.167 109.495C74.0462 109.495 73.9277 109.512 73.8115 109.546C73.6976 109.581 73.5962 109.632 73.5073 109.7C73.4162 109.769 73.3433 109.853 73.2886 109.953C73.2362 110.053 73.21 110.17 73.21 110.302C73.2122 110.445 73.2487 110.567 73.3193 110.667C73.39 110.765 73.48 110.849 73.5894 110.917C73.6965 110.985 73.8127 111.042 73.938 111.088C74.0656 111.133 74.1852 111.173 74.2969 111.208C74.4814 111.264 74.666 111.334 74.8506 111.416C75.0352 111.496 75.2038 111.598 75.3564 111.724C75.5068 111.84 75.6276 111.982 75.7188 112.151C75.8122 112.319 75.8589 112.514 75.8589 112.735C75.8589 112.959 75.8088 113.153 75.7085 113.32C75.6105 113.486 75.4829 113.624 75.3257 113.733C75.1685 113.845 74.9907 113.929 74.7925 113.986C74.5942 114.041 74.396 114.068 74.1978 114.068C73.9608 114.068 73.7272 114.028 73.4971 113.949C73.2692 113.869 73.071 113.754 72.9023 113.604C72.752 113.474 72.6323 113.322 72.5435 113.149C72.4569 112.973 72.4102 112.779 72.4033 112.564H73.0493C73.0698 112.719 73.112 112.857 73.1758 112.978C73.2396 113.097 73.3216 113.197 73.4219 113.279C73.5221 113.363 73.6372 113.427 73.7671 113.47C73.8993 113.511 74.0428 113.532 74.1978 113.532C74.3208 113.532 74.4416 113.517 74.5601 113.487C74.6808 113.455 74.7879 113.406 74.8813 113.34C74.9748 113.277 75.0511 113.196 75.1104 113.098C75.1696 112.997 75.1992 112.879 75.1992 112.742ZM80.1553 109.563H78.6172V114H78.002V109.563H76.4639V109.023H80.1553V109.563Z" fill="black"/>
<path d="M31.1538 168.711H29.4927L29.0928 170H28.4604L30.0669 165.023H30.5967L32.1758 170H31.5469L31.1538 168.711ZM29.6636 168.161H30.9863L30.3301 166.001L29.6636 168.161ZM36.2056 168.503C36.1759 168.733 36.1167 168.945 36.0278 169.139C35.939 169.33 35.8239 169.494 35.6826 169.631C35.5391 169.77 35.3693 169.878 35.1733 169.956C34.9797 170.031 34.7632 170.068 34.5239 170.068C34.3188 170.068 34.132 170.04 33.9634 169.983C33.797 169.924 33.6489 169.843 33.519 169.74C33.3869 169.638 33.2729 169.517 33.1772 169.378C33.0838 169.239 33.0063 169.087 32.9448 168.923C32.881 168.759 32.8332 168.587 32.8013 168.407C32.7716 168.227 32.7557 168.045 32.7534 167.86V167.167C32.7557 166.982 32.7716 166.8 32.8013 166.62C32.8332 166.44 32.881 166.268 32.9448 166.104C33.0063 165.939 33.0838 165.788 33.1772 165.649C33.2729 165.508 33.3869 165.386 33.519 165.283C33.6489 165.181 33.797 165.101 33.9634 165.044C34.1297 164.985 34.3166 164.955 34.5239 164.955C34.7723 164.955 34.9945 164.994 35.1904 165.071C35.3864 165.146 35.555 165.254 35.6963 165.393C35.8376 165.534 35.9504 165.702 36.0347 165.898C36.1213 166.094 36.1782 166.311 36.2056 166.548H35.5732C35.5527 166.397 35.5174 166.257 35.4673 166.127C35.4172 165.998 35.3499 165.884 35.2656 165.786C35.1813 165.688 35.0776 165.611 34.9546 165.557C34.8338 165.5 34.6903 165.471 34.5239 165.471C34.3735 165.471 34.2402 165.496 34.124 165.546C34.0101 165.594 33.9121 165.66 33.8301 165.745C33.7458 165.829 33.6751 165.927 33.6182 166.039C33.5635 166.15 33.519 166.269 33.4849 166.394C33.4507 166.519 33.4256 166.648 33.4097 166.78C33.396 166.91 33.3892 167.037 33.3892 167.16V167.86C33.3892 167.983 33.396 168.111 33.4097 168.243C33.4256 168.373 33.4507 168.501 33.4849 168.626C33.519 168.754 33.5635 168.873 33.6182 168.985C33.6729 169.097 33.7424 169.194 33.8267 169.279C33.911 169.365 34.0101 169.434 34.124 169.484C34.238 169.532 34.3713 169.556 34.5239 169.556C34.6903 169.556 34.8338 169.529 34.9546 169.477C35.0776 169.425 35.1813 169.351 35.2656 169.255C35.3499 169.161 35.4172 169.051 35.4673 168.923C35.5174 168.793 35.5527 168.653 35.5732 168.503H36.2056ZM40.543 165.563H39.0049V170H38.3896V165.563H36.8516V165.023H40.543V165.563ZM41.3906 165.023H44.3984V165.574H43.2056V169.453H44.3984V170H41.3906V169.453H42.5562V165.574H41.3906V165.023ZM46.8149 170L45.2427 165.023H45.9194L47.0132 168.739L47.085 168.981L47.1602 168.732L48.2607 165.023H48.9341L47.3652 170H46.8149ZM52.1743 168.711H50.5132L50.1133 170H49.481L51.0874 165.023H51.6172L53.1963 170H52.5674L52.1743 168.711ZM50.6841 168.161H52.0068L51.3506 166.001L50.6841 168.161ZM57.3594 165.563H55.8213V170H55.2061V165.563H53.668V165.023H57.3594V165.563ZM60.9448 167.7H58.8667V169.463H61.29V170H58.2344V165.023H61.2593V165.563H58.8667V167.163H60.9448V167.7Z" fill="black"/>
<path d="M6.67285 56.0039V58H6.04053V53.0234H7.65381C7.87712 53.028 8.08789 53.0633 8.28613 53.1294C8.48665 53.1955 8.66211 53.2912 8.8125 53.4165C8.96289 53.5418 9.08138 53.6968 9.16797 53.8813C9.25684 54.0659 9.30127 54.2778 9.30127 54.5171C9.30127 54.7563 9.25684 54.9683 9.16797 55.1528C9.08138 55.3351 8.96289 55.4889 8.8125 55.6143C8.66211 55.7396 8.48665 55.8353 8.28613 55.9014C8.08789 55.9674 7.87712 56.0016 7.65381 56.0039H6.67285ZM6.67285 55.4844H7.65381C7.79964 55.4821 7.93408 55.4593 8.05713 55.416C8.18018 55.3704 8.28727 55.3066 8.37842 55.2246C8.46956 55.1426 8.5402 55.0435 8.59033 54.9272C8.64274 54.8088 8.66895 54.6743 8.66895 54.5239C8.66895 54.3735 8.64274 54.238 8.59033 54.1172C8.5402 53.9964 8.4707 53.8939 8.38184 53.8096C8.29069 53.7253 8.18245 53.6603 8.05713 53.6147C7.93408 53.5692 7.79964 53.5452 7.65381 53.543H6.67285V55.4844ZM12.9243 55.6997H10.8462V57.4634H13.2695V58H10.2139V53.0234H13.2388V53.5635H10.8462V55.1631H12.9243V55.6997ZM16.0381 55.9697H15.0435V58H14.4146V53.0234H15.874C16.1064 53.028 16.3252 53.061 16.5303 53.1226C16.7354 53.1841 16.9154 53.2764 17.0703 53.3994C17.223 53.5225 17.3426 53.6774 17.4292 53.8643C17.5181 54.0488 17.5625 54.2664 17.5625 54.5171C17.5625 54.6789 17.5386 54.827 17.4907 54.9614C17.4451 55.0959 17.3813 55.2178 17.2993 55.3271C17.2173 55.4365 17.1193 55.5334 17.0054 55.6177C16.8914 55.702 16.7661 55.7738 16.6294 55.833L17.6855 57.959L17.6821 58H17.0156L16.0381 55.9697ZM15.0435 55.4502H15.8911C16.0324 55.4479 16.1657 55.4263 16.291 55.3853C16.4163 55.342 16.5269 55.2804 16.6226 55.2007C16.716 55.1209 16.79 55.0241 16.8447 54.9102C16.8994 54.7939 16.9268 54.6606 16.9268 54.5103C16.9268 54.3507 16.9006 54.2118 16.8481 54.0933C16.7957 53.9725 16.7228 53.8711 16.6294 53.7891C16.536 53.7093 16.4243 53.6489 16.2944 53.6079C16.1668 53.5669 16.0267 53.5452 15.874 53.543H15.0435V55.4502ZM18.5947 53.0234H21.6025V53.5737H20.4097V57.4531H21.6025V58H18.5947V57.4531H19.7603V53.5737H18.5947V53.0234ZM26.0356 55.7988C26.0334 55.9766 26.0174 56.1566 25.9878 56.3389C25.9604 56.5189 25.9172 56.6932 25.8579 56.8618C25.7987 57.0304 25.7223 57.1877 25.6289 57.3335C25.5378 57.4793 25.4284 57.6069 25.3008 57.7163C25.1732 57.8257 25.0262 57.9123 24.8599 57.9761C24.6958 58.0376 24.5112 58.0684 24.3062 58.0684C24.1011 58.0684 23.9154 58.0376 23.749 57.9761C23.585 57.9123 23.4391 57.8257 23.3115 57.7163C23.1839 57.6069 23.0734 57.4793 22.98 57.3335C22.8866 57.1854 22.8102 57.027 22.751 56.8584C22.6895 56.6898 22.6439 56.5155 22.6143 56.3354C22.5846 56.1554 22.5687 55.9766 22.5664 55.7988V55.2314C22.5687 55.0537 22.5835 54.8748 22.6108 54.6948C22.6405 54.5125 22.686 54.3371 22.7476 54.1685C22.8068 53.9998 22.882 53.8426 22.9731 53.6968C23.0666 53.5487 23.1771 53.4188 23.3047 53.3071C23.4323 53.1978 23.5781 53.1123 23.7422 53.0508C23.9085 52.987 24.0942 52.9551 24.2993 52.9551C24.5044 52.9551 24.6901 52.987 24.8564 53.0508C25.0228 53.1123 25.1698 53.1978 25.2974 53.3071C25.425 53.4165 25.5343 53.5452 25.6255 53.6934C25.7189 53.8392 25.7964 53.9964 25.8579 54.165C25.9172 54.3337 25.9604 54.5091 25.9878 54.6914C26.0174 54.8737 26.0334 55.0537 26.0356 55.2314V55.7988ZM25.4102 55.2246C25.4079 55.1061 25.3999 54.9831 25.3862 54.8555C25.3726 54.7256 25.3498 54.5968 25.3179 54.4692C25.2837 54.3439 25.2393 54.2243 25.1846 54.1104C25.1299 53.9941 25.0615 53.8916 24.9795 53.8027C24.8975 53.7161 24.8006 53.6478 24.689 53.5977C24.5773 53.5452 24.4474 53.519 24.2993 53.519C24.1535 53.519 24.0247 53.5452 23.9131 53.5977C23.8014 53.6501 23.7046 53.7196 23.6226 53.8062C23.5405 53.895 23.4722 53.9976 23.4175 54.1138C23.3628 54.2277 23.3195 54.3473 23.2876 54.4727C23.2534 54.6003 23.2284 54.729 23.2124 54.8589C23.1987 54.9865 23.1908 55.1084 23.1885 55.2246V55.7988C23.1908 55.915 23.1987 56.0381 23.2124 56.168C23.2284 56.2979 23.2534 56.4255 23.2876 56.5508C23.3218 56.6784 23.3662 56.8003 23.4209 56.9165C23.4756 57.0327 23.5439 57.1341 23.626 57.2207C23.708 57.3096 23.8049 57.3802 23.9165 57.4326C24.0282 57.485 24.158 57.5112 24.3062 57.5112C24.4543 57.5112 24.5841 57.485 24.6958 57.4326C24.8097 57.3802 24.9077 57.3096 24.9897 57.2207C25.0695 57.1341 25.1356 57.0339 25.188 56.9199C25.2427 56.8037 25.2871 56.6818 25.3213 56.5542C25.3532 56.4289 25.3748 56.3013 25.3862 56.1714C25.3999 56.0415 25.4079 55.9173 25.4102 55.7988V55.2246ZM26.938 58V53.0234H28.0898C28.2835 53.0257 28.4658 53.0462 28.6367 53.085C28.8099 53.1214 28.9694 53.1738 29.1152 53.2422C29.318 53.3356 29.4969 53.4587 29.6519 53.6113C29.8091 53.7617 29.9344 53.936 30.0278 54.1343C30.1121 54.3029 30.1759 54.4875 30.2192 54.688C30.2648 54.8885 30.2887 55.1027 30.291 55.3306V55.6963C30.291 55.915 30.2694 56.1224 30.2261 56.3184C30.1851 56.5143 30.1247 56.6943 30.0449 56.8584C29.9629 57.0293 29.8592 57.1842 29.7339 57.3232C29.6086 57.4622 29.4684 57.5807 29.3135 57.6787C29.1494 57.7812 28.9637 57.8599 28.7563 57.9146C28.5513 57.9692 28.3291 57.9977 28.0898 58H26.938ZM27.5806 53.543V57.4839H28.0898C28.2721 57.4816 28.4373 57.4588 28.5854 57.4155C28.7358 57.3722 28.8691 57.3107 28.9854 57.231C29.1084 57.1489 29.2144 57.0487 29.3032 56.9302C29.3944 56.8094 29.4661 56.675 29.5186 56.5269C29.5641 56.4061 29.5983 56.2762 29.6211 56.1372C29.6439 55.9959 29.6564 55.849 29.6587 55.6963V55.3237C29.6564 55.1688 29.6427 55.0207 29.6177 54.8794C29.5949 54.7358 29.5596 54.6025 29.5117 54.4795C29.4502 54.32 29.367 54.1764 29.2622 54.0488C29.1597 53.9189 29.0332 53.8141 28.8828 53.7344C28.7757 53.6751 28.6561 53.6296 28.5239 53.5977C28.3918 53.5635 28.2471 53.5452 28.0898 53.543H27.5806Z" fill="black"/>
<path d="M40.543 277.563H39.0049V282H38.3896V277.563H36.8516V277.023H40.543V277.563ZM44.5112 282H43.9131V279.7H41.8726V282H41.2778V277.023H41.8726V279.163H43.9131V277.023H44.5112V282ZM47.2422 279.97H46.2476V282H45.6187V277.023H47.0781C47.3105 277.028 47.5293 277.061 47.7344 277.123C47.9395 277.184 48.1195 277.276 48.2744 277.399C48.4271 277.522 48.5467 277.677 48.6333 277.864C48.7222 278.049 48.7666 278.266 48.7666 278.517C48.7666 278.679 48.7427 278.827 48.6948 278.961C48.6493 279.096 48.5854 279.218 48.5034 279.327C48.4214 279.437 48.3234 279.533 48.2095 279.618C48.0955 279.702 47.9702 279.774 47.8335 279.833L48.8896 281.959L48.8862 282H48.2197L47.2422 279.97ZM46.2476 279.45H47.0952C47.2365 279.448 47.3698 279.426 47.4951 279.385C47.6204 279.342 47.731 279.28 47.8267 279.201C47.9201 279.121 47.9941 279.024 48.0488 278.91C48.1035 278.794 48.1309 278.661 48.1309 278.51C48.1309 278.351 48.1047 278.212 48.0522 278.093C47.9998 277.972 47.9269 277.871 47.8335 277.789C47.7401 277.709 47.6284 277.649 47.4985 277.608C47.3709 277.567 47.2308 277.545 47.0781 277.543H46.2476V279.45ZM52.9229 277.023L52.9297 280.394C52.9297 280.626 52.8887 280.844 52.8066 281.046C52.7246 281.249 52.6118 281.426 52.4683 281.576C52.3247 281.729 52.1538 281.85 51.9556 281.938C51.7573 282.025 51.5397 282.068 51.3027 282.068C51.0612 282.068 50.8413 282.025 50.6431 281.938C50.4448 281.852 50.2751 281.732 50.1338 281.58C49.9925 281.429 49.882 281.253 49.8022 281.05C49.7225 280.845 49.6815 280.626 49.6792 280.394L49.686 277.023H50.2876L50.3013 280.394C50.3035 280.542 50.3263 280.684 50.3696 280.821C50.4152 280.958 50.4801 281.078 50.5645 281.183C50.6465 281.288 50.749 281.372 50.8721 281.436C50.9974 281.5 51.141 281.532 51.3027 281.532C51.4645 281.532 51.6069 281.501 51.73 281.439C51.853 281.376 51.9567 281.29 52.041 281.183C52.123 281.078 52.1857 280.958 52.229 280.821C52.2723 280.684 52.2962 280.542 52.3008 280.394L52.311 277.023H52.9229Z" fill="black"/>
<path d="M26.7227 23.5195H25.0176V27H23.9395V18.4688H26.4414C26.8398 18.4766 27.2148 18.5332 27.5664 18.6387C27.918 18.7441 28.2266 18.9023 28.4922 19.1133C28.7539 19.3242 28.959 19.5898 29.1074 19.9102C29.2598 20.2266 29.3359 20.5996 29.3359 21.0293C29.3359 21.3066 29.2949 21.5605 29.2129 21.791C29.1348 22.0215 29.0254 22.2305 28.8848 22.418C28.7441 22.6055 28.5762 22.7715 28.3809 22.916C28.1855 23.0605 27.9707 23.1836 27.7363 23.2852L29.5469 26.9297L29.541 27H28.3984L26.7227 23.5195ZM25.0176 22.6289H26.4707C26.7129 22.625 26.9414 22.5879 27.1562 22.5176C27.3711 22.4434 27.5605 22.3379 27.7246 22.2012C27.8848 22.0645 28.0117 21.8984 28.1055 21.7031C28.1992 21.5039 28.2461 21.2754 28.2461 21.0176C28.2461 20.7441 28.2012 20.5059 28.1113 20.3027C28.0215 20.0957 27.8965 19.9219 27.7363 19.7812C27.5762 19.6445 27.3848 19.541 27.1621 19.4707C26.9434 19.4004 26.7031 19.3633 26.4414 19.3594H25.0176V22.6289ZM35.7988 23.0566H32.2363V26.0801H36.3906V27H31.1523V18.4688H36.3379V19.3945H32.2363V22.1367H35.7988V23.0566ZM39.4961 23.5781V27H38.4121V18.4688H41.1777C41.5605 18.4766 41.9219 18.5371 42.2617 18.6504C42.6055 18.7637 42.9062 18.9277 43.1641 19.1426C43.4219 19.3574 43.625 19.623 43.7734 19.9395C43.9258 20.2559 44.002 20.6191 44.002 21.0293C44.002 21.4395 43.9258 21.8027 43.7734 22.1191C43.625 22.4316 43.4219 22.6953 43.1641 22.9102C42.9062 23.125 42.6055 23.2891 42.2617 23.4023C41.9219 23.5156 41.5605 23.5742 41.1777 23.5781H39.4961ZM39.4961 22.6875H41.1777C41.4277 22.6836 41.6582 22.6445 41.8691 22.5703C42.0801 22.4922 42.2637 22.3828 42.4199 22.2422C42.5762 22.1016 42.6973 21.9316 42.7832 21.7324C42.873 21.5293 42.918 21.2988 42.918 21.041C42.918 20.7832 42.873 20.5508 42.7832 20.3438C42.6973 20.1367 42.5781 19.9609 42.4258 19.8164C42.2695 19.6719 42.084 19.5605 41.8691 19.4824C41.6582 19.4043 41.4277 19.3633 41.1777 19.3594H39.4961V22.6875ZM50.2129 23.0566H46.6504V26.0801H50.8047V27H45.5664V18.4688H50.752V19.3945H46.6504V22.1367H50.2129V23.0566ZM56.7988 24.791H53.9512L53.2656 27H52.1816L54.9355 18.4688H55.8438L58.5508 27H57.4727L56.7988 24.791ZM54.2441 23.8477H56.5117L55.3867 20.1445L54.2441 23.8477ZM65.6875 19.3945H63.0508V27H61.9961V19.3945H59.3594V18.4688H65.6875V19.3945Z" fill="black"/>
<circle cx="72" cy="134" r="12" fill="#A6A6A6"/>
<circle cx="18" cy="134" r="12" fill="#A6A6A6"/>
<circle cx="18" cy="78" r="12" fill="#A6A6A6"/>
<path d="M63.2056 56.5029C63.1759 56.7331 63.1167 56.945 63.0278 57.1387C62.939 57.3301 62.8239 57.4941 62.6826 57.6309C62.5391 57.7699 62.3693 57.8781 62.1733 57.9556C61.9797 58.0308 61.7632 58.0684 61.5239 58.0684C61.3188 58.0684 61.132 58.0399 60.9634 57.9829C60.797 57.9237 60.6489 57.8428 60.519 57.7402C60.3869 57.6377 60.2729 57.5169 60.1772 57.3779C60.0838 57.2389 60.0063 57.0874 59.9448 56.9233C59.881 56.7593 59.8332 56.5872 59.8013 56.4072C59.7716 56.2272 59.7557 56.0449 59.7534 55.8604V55.1665C59.7557 54.9819 59.7716 54.7996 59.8013 54.6196C59.8332 54.4396 59.881 54.2676 59.9448 54.1035C60.0063 53.9395 60.0838 53.7879 60.1772 53.6489C60.2729 53.5076 60.3869 53.3857 60.519 53.2832C60.6489 53.1807 60.797 53.1009 60.9634 53.0439C61.1297 52.9847 61.3166 52.9551 61.5239 52.9551C61.7723 52.9551 61.9945 52.9938 62.1904 53.0713C62.3864 53.1465 62.555 53.2536 62.6963 53.3926C62.8376 53.5339 62.9504 53.7025 63.0347 53.8984C63.1213 54.0944 63.1782 54.3109 63.2056 54.5479H62.5732C62.5527 54.3975 62.5174 54.2573 62.4673 54.1274C62.4172 53.9976 62.3499 53.8836 62.2656 53.7856C62.1813 53.6877 62.0776 53.6113 61.9546 53.5566C61.8338 53.4997 61.6903 53.4712 61.5239 53.4712C61.3735 53.4712 61.2402 53.4963 61.124 53.5464C61.0101 53.5942 60.9121 53.6603 60.8301 53.7446C60.7458 53.8289 60.6751 53.9269 60.6182 54.0386C60.5635 54.1502 60.519 54.2687 60.4849 54.394C60.4507 54.5194 60.4256 54.6481 60.4097 54.7803C60.396 54.9102 60.3892 55.0366 60.3892 55.1597V55.8604C60.3892 55.9834 60.396 56.111 60.4097 56.2432C60.4256 56.373 60.4507 56.5007 60.4849 56.626C60.519 56.7536 60.5635 56.8732 60.6182 56.9849C60.6729 57.0965 60.7424 57.1945 60.8267 57.2788C60.911 57.3654 61.0101 57.4338 61.124 57.4839C61.238 57.5317 61.3713 57.5557 61.5239 57.5557C61.6903 57.5557 61.8338 57.5295 61.9546 57.4771C62.0776 57.4246 62.1813 57.3506 62.2656 57.2549C62.3499 57.1615 62.4172 57.0509 62.4673 56.9233C62.5174 56.7935 62.5527 56.6533 62.5732 56.5029H63.2056ZM67.3071 58H66.709V55.6997H64.6685V58H64.0737V53.0234H64.6685V55.1631H66.709V53.0234H67.3071V58ZM70.7661 56.7114H69.105L68.7051 58H68.0728L69.6792 53.0234H70.209L71.7881 58H71.1592L70.7661 56.7114ZM69.2759 56.1611H70.5986L69.9424 54.001L69.2759 56.1611ZM74.2422 55.9697H73.2476V58H72.6187V53.0234H74.0781C74.3105 53.028 74.5293 53.061 74.7344 53.1226C74.9395 53.1841 75.1195 53.2764 75.2744 53.3994C75.4271 53.5225 75.5467 53.6774 75.6333 53.8643C75.7222 54.0488 75.7666 54.2664 75.7666 54.5171C75.7666 54.6789 75.7427 54.827 75.6948 54.9614C75.6493 55.0959 75.5854 55.2178 75.5034 55.3271C75.4214 55.4365 75.3234 55.5334 75.2095 55.6177C75.0955 55.702 74.9702 55.7738 74.8335 55.833L75.8896 57.959L75.8862 58H75.2197L74.2422 55.9697ZM73.2476 55.4502H74.0952C74.2365 55.4479 74.3698 55.4263 74.4951 55.3853C74.6204 55.342 74.731 55.2804 74.8267 55.2007C74.9201 55.1209 74.9941 55.0241 75.0488 54.9102C75.1035 54.7939 75.1309 54.6606 75.1309 54.5103C75.1309 54.3507 75.1047 54.2118 75.0522 54.0933C74.9998 53.9725 74.9269 53.8711 74.8335 53.7891C74.7401 53.7093 74.6284 53.6489 74.4985 53.6079C74.3709 53.5669 74.2308 53.5452 74.0781 53.543H73.2476V55.4502ZM80.0186 57.3472C79.9411 57.4383 79.859 57.5215 79.7725 57.5967C79.6859 57.6696 79.5959 57.7334 79.5024 57.7881C79.3429 57.8838 79.1709 57.9544 78.9863 58C78.8018 58.0479 78.6081 58.0706 78.4053 58.0684C78.2002 58.0661 78.0111 58.0353 77.8379 57.9761C77.667 57.9146 77.5132 57.8302 77.3765 57.7231C77.2397 57.6183 77.1201 57.4941 77.0176 57.3506C76.915 57.207 76.8296 57.0509 76.7612 56.8823C76.6906 56.716 76.637 56.5417 76.6006 56.3594C76.5664 56.1748 76.5482 55.9891 76.5459 55.8022V55.2246C76.5482 55.04 76.5641 54.8566 76.5938 54.6743C76.6257 54.4897 76.6735 54.3132 76.7373 54.1445C76.8011 53.9759 76.8809 53.8198 76.9766 53.6763C77.0723 53.5304 77.1873 53.404 77.3218 53.2969C77.4539 53.1921 77.6043 53.1089 77.7729 53.0474C77.9416 52.9858 78.1307 52.9551 78.3403 52.9551C78.5728 52.9551 78.7869 52.9915 78.9829 53.0645C79.1789 53.1351 79.3498 53.2365 79.4956 53.3687C79.6414 53.5031 79.7588 53.6649 79.8477 53.854C79.9365 54.0409 79.9912 54.2505 80.0117 54.4829H79.3862C79.3612 54.3394 79.3224 54.2072 79.27 54.0864C79.2176 53.9634 79.1493 53.8586 79.0649 53.772C78.9784 53.6854 78.8758 53.6182 78.7573 53.5703C78.6388 53.5202 78.501 53.4951 78.3438 53.4951C78.1934 53.4951 78.0601 53.5213 77.9438 53.5737C77.8276 53.6239 77.7262 53.6922 77.6396 53.7788C77.5531 53.8654 77.4813 53.9668 77.4243 54.083C77.3674 54.1969 77.3206 54.3177 77.2842 54.4453C77.2477 54.5729 77.2215 54.7028 77.2056 54.835C77.1896 54.9671 77.1816 55.0947 77.1816 55.2178V55.8022C77.1839 55.9276 77.1942 56.0575 77.2124 56.1919C77.2329 56.3241 77.2637 56.4539 77.3047 56.5815C77.3457 56.7091 77.3981 56.8299 77.4619 56.9438C77.5257 57.0578 77.6032 57.158 77.6943 57.2446C77.7832 57.3312 77.8869 57.4007 78.0054 57.4531C78.1239 57.5033 78.2583 57.5295 78.4087 57.5317C78.4953 57.534 78.5853 57.5306 78.6787 57.5215C78.7744 57.5124 78.8667 57.4941 78.9556 57.4668C79.0444 57.4395 79.1276 57.403 79.2051 57.3574C79.2826 57.3096 79.3475 57.248 79.3999 57.1729L79.4067 56.0552H78.395V55.522H80.0083L80.0186 57.3472ZM83.7407 55.6997H81.6626V57.4634H84.0859V58H81.0303V53.0234H84.0552V53.5635H81.6626V55.1631H83.7407V55.6997Z" fill="black"/>
<circle cx="72" cy="78" r="12" fill="#897C9A"/>
<circle cx="45" cy="302" r="12" fill="white"/>
<circle cx="45" cy="299" r="3.5" fill="#F5F5F5" stroke="#404040"/>
<circle cx="45" cy="305" r="3.5" fill="#F5F5F5" stroke="#404040"/>
<mask id="path-17-inside-1_0_1" fill="white">
<path d="M41 299H49V305H41V299Z"/>
</mask>
<path d="M41 299H49V305H41V299Z" fill="#F5F5F5"/>
<path d="M48 299V305H50V299H48ZM42 305V299H40V305H42Z" fill="#404040" mask="url(#path-17-inside-1_0_1)"/>
<circle cx="45" cy="305" r="2" fill="#404040"/>
<circle cx="18" cy="190" r="12" fill="white"/>
<circle cx="18" cy="187" r="3.5" fill="#E4EC8F" stroke="#404040"/>
<circle cx="18" cy="193" r="3.5" fill="#E4EC8F" stroke="#404040"/>
<mask id="path-23-inside-2_0_1" fill="white">
<path d="M14 187H22V193H14V187Z"/>
</mask>
<path d="M14 187H22V193H14V187Z" fill="#E4EC8F"/>
<path d="M21 187V193H23V187H21ZM15 193V187H13V193H15Z" fill="#404040" mask="url(#path-23-inside-2_0_1)"/>
<circle cx="18" cy="187" r="2" fill="#404040"/>
</g>
<circle cx="45" cy="190" r="12" fill="#D9D9D9"/>
<circle cx="72" cy="190" r="6" fill="#E4EC8F"/>
<circle cx="45" cy="78" r="6" fill="#E4EC8F"/>
<circle cx="45" cy="134" r="6" fill="#E4EC8F"/>
<circle cx="72" cy="246" r="12" fill="#D9D9D9"/>
<circle cx="18" cy="246" r="12" fill="#D9D9D9"/>
<circle cx="18" cy="302" r="12" fill="#D9D9D9"/>
<circle cx="72" cy="302" r="12" fill="#897C9A"/>
<path d="M69.5254 279.799C69.5231 279.977 69.5072 280.157 69.4775 280.339C69.4502 280.519 69.4069 280.693 69.3477 280.862C69.2884 281.03 69.2121 281.188 69.1187 281.333C69.0275 281.479 68.9181 281.607 68.7905 281.716C68.6629 281.826 68.516 281.912 68.3496 281.976C68.1855 282.038 68.001 282.068 67.7959 282.068C67.5908 282.068 67.4051 282.038 67.2388 281.976C67.0747 281.912 66.9289 281.826 66.8013 281.716C66.6737 281.607 66.5632 281.479 66.4697 281.333C66.3763 281.185 66.3 281.027 66.2407 280.858C66.1792 280.69 66.1336 280.515 66.104 280.335C66.0744 280.155 66.0584 279.977 66.0562 279.799V279.231C66.0584 279.054 66.0732 278.875 66.1006 278.695C66.1302 278.513 66.1758 278.337 66.2373 278.168C66.2965 278 66.3717 277.843 66.4629 277.697C66.5563 277.549 66.6668 277.419 66.7944 277.307C66.922 277.198 67.0679 277.112 67.2319 277.051C67.3983 276.987 67.584 276.955 67.7891 276.955C67.9941 276.955 68.1799 276.987 68.3462 277.051C68.5125 277.112 68.6595 277.198 68.7871 277.307C68.9147 277.417 69.0241 277.545 69.1152 277.693C69.2087 277.839 69.2861 277.996 69.3477 278.165C69.4069 278.334 69.4502 278.509 69.4775 278.691C69.5072 278.874 69.5231 279.054 69.5254 279.231V279.799ZM68.8999 279.225C68.8976 279.106 68.8896 278.983 68.876 278.855C68.8623 278.726 68.8395 278.597 68.8076 278.469C68.7734 278.344 68.729 278.224 68.6743 278.11C68.6196 277.994 68.5513 277.892 68.4692 277.803C68.3872 277.716 68.2904 277.648 68.1787 277.598C68.0671 277.545 67.9372 277.519 67.7891 277.519C67.6432 277.519 67.5145 277.545 67.4028 277.598C67.2912 277.65 67.1943 277.72 67.1123 277.806C67.0303 277.895 66.9619 277.998 66.9072 278.114C66.8525 278.228 66.8092 278.347 66.7773 278.473C66.7432 278.6 66.7181 278.729 66.7021 278.859C66.6885 278.986 66.6805 279.108 66.6782 279.225V279.799C66.6805 279.915 66.6885 280.038 66.7021 280.168C66.7181 280.298 66.7432 280.425 66.7773 280.551C66.8115 280.678 66.856 280.8 66.9106 280.917C66.9653 281.033 67.0337 281.134 67.1157 281.221C67.1978 281.31 67.2946 281.38 67.4062 281.433C67.5179 281.485 67.6478 281.511 67.7959 281.511C67.944 281.511 68.0739 281.485 68.1855 281.433C68.2995 281.38 68.3975 281.31 68.4795 281.221C68.5592 281.134 68.6253 281.034 68.6777 280.92C68.7324 280.804 68.7769 280.682 68.811 280.554C68.8429 280.429 68.8646 280.301 68.876 280.171C68.8896 280.042 68.8976 279.917 68.8999 279.799V279.225ZM73.6167 277.023L73.6235 280.394C73.6235 280.626 73.5825 280.844 73.5005 281.046C73.4185 281.249 73.3057 281.426 73.1621 281.576C73.0186 281.729 72.8477 281.85 72.6494 281.938C72.4512 282.025 72.2336 282.068 71.9966 282.068C71.755 282.068 71.5352 282.025 71.3369 281.938C71.1387 281.852 70.9689 281.732 70.8276 281.58C70.6864 281.429 70.5758 281.253 70.4961 281.05C70.4163 280.845 70.3753 280.626 70.373 280.394L70.3799 277.023H70.9814L70.9951 280.394C70.9974 280.542 71.0202 280.684 71.0635 280.821C71.109 280.958 71.174 281.078 71.2583 281.183C71.3403 281.288 71.4429 281.372 71.5659 281.436C71.6912 281.5 71.8348 281.532 71.9966 281.532C72.1584 281.532 72.3008 281.501 72.4238 281.439C72.5469 281.376 72.6506 281.29 72.7349 281.183C72.8169 281.078 72.8796 280.958 72.9229 280.821C72.9661 280.684 72.9901 280.542 72.9946 280.394L73.0049 277.023H73.6167ZM78.0532 277.563H76.5151V282H75.8999V277.563H74.3618V277.023H78.0532V277.563Z" fill="black"/>
<path d="M14.3906 277.023H17.3984V277.574H16.2056V281.453H17.3984V282H14.3906V281.453H15.5562V277.574H14.3906V277.023ZM21.7119 282H21.0693L19.1382 278.281L19.1279 282H18.4888V277.023H19.1313L21.0625 280.735L21.0728 277.023H21.7119V282Z" fill="black"/>
<defs>
<clipPath id="clip0_0_1">
<rect width="90" height="374" fill="white" transform="translate(0 3)"/>
</clipPath>
</defs>
</svg>
