<?xml version="1.0" encoding="UTF-8" standalone="no"?>
<svg
   width="90"
   height="380"
   viewBox="0 0 90 380"
   fill="none"
   version="1.1"
   id="svg32"
   sodipodi:docname="Repeat.svg"
   inkscape:version="1.3 (0e150ed, 2023-07-21)"
   xmlns:inkscape="http://www.inkscape.org/namespaces/inkscape"
   xmlns:sodipodi="http://sodipodi.sourceforge.net/DTD/sodipodi-0.dtd"
   xmlns="http://www.w3.org/2000/svg"
   xmlns:svg="http://www.w3.org/2000/svg">
  <sodipodi:namedview
     id="namedview32"
     pagecolor="#ffffff"
     bordercolor="#000000"
     borderopacity="0.25"
     inkscape:showpageshadow="2"
     inkscape:pageopacity="0.0"
     inkscape:pagecheckerboard="0"
     inkscape:deskcolor="#d1d1d1"
     inkscape:zoom="1.2380947"
     inkscape:cx="19.384623"
     inkscape:cy="229.78856"
     inkscape:window-width="1312"
     inkscape:window-height="844"
     inkscape:window-x="0"
     inkscape:window-y="39"
     inkscape:window-maximized="0"
     inkscape:current-layer="svg32" />
  <rect
     width="90"
     height="380"
     fill="#ffffff"
     id="rect2"
     x="0"
     y="0"
     style="display:inline" />
  <path
     d="m 11.3076,224.503 c -0.0296,0.23 -0.0888,0.442 -0.1777,0.636 -0.0889,0.191 -0.204,0.355 -0.3452,0.492 -0.1436,0.139 -0.3133,0.247 -0.5093,0.325 -0.1937,0.075 -0.41017,0.112 -0.64942,0.112 -0.20508,0 -0.39193,-0.028 -0.56055,-0.085 C 8.89909,225.924 8.75098,225.843 8.62109,225.74 8.48893,225.638 8.375,225.517 8.2793,225.378 8.18587,225.239 8.1084,225.087 8.04688,224.923 7.98307,224.759 7.93522,224.587 7.90332,224.407 7.8737,224.227 7.85775,224.045 7.85547,223.86 v -0.693 c 0.00228,-0.185 0.01823,-0.367 0.04785,-0.547 0.0319,-0.18 0.07975,-0.352 0.14356,-0.516 0.06152,-0.165 0.13899,-0.316 0.23242,-0.455 0.0957,-0.141 0.20963,-0.263 0.34179,-0.366 0.12989,-0.102 0.278,-0.182 0.44434,-0.239 0.16634,-0.059 0.35319,-0.089 0.56055,-0.089 0.24837,0 0.47052,0.039 0.66652,0.116 0.1959,0.075 0.3646,0.183 0.5058,0.322 0.1413,0.141 0.2541,0.309 0.3384,0.505 0.0866,0.196 0.1436,0.413 0.1709,0.65 h -0.6323 c -0.0205,-0.151 -0.0558,-0.291 -0.106,-0.421 -0.0501,-0.129 -0.1173,-0.243 -0.2016,-0.341 -0.0843,-0.098 -0.188,-0.175 -0.3111,-0.229 -0.12073,-0.057 -0.26428,-0.086 -0.43062,-0.086 -0.15039,0 -0.28369,0.025 -0.39991,0.075 -0.11393,0.048 -0.21191,0.114 -0.29394,0.199 -0.08431,0.084 -0.15495,0.182 -0.21192,0.294 -0.05468,0.111 -0.09912,0.23 -0.1333,0.355 -0.03418,0.125 -0.05924,0.254 -0.07519,0.386 -0.01367,0.13 -0.02051,0.257 -0.02051,0.38 v 0.7 c 0,0.123 0.00684,0.251 0.02051,0.383 0.01595,0.13 0.04101,0.258 0.07519,0.383 0.03418,0.128 0.07862,0.247 0.1333,0.359 0.05469,0.112 0.12419,0.209 0.2085,0.294 0.08431,0.086 0.18343,0.155 0.29736,0.205 0.11394,0.048 0.24724,0.072 0.39991,0.072 0.16634,0 0.30989,-0.027 0.43062,-0.079 0.1231,-0.052 0.2268,-0.126 0.3111,-0.222 0.0843,-0.094 0.1515,-0.204 0.2016,-0.332 0.0502,-0.13 0.0855,-0.27 0.106,-0.42 z m 1.6953,0.96 h 2.4336 V 226 h -3.0659 v -4.977 h 0.6323 z m 6.7266,-1.664 c -0.0023,0.178 -0.0182,0.358 -0.0479,0.54 -0.0273,0.18 -0.0706,0.354 -0.1298,0.523 -0.0593,0.168 -0.1356,0.326 -0.229,0.471 -0.0912,0.146 -0.2006,0.274 -0.3282,0.383 -0.1276,0.11 -0.2745,0.196 -0.4409,0.26 -0.1641,0.062 -0.3486,0.092 -0.5537,0.092 -0.2051,0 -0.3908,-0.03 -0.5571,-0.092 -0.1641,-0.064 -0.3099,-0.15 -0.4375,-0.26 -0.1276,-0.109 -0.2381,-0.237 -0.3316,-0.383 -0.0934,-0.148 -0.1697,-0.306 -0.229,-0.475 -0.0615,-0.168 -0.1071,-0.343 -0.1367,-0.523 -0.0296,-0.18 -0.0456,-0.358 -0.0478,-0.536 v -0.568 c 0.0022,-0.177 0.017,-0.356 0.0444,-0.536 0.0296,-0.182 0.0752,-0.358 0.1367,-0.527 0.0593,-0.168 0.1344,-0.325 0.2256,-0.471 0.0934,-0.148 0.2039,-0.278 0.3315,-0.39 0.1276,-0.109 0.2735,-0.195 0.4375,-0.256 0.1664,-0.064 0.3521,-0.096 0.5572,-0.096 0.205,0 0.3908,0.032 0.5571,0.096 0.1663,0.061 0.3133,0.147 0.4409,0.256 0.1276,0.11 0.237,0.238 0.3281,0.386 0.0935,0.146 0.1709,0.303 0.2325,0.472 0.0592,0.169 0.1025,0.344 0.1298,0.526 0.0297,0.183 0.0456,0.363 0.0479,0.54 z m -0.6255,-0.574 c -0.0023,-0.119 -0.0102,-0.242 -0.0239,-0.37 -0.0137,-0.129 -0.0365,-0.258 -0.0684,-0.386 -0.0342,-0.125 -0.0786,-0.245 -0.1333,-0.359 -0.0547,-0.116 -0.123,-0.218 -0.2051,-0.307 -0.082,-0.087 -0.1788,-0.155 -0.2905,-0.205 -0.1116,-0.053 -0.2415,-0.079 -0.3896,-0.079 -0.1459,0 -0.2746,0.026 -0.3863,0.079 -0.1116,0.052 -0.2085,0.122 -0.2905,0.208 -0.082,0.089 -0.1504,0.192 -0.2051,0.308 -0.0547,0.114 -0.098,0.233 -0.1299,0.359 -0.0341,0.127 -0.0592,0.256 -0.0752,0.386 -0.0136,0.127 -0.0216,0.249 -0.0239,0.366 v 0.574 c 0.0023,0.116 0.0103,0.239 0.0239,0.369 0.016,0.13 0.0411,0.257 0.0752,0.383 0.0342,0.127 0.0787,0.249 0.1333,0.366 0.0547,0.116 0.1231,0.217 0.2051,0.304 0.0821,0.089 0.1789,0.159 0.2906,0.212 0.1116,0.052 0.2415,0.078 0.3896,0.078 0.1481,0 0.278,-0.026 0.3896,-0.078 0.114,-0.053 0.212,-0.123 0.294,-0.212 0.0797,-0.087 0.1458,-0.187 0.1982,-0.301 0.0547,-0.116 0.0992,-0.238 0.1333,-0.366 0.0319,-0.125 0.0536,-0.253 0.065,-0.383 0.0137,-0.129 0.0216,-0.254 0.0239,-0.372 z m 4.8159,1.278 c -0.0296,0.23 -0.0888,0.442 -0.1777,0.636 -0.0889,0.191 -0.204,0.355 -0.3452,0.492 -0.1436,0.139 -0.3133,0.247 -0.5093,0.325 -0.1937,0.075 -0.4102,0.112 -0.6494,0.112 -0.2051,0 -0.3919,-0.028 -0.5606,-0.085 -0.1663,-0.059 -0.3144,-0.14 -0.4443,-0.243 -0.1322,-0.102 -0.2461,-0.223 -0.3418,-0.362 -0.0934,-0.139 -0.1709,-0.291 -0.2324,-0.455 -0.0638,-0.164 -0.1117,-0.336 -0.1436,-0.516 -0.0296,-0.18 -0.0455,-0.362 -0.0478,-0.547 v -0.693 c 0.0023,-0.185 0.0182,-0.367 0.0478,-0.547 0.0319,-0.18 0.0798,-0.352 0.1436,-0.516 0.0615,-0.165 0.139,-0.316 0.2324,-0.455 0.0957,-0.141 0.2096,-0.263 0.3418,-0.366 0.1299,-0.102 0.278,-0.182 0.4443,-0.239 0.1664,-0.059 0.3532,-0.089 0.5606,-0.089 0.2484,0 0.4705,0.039 0.6665,0.116 0.1959,0.075 0.3646,0.183 0.5058,0.322 0.1413,0.141 0.2541,0.309 0.3384,0.505 0.0866,0.196 0.1436,0.413 0.1709,0.65 h -0.6323 c -0.0205,-0.151 -0.0558,-0.291 -0.106,-0.421 -0.0501,-0.129 -0.1173,-0.243 -0.2016,-0.341 -0.0843,-0.098 -0.188,-0.175 -0.3111,-0.229 -0.1207,-0.057 -0.2643,-0.086 -0.4306,-0.086 -0.1504,0 -0.2837,0.025 -0.3999,0.075 -0.114,0.048 -0.2119,0.114 -0.294,0.199 -0.0843,0.084 -0.1549,0.182 -0.2119,0.294 -0.0547,0.111 -0.0991,0.23 -0.1333,0.355 -0.0342,0.125 -0.0592,0.254 -0.0752,0.386 -0.0136,0.13 -0.0205,0.257 -0.0205,0.38 v 0.7 c 0,0.123 0.0069,0.251 0.0205,0.383 0.016,0.13 0.041,0.258 0.0752,0.383 0.0342,0.128 0.0786,0.247 0.1333,0.359 0.0547,0.112 0.1242,0.209 0.2085,0.294 0.0843,0.086 0.1834,0.155 0.2974,0.205 0.1139,0.048 0.2472,0.072 0.3999,0.072 0.1663,0 0.3099,-0.027 0.4306,-0.079 0.1231,-0.052 0.2268,-0.126 0.3111,-0.222 0.0843,-0.094 0.1515,-0.204 0.2016,-0.332 0.0502,-0.13 0.0855,-0.27 0.106,-0.42 z m 2.1739,-0.814 -0.5538,0.629 V 226 h -0.646 v -4.977 h 0.646 v 2.431 l 0.482,-0.602 1.4594,-1.829 h 0.7691 l -1.7398,2.178 1.856,2.799 h -0.769 z"
     fill="#000000"
     id="path3"
     clip-path="url(#clipPath54)" />
  <path
     d="M 7.62988,111.97 H 6.63525 V 114 h -0.6289 v -4.977 h 1.45947 c 0.23242,0.005 0.45117,0.038 0.65625,0.1 0.20508,0.061 0.38509,0.153 0.54004,0.276 0.15267,0.123 0.2723,0.278 0.35889,0.465 0.08886,0.185 0.1333,0.402 0.1333,0.653 0,0.162 -0.02393,0.31 -0.07178,0.444 -0.04557,0.135 -0.10938,0.257 -0.19141,0.366 -0.08203,0.11 -0.18001,0.206 -0.29394,0.291 -0.11393,0.084 -0.23926,0.156 -0.37598,0.215 L 9.27734,113.959 9.27393,114 H 8.60742 Z m -0.99463,-0.52 h 0.84766 c 0.14128,-0.002 0.27458,-0.024 0.3999,-0.065 0.12533,-0.043 0.23584,-0.105 0.33155,-0.184 0.09342,-0.08 0.16748,-0.177 0.22216,-0.291 0.05469,-0.116 0.08203,-0.249 0.08203,-0.4 0,-0.159 -0.0262,-0.298 -0.07861,-0.417 -0.05241,-0.121 -0.12532,-0.222 -0.21875,-0.304 -0.09342,-0.08 -0.20508,-0.14 -0.33496,-0.181 -0.1276,-0.041 -0.26774,-0.063 -0.42041,-0.065 H 6.63525 Z m 6.28905,0.25 h -2.0781 v 1.763 h 2.4233 V 114 h -3.0556 v -4.977 h 3.0249 v 0.54 h -2.3926 v 1.6 h 2.0781 z m 2.1568,0.304 V 114 h -0.6324 v -4.977 h 1.6133 c 0.2233,0.005 0.4341,0.04 0.6323,0.106 0.2006,0.066 0.376,0.162 0.5264,0.288 0.1504,0.125 0.2689,0.28 0.3555,0.464 0.0888,0.185 0.1333,0.397 0.1333,0.636 0,0.239 -0.0445,0.451 -0.1333,0.636 -0.0866,0.182 -0.2051,0.336 -0.3555,0.461 -0.1504,0.126 -0.3258,0.221 -0.5264,0.287 -0.1982,0.066 -0.409,0.101 -0.6323,0.103 z m 0,-0.52 h 0.9809 c 0.1458,-0.002 0.2803,-0.025 0.4033,-0.068 0.1231,-0.046 0.2302,-0.109 0.3213,-0.191 0.0912,-0.082 0.1618,-0.182 0.2119,-0.298 0.0524,-0.118 0.0786,-0.253 0.0786,-0.403 0,-0.15 -0.0262,-0.286 -0.0786,-0.407 -0.0501,-0.121 -0.1196,-0.223 -0.2085,-0.307 -0.0911,-0.085 -0.1993,-0.15 -0.3247,-0.195 -0.123,-0.046 -0.2575,-0.07 -0.4033,-0.072 h -0.9809 z m 6.2514,0.216 h -2.0781 v 1.763 h 2.4233 V 114 h -3.0556 v -4.977 h 3.0249 v 0.54 h -2.3926 v 1.6 h 2.0781 z m 3.8418,1.011 H 23.5132 L 23.1133,114 H 22.481 l 1.6064,-4.977 h 0.5298 L 26.1963,114 h -0.6289 z m -1.4902,-0.55 h 1.3227 l -0.6562,-2.16 z m 6.6753,-2.598 H 28.8213 V 114 h -0.6152 v -4.437 H 26.668 v -0.54 h 3.6914 z"
     fill="#000000"
     id="path4"
     clip-path="url(#clipPath53)" />
  <path
     d="M 63.7319,223.97 H 62.7373 V 226 h -0.6289 v -4.977 h 1.4595 c 0.2324,0.005 0.4511,0.038 0.6562,0.1 0.2051,0.061 0.3851,0.153 0.5401,0.276 0.1526,0.123 0.2723,0.278 0.3588,0.465 0.0889,0.185 0.1333,0.402 0.1333,0.653 0,0.162 -0.0239,0.31 -0.0717,0.444 -0.0456,0.135 -0.1094,0.257 -0.1914,0.366 -0.0821,0.11 -0.18,0.206 -0.294,0.291 -0.1139,0.084 -0.2392,0.156 -0.376,0.215 l 1.0562,2.126 L 65.376,226 h -0.6665 z m -0.9946,-0.52 h 0.8477 c 0.1412,-0.002 0.2745,-0.024 0.3999,-0.065 0.1253,-0.043 0.2358,-0.105 0.3315,-0.184 0.0934,-0.08 0.1675,-0.177 0.2222,-0.291 0.0547,-0.116 0.082,-0.249 0.082,-0.4 0,-0.159 -0.0262,-0.298 -0.0786,-0.417 -0.0524,-0.121 -0.1253,-0.222 -0.2188,-0.304 -0.0934,-0.08 -0.205,-0.14 -0.3349,-0.181 -0.1276,-0.041 -0.2678,-0.063 -0.4204,-0.065 h -0.8306 z m 6.2891,0.25 h -2.0782 v 1.763 h 2.4234 V 226 h -3.0557 v -4.977 h 3.0249 v 0.54 h -2.3926 v 1.6 h 2.0782 z m 4.0708,1.042 c 0,-0.152 -0.0354,-0.281 -0.106,-0.386 -0.0683,-0.105 -0.1572,-0.194 -0.2666,-0.267 -0.1094,-0.07 -0.2301,-0.13 -0.3623,-0.177 -0.1299,-0.048 -0.2552,-0.092 -0.376,-0.13 -0.1754,-0.057 -0.3543,-0.126 -0.5366,-0.205 -0.18,-0.082 -0.3441,-0.18 -0.4922,-0.294 -0.1504,-0.116 -0.2734,-0.253 -0.3691,-0.41 -0.0934,-0.16 -0.1402,-0.347 -0.1402,-0.561 0,-0.214 0.0468,-0.406 0.1402,-0.574 0.0957,-0.169 0.2199,-0.311 0.3725,-0.427 0.1527,-0.117 0.3259,-0.204 0.5196,-0.264 0.1937,-0.061 0.3885,-0.092 0.5844,-0.092 0.2165,0 0.425,0.037 0.6255,0.109 0.2006,0.071 0.3783,0.171 0.5332,0.301 0.155,0.13 0.2792,0.287 0.3726,0.472 0.0934,0.184 0.1424,0.391 0.147,0.619 h -0.6494 c -0.0183,-0.144 -0.0536,-0.274 -0.106,-0.39 -0.0524,-0.119 -0.1219,-0.22 -0.2085,-0.304 -0.0866,-0.085 -0.1903,-0.15 -0.311,-0.195 -0.1185,-0.048 -0.253,-0.072 -0.4034,-0.072 -0.1207,0 -0.2392,0.017 -0.3554,0.051 -0.114,0.035 -0.2154,0.086 -0.3042,0.154 -0.0912,0.069 -0.1641,0.153 -0.2188,0.253 -0.0524,0.1 -0.0786,0.217 -0.0786,0.349 0.0023,0.143 0.0387,0.265 0.1094,0.365 0.0706,0.098 0.1606,0.182 0.27,0.25 0.1071,0.068 0.2233,0.125 0.3486,0.171 0.1276,0.045 0.2473,0.085 0.3589,0.12 0.1846,0.056 0.3692,0.126 0.5537,0.208 0.1846,0.08 0.3532,0.182 0.5059,0.308 0.1504,0.116 0.2712,0.258 0.3623,0.427 0.0934,0.168 0.1401,0.363 0.1401,0.584 0,0.224 -0.0501,0.418 -0.1504,0.585 -0.0979,0.166 -0.2255,0.304 -0.3828,0.413 -0.1572,0.112 -0.3349,0.196 -0.5332,0.253 -0.1982,0.055 -0.3965,0.082 -0.5947,0.082 -0.237,0 -0.4705,-0.04 -0.7007,-0.119 -0.2278,-0.08 -0.4261,-0.195 -0.5947,-0.345 -0.1504,-0.13 -0.27,-0.282 -0.3589,-0.455 -0.0866,-0.176 -0.1333,-0.37 -0.1401,-0.585 h 0.646 c 0.0205,0.155 0.0626,0.293 0.1264,0.414 0.0638,0.119 0.1459,0.219 0.2461,0.301 0.1003,0.084 0.2154,0.148 0.3452,0.191 0.1322,0.041 0.2758,0.062 0.4307,0.062 0.1231,0 0.2438,-0.015 0.3623,-0.045 0.1208,-0.032 0.2279,-0.081 0.3213,-0.147 0.0934,-0.063 0.1698,-0.144 0.229,-0.242 0.0592,-0.101 0.0889,-0.219 0.0889,-0.356 z m 4.3374,-1.042 h -2.0782 v 1.763 h 2.4234 V 226 h -3.0557 v -4.977 h 3.0249 v 0.54 h -2.3926 v 1.6 h 2.0782 z m 4.8227,-2.137 H 80.7192 V 226 H 80.104 v -4.437 h -1.5381 v -0.54 h 3.6914 z"
     fill="#000000"
     id="path5"
     clip-path="url(#clipPath52)" />
  <path
     d="M 65.834,111.97 H 64.8394 V 114 h -0.629 v -4.977 h 1.4595 c 0.2324,0.005 0.4512,0.038 0.6563,0.1 0.205,0.061 0.3851,0.153 0.54,0.276 0.1527,0.123 0.2723,0.278 0.3589,0.465 0.0889,0.185 0.1333,0.402 0.1333,0.653 0,0.162 -0.0239,0.31 -0.0718,0.444 -0.0456,0.135 -0.1094,0.257 -0.1914,0.366 -0.082,0.11 -0.18,0.206 -0.2939,0.291 -0.114,0.084 -0.2393,0.156 -0.376,0.215 l 1.0561,2.126 L 67.478,114 h -0.6665 z m -0.9946,-0.52 h 0.8476 c 0.1413,-0.002 0.2746,-0.024 0.3999,-0.065 0.1253,-0.043 0.2359,-0.105 0.3316,-0.184 0.0934,-0.08 0.1674,-0.177 0.2221,-0.291 0.0547,-0.116 0.0821,-0.249 0.0821,-0.4 0,-0.159 -0.0262,-0.298 -0.0787,-0.417 -0.0524,-0.121 -0.1253,-0.222 -0.2187,-0.304 -0.0934,-0.08 -0.2051,-0.14 -0.335,-0.181 -0.1276,-0.041 -0.2677,-0.063 -0.4204,-0.065 h -0.8305 z m 6.289,0.25 h -2.0781 v 1.763 h 2.4233 V 114 H 68.418 v -4.977 h 3.0249 v 0.54 h -2.3926 v 1.6 h 2.0781 z m 4.0708,1.042 c 0,-0.152 -0.0353,-0.281 -0.1059,-0.386 -0.0684,-0.105 -0.1573,-0.194 -0.2666,-0.267 -0.1094,-0.07 -0.2302,-0.13 -0.3623,-0.177 -0.1299,-0.048 -0.2553,-0.092 -0.376,-0.13 -0.1755,-0.057 -0.3544,-0.126 -0.5366,-0.205 -0.1801,-0.082 -0.3441,-0.18 -0.4922,-0.294 -0.1504,-0.116 -0.2735,-0.253 -0.3692,-0.41 -0.0934,-0.16 -0.1401,-0.347 -0.1401,-0.561 0,-0.214 0.0467,-0.406 0.1401,-0.574 0.0957,-0.169 0.2199,-0.311 0.3726,-0.427 0.1527,-0.117 0.3258,-0.204 0.5195,-0.264 0.1937,-0.061 0.3885,-0.092 0.5845,-0.092 0.2165,0 0.425,0.037 0.6255,0.109 0.2005,0.071 0.3782,0.171 0.5332,0.301 0.1549,0.13 0.2791,0.287 0.3725,0.472 0.0935,0.184 0.1425,0.391 0.147,0.619 h -0.6494 c -0.0182,-0.144 -0.0535,-0.274 -0.106,-0.39 -0.0524,-0.119 -0.1219,-0.22 -0.2085,-0.304 -0.0865,-0.085 -0.1902,-0.15 -0.311,-0.195 -0.1185,-0.048 -0.2529,-0.072 -0.4033,-0.072 -0.1208,0 -0.2393,0.017 -0.3555,0.051 -0.1139,0.035 -0.2153,0.086 -0.3042,0.154 -0.0911,0.069 -0.164,0.153 -0.2187,0.253 -0.0524,0.1 -0.0786,0.217 -0.0786,0.349 0.0022,0.143 0.0387,0.265 0.1093,0.365 0.0707,0.098 0.1607,0.182 0.2701,0.25 0.1071,0.068 0.2233,0.125 0.3486,0.171 0.1276,0.045 0.2472,0.085 0.3589,0.12 0.1845,0.056 0.3691,0.126 0.5537,0.208 0.1846,0.08 0.3532,0.182 0.5058,0.308 0.1504,0.116 0.2712,0.258 0.3624,0.427 0.0934,0.168 0.1401,0.363 0.1401,0.584 0,0.224 -0.0501,0.418 -0.1504,0.585 -0.098,0.166 -0.2256,0.304 -0.3828,0.413 -0.1572,0.112 -0.335,0.196 -0.5332,0.253 -0.1983,0.055 -0.3965,0.082 -0.5947,0.082 -0.237,0 -0.4706,-0.04 -0.7007,-0.119 -0.2279,-0.08 -0.4261,-0.195 -0.5948,-0.345 -0.1503,-0.13 -0.27,-0.282 -0.3588,-0.455 -0.0866,-0.176 -0.1333,-0.37 -0.1402,-0.585 h 0.646 c 0.0205,0.155 0.0627,0.293 0.1265,0.414 0.0638,0.119 0.1458,0.219 0.2461,0.301 0.1002,0.084 0.2153,0.148 0.3452,0.191 0.1322,0.041 0.2757,0.062 0.4307,0.062 0.123,0 0.2438,-0.015 0.3623,-0.045 0.1207,-0.032 0.2278,-0.081 0.3212,-0.147 0.0935,-0.063 0.1698,-0.144 0.2291,-0.242 0.0592,-0.101 0.0888,-0.219 0.0888,-0.356 z m 4.9561,-3.179 H 78.6172 V 114 H 78.002 v -4.437 h -1.5381 v -0.54 h 3.6914 z"
     fill="#000000"
     id="path6"
     clip-path="url(#clipPath51)" />
  <path
     d="M 6.67285,56.0039 V 58 H 6.04053 v -4.9766 h 1.61328 c 0.22331,0.0046 0.43408,0.0399 0.63232,0.106 0.20052,0.0661 0.37598,0.1618 0.52637,0.2871 0.15039,0.1253 0.26888,0.2803 0.35547,0.4648 0.08887,0.1846 0.1333,0.3965 0.1333,0.6358 0,0.2392 -0.04443,0.4512 -0.1333,0.6357 -0.08659,0.1823 -0.20508,0.3361 -0.35547,0.4615 -0.15039,0.1253 -0.32585,0.221 -0.52637,0.2871 -0.19824,0.066 -0.40901,0.1002 -0.63232,0.1025 z m 0,-0.5195 H 7.65381 C 7.79964,55.4821 7.93408,55.4593 8.05713,55.416 8.18018,55.3704 8.28727,55.3066 8.37842,55.2246 8.46956,55.1426 8.5402,55.0435 8.59033,54.9272 8.64274,54.8088 8.66895,54.6743 8.66895,54.5239 8.66895,54.3735 8.64274,54.238 8.59033,54.1172 8.5402,53.9964 8.4707,53.8939 8.38184,53.8096 8.29069,53.7253 8.18245,53.6603 8.05713,53.6147 7.93408,53.5692 7.79964,53.5452 7.65381,53.543 H 6.67285 Z m 6.25145,0.2153 h -2.0781 v 1.7637 h 2.4233 V 58 h -3.0556 v -4.9766 h 3.0249 v 0.5401 h -2.3926 v 1.5996 h 2.0781 z m 3.1138,0.27 H 15.0435 V 58 h -0.6289 v -4.9766 h 1.4594 c 0.2324,0.0046 0.4512,0.0376 0.6563,0.0992 0.2051,0.0615 0.3851,0.1538 0.54,0.2768 0.1527,0.1231 0.2723,0.278 0.3589,0.4649 0.0889,0.1845 0.1333,0.4021 0.1333,0.6528 0,0.1618 -0.0239,0.3099 -0.0718,0.4443 -0.0456,0.1345 -0.1094,0.2564 -0.1914,0.3657 -0.082,0.1094 -0.18,0.2063 -0.2939,0.2906 -0.114,0.0843 -0.2393,0.1561 -0.376,0.2153 L 17.6855,57.959 17.6821,58 h -0.6665 z m -0.9946,-0.5195 h 0.8476 c 0.1413,-0.0023 0.2746,-0.0239 0.3999,-0.0649 0.1253,-0.0433 0.2359,-0.1049 0.3316,-0.1846 0.0934,-0.0798 0.1674,-0.1766 0.2221,-0.2905 0.0547,-0.1163 0.0821,-0.2496 0.0821,-0.3999 0,-0.1596 -0.0262,-0.2985 -0.0787,-0.417 -0.0524,-0.1208 -0.1253,-0.2222 -0.2187,-0.3042 -0.0934,-0.0798 -0.2051,-0.1402 -0.335,-0.1812 -0.1276,-0.041 -0.2677,-0.0627 -0.4204,-0.0649 h -0.8305 z m 3.5512,-2.4268 h 3.0078 v 0.5503 h -1.1928 v 3.8794 h 1.1928 V 58 h -3.0078 v -0.5469 h 1.1656 v -3.8794 h -1.1656 z m 7.4409,2.7754 c -0.0022,0.1778 -0.0182,0.3578 -0.0478,0.5401 -0.0274,0.18 -0.0706,0.3543 -0.1299,0.5229 -0.0592,0.1686 -0.1356,0.3259 -0.229,0.4717 -0.0911,0.1458 -0.2005,0.2734 -0.3281,0.3828 -0.1276,0.1094 -0.2746,0.196 -0.4409,0.2598 -0.1641,0.0615 -0.3487,0.0923 -0.5537,0.0923 -0.2051,0 -0.3908,-0.0308 -0.5572,-0.0923 -0.164,-0.0638 -0.3099,-0.1504 -0.4375,-0.2598 -0.1276,-0.1094 -0.2381,-0.237 -0.3315,-0.3828 -0.0934,-0.1481 -0.1698,-0.3065 -0.229,-0.4751 -0.0615,-0.1686 -0.1071,-0.3429 -0.1367,-0.523 -0.0297,-0.18 -0.0456,-0.3588 -0.0479,-0.5366 v -0.5674 c 0.0023,-0.1777 0.0171,-0.3566 0.0444,-0.5366 0.0297,-0.1823 0.0752,-0.3577 0.1368,-0.5263 0.0592,-0.1687 0.1344,-0.3259 0.2255,-0.4717 0.0935,-0.1481 0.204,-0.278 0.3316,-0.3897 0.1276,-0.1093 0.2734,-0.1948 0.4375,-0.2563 0.1663,-0.0638 0.352,-0.0957 0.5571,-0.0957 0.2051,0 0.3908,0.0319 0.5571,0.0957 0.1664,0.0615 0.3134,0.147 0.441,0.2563 0.1276,0.1094 0.2369,0.2381 0.3281,0.3863 0.0934,0.1458 0.1709,0.303 0.2324,0.4716 0.0593,0.1687 0.1025,0.3441 0.1299,0.5264 0.0296,0.1823 0.0456,0.3623 0.0478,0.54 z m -0.6254,-0.5742 c -0.0023,-0.1185 -0.0103,-0.2415 -0.024,-0.3691 -0.0136,-0.1299 -0.0364,-0.2587 -0.0683,-0.3863 -0.0342,-0.1253 -0.0786,-0.2449 -0.1333,-0.3588 -0.0547,-0.1163 -0.1231,-0.2188 -0.2051,-0.3077 -0.082,-0.0866 -0.1789,-0.1549 -0.2905,-0.205 -0.1117,-0.0525 -0.2416,-0.0787 -0.3897,-0.0787 -0.1458,0 -0.2746,0.0262 -0.3862,0.0787 -0.1117,0.0524 -0.2085,0.1219 -0.2905,0.2085 -0.0821,0.0888 -0.1504,0.1914 -0.2051,0.3076 -0.0547,0.1139 -0.098,0.2335 -0.1299,0.3589 -0.0342,0.1276 -0.0592,0.2563 -0.0752,0.3862 -0.0137,0.1276 -0.0216,0.2495 -0.0239,0.3657 v 0.5742 c 0.0023,0.1162 0.0102,0.2393 0.0239,0.3692 0.016,0.1299 0.041,0.2575 0.0752,0.3828 0.0342,0.1276 0.0786,0.2495 0.1333,0.3657 0.0547,0.1162 0.123,0.2176 0.2051,0.3042 0.082,0.0889 0.1789,0.1595 0.2905,0.2119 0.1117,0.0524 0.2415,0.0786 0.3897,0.0786 0.1481,0 0.2779,-0.0262 0.3896,-0.0786 0.1139,-0.0524 0.2119,-0.123 0.2939,-0.2119 0.0798,-0.0866 0.1459,-0.1868 0.1983,-0.3008 0.0547,-0.1162 0.0991,-0.2381 0.1333,-0.3657 0.0319,-0.1253 0.0535,-0.2529 0.0649,-0.3828 0.0137,-0.1299 0.0217,-0.2541 0.024,-0.3726 z M 26.938,58 v -4.9766 h 1.1518 c 0.1937,0.0023 0.376,0.0228 0.5469,0.0616 0.1732,0.0364 0.3327,0.0888 0.4785,0.1572 0.2028,0.0934 0.3817,0.2165 0.5367,0.3691 0.1572,0.1504 0.2825,0.3247 0.3759,0.523 0.0843,0.1686 0.1481,0.3532 0.1914,0.5537 0.0456,0.2005 0.0695,0.4147 0.0718,0.6426 v 0.3657 c 0,0.2187 -0.0216,0.4261 -0.0649,0.6221 -0.041,0.1959 -0.1014,0.3759 -0.1812,0.54 -0.082,0.1709 -0.1857,0.3258 -0.311,0.4648 -0.1253,0.139 -0.2655,0.2575 -0.4204,0.3555 -0.1641,0.1025 -0.3498,0.1812 -0.5572,0.2359 -0.205,0.0546 -0.4272,0.0831 -0.6665,0.0854 z m 0.6426,-4.457 v 3.9409 h 0.5092 c 0.1823,-0.0023 0.3475,-0.0251 0.4956,-0.0684 0.1504,-0.0433 0.2837,-0.1048 0.4,-0.1845 0.123,-0.0821 0.229,-0.1823 0.3178,-0.3008 0.0912,-0.1208 0.1629,-0.2552 0.2154,-0.4033 0.0455,-0.1208 0.0797,-0.2507 0.1025,-0.3897 0.0228,-0.1413 0.0353,-0.2882 0.0376,-0.4409 v -0.3726 c -0.0023,-0.1549 -0.016,-0.303 -0.041,-0.4443 -0.0228,-0.1436 -0.0581,-0.2769 -0.106,-0.3999 C 29.4502,54.32 29.367,54.1764 29.2622,54.0488 29.1597,53.9189 29.0332,53.8141 28.8828,53.7344 28.7757,53.6751 28.6561,53.6296 28.5239,53.5977 28.3918,53.5635 28.2471,53.5452 28.0898,53.543 Z"
     fill="#000000"
     id="path8"
     clip-path="url(#clipPath49)" />
  <path
     d="M 40.543,277.563 H 39.0049 V 282 h -0.6153 v -4.437 h -1.538 v -0.54 H 40.543 Z M 44.5112,282 h -0.5981 v -2.3 h -2.0405 v 2.3 h -0.5948 v -4.977 h 0.5948 v 2.14 h 2.0405 v -2.14 h 0.5981 z m 2.731,-2.03 H 46.2476 V 282 h -0.6289 v -4.977 h 1.4594 c 0.2324,0.005 0.4512,0.038 0.6563,0.1 0.2051,0.061 0.3851,0.153 0.54,0.276 0.1527,0.123 0.2723,0.278 0.3589,0.465 0.0889,0.185 0.1333,0.402 0.1333,0.653 0,0.162 -0.0239,0.31 -0.0718,0.444 -0.0455,0.135 -0.1094,0.257 -0.1914,0.366 -0.082,0.11 -0.18,0.206 -0.2939,0.291 -0.114,0.084 -0.2393,0.156 -0.376,0.215 l 1.0561,2.126 -0.0034,0.041 h -0.6665 z m -0.9946,-0.52 h 0.8476 c 0.1413,-0.002 0.2746,-0.024 0.3999,-0.065 0.1253,-0.043 0.2359,-0.105 0.3316,-0.184 0.0934,-0.08 0.1674,-0.177 0.2221,-0.291 0.0547,-0.116 0.0821,-0.249 0.0821,-0.4 0,-0.159 -0.0262,-0.298 -0.0787,-0.417 -0.0524,-0.121 -0.1253,-0.222 -0.2187,-0.304 -0.0934,-0.08 -0.2051,-0.14 -0.335,-0.181 -0.1276,-0.041 -0.2677,-0.063 -0.4204,-0.065 h -0.8305 z m 6.6753,-2.427 0.0068,3.371 c 0,0.232 -0.041,0.45 -0.1231,0.652 -0.082,0.203 -0.1948,0.38 -0.3383,0.53 -0.1436,0.153 -0.3145,0.274 -0.5127,0.362 -0.1983,0.087 -0.4159,0.13 -0.6529,0.13 -0.2415,0 -0.4614,-0.043 -0.6596,-0.13 -0.1983,-0.086 -0.368,-0.206 -0.5093,-0.358 -0.1413,-0.151 -0.2518,-0.327 -0.3316,-0.53 -0.0797,-0.205 -0.1207,-0.424 -0.123,-0.656 l 0.0068,-3.371 h 0.6016 l 0.0137,3.371 c 0.0022,0.148 0.025,0.29 0.0683,0.427 0.0456,0.137 0.1105,0.257 0.1949,0.362 0.082,0.105 0.1845,0.189 0.3076,0.253 0.1253,0.064 0.2689,0.096 0.4306,0.096 0.1618,0 0.3042,-0.031 0.4273,-0.093 0.123,-0.063 0.2267,-0.149 0.311,-0.256 0.082,-0.105 0.1447,-0.225 0.188,-0.362 0.0433,-0.137 0.0672,-0.279 0.0718,-0.427 l 0.0102,-3.371 z"
     fill="#000000"
     id="path9"
     clip-path="url(#clipPath48)" />
  <path
     d="M69.5254 279.799C69.5231 279.977 69.5072 280.157 69.4775 280.339C69.4502 280.519 69.4069 280.693 69.3477 280.862C69.2884 281.03 69.2121 281.188 69.1187 281.333C69.0275 281.479 68.9181 281.607 68.7905 281.716C68.6629 281.826 68.516 281.912 68.3496 281.976C68.1855 282.038 68.001 282.068 67.7959 282.068C67.5908 282.068 67.4051 282.038 67.2388 281.976C67.0747 281.912 66.9289 281.826 66.8013 281.716C66.6737 281.607 66.5632 281.479 66.4697 281.333C66.3763 281.185 66.3 281.027 66.2407 280.858C66.1792 280.69 66.1336 280.515 66.104 280.335C66.0744 280.155 66.0584 279.977 66.0562 279.799V279.231C66.0584 279.054 66.0732 278.875 66.1006 278.695C66.1302 278.513 66.1758 278.337 66.2373 278.168C66.2965 278 66.3717 277.843 66.4629 277.697C66.5563 277.549 66.6668 277.419 66.7944 277.307C66.922 277.198 67.0679 277.112 67.2319 277.051C67.3983 276.987 67.584 276.955 67.7891 276.955C67.9941 276.955 68.1799 276.987 68.3462 277.051C68.5125 277.112 68.6595 277.198 68.7871 277.307C68.9147 277.417 69.0241 277.545 69.1152 277.693C69.2087 277.839 69.2861 277.996 69.3477 278.165C69.4069 278.334 69.4502 278.509 69.4775 278.691C69.5072 278.874 69.5231 279.054 69.5254 279.231V279.799ZM68.8999 279.225C68.8976 279.106 68.8896 278.983 68.876 278.855C68.8623 278.726 68.8395 278.597 68.8076 278.469C68.7734 278.344 68.729 278.224 68.6743 278.11C68.6196 277.994 68.5513 277.892 68.4692 277.803C68.3872 277.716 68.2904 277.648 68.1787 277.598C68.0671 277.545 67.9372 277.519 67.7891 277.519C67.6432 277.519 67.5145 277.545 67.4028 277.598C67.2912 277.65 67.1943 277.72 67.1123 277.806C67.0303 277.895 66.9619 277.998 66.9072 278.114C66.8525 278.228 66.8092 278.347 66.7773 278.473C66.7432 278.6 66.7181 278.729 66.7021 278.859C66.6885 278.986 66.6805 279.108 66.6782 279.225V279.799C66.6805 279.915 66.6885 280.038 66.7021 280.168C66.7181 280.298 66.7432 280.425 66.7773 280.551C66.8115 280.678 66.856 280.8 66.9106 280.917C66.9653 281.033 67.0337 281.134 67.1157 281.221C67.1978 281.31 67.2946 281.38 67.4062 281.433C67.5179 281.485 67.6478 281.511 67.7959 281.511C67.944 281.511 68.0739 281.485 68.1855 281.433C68.2995 281.38 68.3975 281.31 68.4795 281.221C68.5592 281.134 68.6253 281.034 68.6777 280.92C68.7324 280.804 68.7769 280.682 68.811 280.554C68.8429 280.429 68.8646 280.301 68.876 280.171C68.8896 280.042 68.8976 279.917 68.8999 279.799V279.225ZM73.6167 277.023L73.6235 280.394C73.6235 280.626 73.5825 280.844 73.5005 281.046C73.4185 281.249 73.3057 281.426 73.1621 281.576C73.0186 281.729 72.8477 281.85 72.6494 281.938C72.4512 282.025 72.2336 282.068 71.9966 282.068C71.755 282.068 71.5352 282.025 71.3369 281.938C71.1387 281.852 70.9689 281.732 70.8276 281.58C70.6864 281.429 70.5758 281.253 70.4961 281.05C70.4163 280.845 70.3753 280.626 70.373 280.394L70.3799 277.023H70.9814L70.9951 280.394C70.9974 280.542 71.0202 280.684 71.0635 280.821C71.109 280.958 71.174 281.078 71.2583 281.183C71.3403 281.288 71.4429 281.372 71.5659 281.436C71.6912 281.5 71.8348 281.532 71.9966 281.532C72.1584 281.532 72.3008 281.501 72.4238 281.439C72.5469 281.376 72.6506 281.29 72.7349 281.183C72.8169 281.078 72.8796 280.958 72.9229 280.821C72.9661 280.684 72.9901 280.542 72.9946 280.394L73.0049 277.023H73.6167ZM78.0532 277.563H76.5151V282H75.8999V277.563H74.3618V277.023H78.0532V277.563Z"
     fill="black"
     id="path31" />
  <path
     d="M14.3906 277.023H17.3984V277.574H16.2056V281.453H17.3984V282H14.3906V281.453H15.5562V277.574H14.3906V277.023ZM21.7119 282H21.0693L19.1382 278.281L19.1279 282H18.4888V277.023H19.1313L21.0625 280.735L21.0728 277.023H21.7119V282Z"
     fill="black"
     id="path32" />
  <defs
     id="defs32">
    <mask
       id="path-17-inside-1_0_1"
       fill="white">
      <path
         d="M41 299H49V305H41V299Z"
         id="path16" />
    </mask>
    <mask
       id="path-23-inside-2_0_1"
       fill="white">
      <path
         d="M14 187H22V193H14V187Z"
         id="path21" />
    </mask>
    <clipPath
       clipPathUnits="userSpaceOnUse"
       id="clipPath32">
      <g
         id="g33">
        <rect
           width="90"
           height="374"
           fill="#ffffff"
           id="rect33"
           x="0"
           y="3" />
      </g>
    </clipPath>
    <clipPath
       clipPathUnits="userSpaceOnUse"
       id="clipPath33">
      <g
         id="g34">
        <rect
           width="90"
           height="374"
           fill="#ffffff"
           id="rect34"
           x="0"
           y="3" />
      </g>
    </clipPath>
    <clipPath
       clipPathUnits="userSpaceOnUse"
       id="clipPath34">
      <g
         id="g35">
        <rect
           width="90"
           height="374"
           fill="#ffffff"
           id="rect35"
           x="0"
           y="3" />
      </g>
    </clipPath>
    <clipPath
       clipPathUnits="userSpaceOnUse"
       id="clipPath35">
      <g
         id="g36">
        <rect
           width="90"
           height="374"
           fill="#ffffff"
           id="rect36"
           x="0"
           y="3" />
      </g>
    </clipPath>
    <clipPath
       clipPathUnits="userSpaceOnUse"
       id="clipPath36">
      <g
         id="g37">
        <rect
           width="90"
           height="374"
           fill="#ffffff"
           id="rect37"
           x="0"
           y="3" />
      </g>
    </clipPath>
    <clipPath
       clipPathUnits="userSpaceOnUse"
       id="clipPath37">
      <g
         id="g38">
        <rect
           width="90"
           height="374"
           fill="#ffffff"
           id="rect38"
           x="0"
           y="3" />
      </g>
    </clipPath>
    <clipPath
       clipPathUnits="userSpaceOnUse"
       id="clipPath38">
      <g
         id="g39">
        <rect
           width="90"
           height="374"
           fill="#ffffff"
           id="rect39"
           x="0"
           y="3" />
      </g>
    </clipPath>
    <clipPath
       clipPathUnits="userSpaceOnUse"
       id="clipPath39">
      <g
         id="g40">
        <rect
           width="90"
           height="374"
           fill="#ffffff"
           id="rect40"
           x="0"
           y="3" />
      </g>
    </clipPath>
    <clipPath
       clipPathUnits="userSpaceOnUse"
       id="clipPath40">
      <g
         id="g41">
        <rect
           width="90"
           height="374"
           fill="#ffffff"
           id="rect41"
           x="0"
           y="3" />
      </g>
    </clipPath>
    <clipPath
       clipPathUnits="userSpaceOnUse"
       id="clipPath41">
      <g
         id="g42">
        <rect
           width="90"
           height="374"
           fill="#ffffff"
           id="rect42"
           x="0"
           y="3" />
      </g>
    </clipPath>
    <clipPath
       clipPathUnits="userSpaceOnUse"
       id="clipPath42">
      <g
         id="g43">
        <rect
           width="90"
           height="374"
           fill="#ffffff"
           id="rect43"
           x="0"
           y="3" />
      </g>
    </clipPath>
    <clipPath
       clipPathUnits="userSpaceOnUse"
       id="clipPath43">
      <g
         id="g44">
        <rect
           width="90"
           height="374"
           fill="#ffffff"
           id="rect44"
           x="0"
           y="3" />
      </g>
    </clipPath>
    <clipPath
       clipPathUnits="userSpaceOnUse"
       id="clipPath44">
      <g
         id="g45">
        <rect
           width="90"
           height="374"
           fill="#ffffff"
           id="rect45"
           x="0"
           y="3" />
      </g>
    </clipPath>
    <clipPath
       clipPathUnits="userSpaceOnUse"
       id="clipPath45">
      <g
         id="g46">
        <rect
           width="90"
           height="374"
           fill="#ffffff"
           id="rect46"
           x="0"
           y="3" />
      </g>
    </clipPath>
    <clipPath
       clipPathUnits="userSpaceOnUse"
       id="clipPath46">
      <g
         id="g47">
        <rect
           width="90"
           height="374"
           fill="#ffffff"
           id="rect47"
           x="0"
           y="3" />
      </g>
    </clipPath>
    <clipPath
       clipPathUnits="userSpaceOnUse"
       id="clipPath47">
      <g
         id="g48">
        <rect
           width="90"
           height="374"
           fill="#ffffff"
           id="rect48"
           x="0"
           y="3" />
      </g>
    </clipPath>
    <clipPath
       clipPathUnits="userSpaceOnUse"
       id="clipPath48">
      <g
         id="g49">
        <rect
           width="90"
           height="374"
           fill="#ffffff"
           id="rect49"
           x="0"
           y="3" />
      </g>
    </clipPath>
    <clipPath
       clipPathUnits="userSpaceOnUse"
       id="clipPath49">
      <g
         id="g50">
        <rect
           width="90"
           height="374"
           fill="#ffffff"
           id="rect50"
           x="0"
           y="3" />
      </g>
    </clipPath>
    <clipPath
       clipPathUnits="userSpaceOnUse"
       id="clipPath50">
      <g
         id="g51">
        <rect
           width="90"
           height="374"
           fill="#ffffff"
           id="rect51"
           x="0"
           y="3" />
      </g>
    </clipPath>
    <clipPath
       clipPathUnits="userSpaceOnUse"
       id="clipPath51">
      <g
         id="g52">
        <rect
           width="90"
           height="374"
           fill="#ffffff"
           id="rect52"
           x="0"
           y="3" />
      </g>
    </clipPath>
    <clipPath
       clipPathUnits="userSpaceOnUse"
       id="clipPath52">
      <g
         id="g53">
        <rect
           width="90"
           height="374"
           fill="#ffffff"
           id="rect53"
           x="0"
           y="3" />
      </g>
    </clipPath>
    <clipPath
       clipPathUnits="userSpaceOnUse"
       id="clipPath53">
      <g
         id="g54">
        <rect
           width="90"
           height="374"
           fill="#ffffff"
           id="rect54"
           x="0"
           y="3" />
      </g>
    </clipPath>
    <clipPath
       clipPathUnits="userSpaceOnUse"
       id="clipPath54">
      <g
         id="g55">
        <rect
           width="90"
           height="374"
           fill="#ffffff"
           id="rect55"
           x="0"
           y="3" />
      </g>
    </clipPath>
    <clipPath
       clipPathUnits="userSpaceOnUse"
       id="clipPath55">
      <g
         id="g56">
        <rect
           width="90"
           height="374"
           fill="#ffffff"
           id="rect56"
           x="0"
           y="3" />
      </g>
    </clipPath>
  </defs>
  <g
     id="g2"
     transform="matrix(0.3,0,0,0.3,26.295,293.8)"
     inkscape:label="logo"
     style="fill:#000000">
    <path
       class="cls-1"
       d="m 80.7,201.8 c 0.3,0.3 0.6,1 0.6,1.4 v 4 c 0,0.5 -0.3,1.1 -0.6,1.4 l -0.7,0.7 c -0.3,0.3 -1,0.6 -1.4,0.6 H 55.5 c -0.5,0 -1.1,0.3 -1.4,0.6 l -0.7,0.7 c -0.3,0.3 -0.6,1 -0.6,1.4 v 5.9 c 0,0.5 0.4,0.8 0.8,0.8 h 25 c 0.5,0 1.1,0.3 1.4,0.6 l 0.7,0.7 c 0.3,0.3 0.6,1 0.6,1.4 v 13.5 c 0,0.5 -0.3,1.1 -0.6,1.4 l -0.7,0.7 c -0.3,0.3 -1,0.6 -1.4,0.6 h -4 c -0.5,0 -1.1,0.3 -1.4,0.6 l -0.7,0.7 c -0.3,0.3 -0.6,1 -0.6,1.4 v 4 c 0,0.5 -0.3,1.1 -0.6,1.4 l -0.7,0.7 c -0.3,0.3 -1,0.6 -1.4,0.6 H 46 c -0.5,0 -1.1,-0.3 -1.4,-0.6 l -0.7,-0.7 c -0.3,-0.3 -0.6,-1 -0.6,-1.4 v -4 c 0,-0.5 0.3,-1.1 0.6,-1.4 l 0.7,-0.7 c 0.3,-0.3 1,-0.6 1.4,-0.6 h 23.1 c 0.5,0 1.1,-0.3 1.4,-0.6 l 0.7,-0.7 c 0.3,-0.3 0.6,-1 0.6,-1.4 v -4 c 0,-0.5 -0.3,-1.1 -0.6,-1.4 l -0.7,-0.7 c -0.3,-0.3 -1,-0.6 -1.4,-0.6 H 46 c -0.5,0 -1.1,-0.3 -1.4,-0.6 l -0.7,-0.7 c -0.3,-0.3 -0.6,-1 -0.6,-1.4 v -13.5 c 0,-0.5 0.3,-1.1 0.6,-1.4 l 0.7,-0.7 c 0.3,-0.3 1,-0.6 1.4,-0.6 h 4 c 0.5,0 1.1,-0.3 1.4,-0.6 l 0.7,-0.7 c 0.3,-0.3 0.6,-1 0.6,-1.4 v -4 c 0,-0.5 0.3,-1.1 0.6,-1.4 l 0.7,-0.7 c 0.3,-0.3 1,-0.6 1.4,-0.6 h 23.1 c 0.5,0 1.1,0.3 1.4,0.6 l 0.7,0.7 z"
       id="path1-3"
       style="fill:#000000;stroke-width:0.3" />
    <path
       class="cls-1"
       d="m 17.6,191 c 0.5,0 1.1,0.3 1.4,0.6 l 0.7,0.7 c 0.3,0.3 0.6,1 0.6,1.4 v 13.5 c 0,0.5 0.3,1.1 0.6,1.4 l 0.7,0.7 c 0.3,0.3 1,0.6 1.4,0.6 h 13.5 c 0.5,0 1.1,0.3 1.4,0.6 l 0.7,0.7 c 0.3,0.3 0.6,1 0.6,1.4 v 4 c 0,0.5 -0.3,1.1 -0.6,1.4 l -0.7,0.7 c -0.3,0.3 -1,0.6 -1.4,0.6 H 23.1 c -0.5,0 -1.1,0.3 -1.4,0.6 l -0.7,0.7 c -0.3,0.3 -0.6,1 -0.6,1.4 v 13.5 c 0,0.5 0.3,1.1 0.6,1.4 l 0.7,0.7 c 0.3,0.3 1,0.6 1.4,0.6 h 13.5 c 0.5,0 1.1,0.3 1.4,0.6 l 0.7,0.7 c 0.3,0.3 0.6,1 0.6,1.4 v 4 c 0,0.5 -0.3,1.1 -0.6,1.4 L 38,247 c -0.3,0.3 -1,0.6 -1.4,0.6 H 23.1 c -0.5,0 -1.1,-0.3 -1.4,-0.6 L 21,246.3 c -0.3,-0.3 -0.6,-1 -0.6,-1.4 v -4 c 0,-0.5 -0.3,-1.1 -0.6,-1.4 l -0.7,-0.7 c -0.3,-0.3 -1,-0.6 -1.4,-0.6 h -4 c -0.5,0 -1.1,-0.3 -1.4,-0.6 l -0.7,-0.7 c -0.3,-0.3 -0.6,-1 -0.6,-1.4 V 222 c 0,-0.5 -0.3,-1.1 -0.6,-1.4 l -0.7,-0.7 c -0.3,-0.3 -1,-0.6 -1.4,-0.6 h -4 c -0.5,0 -1.1,-0.3 -1.4,-0.6 L 2.2,218 c -0.3,-0.3 -0.6,-1 -0.6,-1.4 v -4 c 0,-0.5 0.3,-1.1 0.6,-1.4 l 0.7,-0.7 c 0.3,-0.3 1,-0.6 1.4,-0.6 h 4 c 0.5,0 1.1,-0.3 1.4,-0.6 l 0.7,-0.7 c 0.3,-0.3 0.6,-1 0.6,-1.4 v -13.5 c 0,-0.5 0.3,-1.1 0.6,-1.4 l 0.7,-0.7 c 0.3,-0.3 1,-0.6 1.4,-0.6 h 4 z"
       id="path2-8"
       style="fill:#000000;stroke-width:0.3" />
    <path
       class="cls-1"
       d="m 121.9,210.6 c -0.3,-0.3 -1,-0.6 -1.4,-0.6 h -4 c -0.5,0 -1.1,-0.3 -1.4,-0.6 l -0.7,-0.7 c -0.3,-0.3 -0.6,-1 -0.6,-1.4 v -4 c 0,-0.5 -0.3,-1.1 -0.6,-1.4 l -0.7,-0.7 c -0.3,-0.3 -1,-0.6 -1.4,-0.6 H 87.9 c -0.5,0 -1.1,0.3 -1.4,0.6 l -0.7,0.7 c -0.3,0.3 -0.6,1 -0.6,1.4 v 4 c 0,0.5 0.3,1.1 0.6,1.4 l 0.7,0.7 c 0.3,0.3 1,0.6 1.4,0.6 H 111 c 0.5,0 1.1,0.3 1.4,0.6 l 0.7,0.7 c 0.3,0.3 0.6,1 0.6,1.4 v 4 c 0,0.5 -0.3,1.1 -0.6,1.4 l -0.7,0.7 c -0.3,0.3 -1,0.6 -1.4,0.6 H 87.9 c -0.5,0 -1.1,0.3 -1.4,0.6 l -0.7,0.7 c -0.3,0.3 -0.6,1 -0.6,1.4 v 13.5 c 0,0.5 0.3,1.1 0.6,1.4 l 0.7,0.7 c 0.3,0.3 1,0.6 1.4,0.6 h 4 c 0.5,0 1.1,0.3 1.4,0.6 l 0.7,0.7 c 0.3,0.3 0.6,1 0.6,1.4 v 4 c 0,0.5 0.3,1.1 0.6,1.4 l 0.7,0.7 c 0.3,0.3 1,0.6 1.4,0.6 h 23.1 c 0.5,0 1.1,-0.3 1.4,-0.6 l 0.7,-0.7 c 0.3,-0.3 0.6,-1 0.6,-1.4 v -32.6 c 0,-0.5 -0.3,-1.1 -0.6,-1.4 l -0.7,-0.7 z m -8.2,25.2 c 0,0.5 -0.3,1.1 -0.6,1.4 l -0.7,0.7 c -0.3,0.3 -1,0.6 -1.4,0.6 H 97.4 c -0.5,0 -1.1,-0.3 -1.4,-0.6 l -0.7,-0.7 c -0.3,-0.3 -0.6,-1 -0.6,-1.4 v -4 c 0,-0.5 0.3,-1.1 0.6,-1.4 l 0.7,-0.7 c 0.3,-0.3 1,-0.6 1.4,-0.6 h 13.5 c 0.5,0 1.1,0.3 1.4,0.6 l 0.7,0.7 c 0.3,0.3 0.6,1 0.6,1.4 z"
       id="path3-0"
       style="fill:#000000;stroke-width:0.3" />
  </g>
  <path
     d="m 23.529032,27 h 1.176 v -3.654 h 1.548 l 1.53,2.226 V 27 h 1.17 v -1.572 l -1.62,-2.286 1.728,-1.59 v -1.566 l -1.938,-1.746 h -3.594 z m 1.176,-4.476 v -3.282 h 1.926 l 1.278,1.146 v 0.852 l -1.278,1.284 z M 30.999019,27 h 5.202 l 0.144,-0.984 h -4.182 v -2.928 h 3.216 v -0.936 h -3.216 v -2.928 h 3.96 l -0.138,-0.984 h -4.986 z m 7.409987,0 h 1.176 v -3.234 h 2.508 l 1.89,-1.998 v -1.824 l -1.878,-1.704 h -3.696 z m 1.176,-4.116 v -3.642 h 2.004 l 1.242,1.086 v 1.074 l -1.284,1.482 z M 45.878994,27 h 5.202 l 0.144,-0.984 h -4.182 v -2.928 h 3.216 v -0.936 h -3.216 v -2.928 h 3.96 l -0.138,-0.984 h -4.986 z m 7.379987,0 h 1.158 v -2.4 h 2.94 V 27 h 1.158 v -5.31 l -1.932,-3.45 h -1.392 l -1.932,3.45 z m 1.158,-3.282 v -1.674 l 1.47,-2.778 1.47,2.766 v 1.686 z M 62.708968,27 h 1.164 v -7.776 h 2.598 l -0.096,-0.984 h -6.096 l -0.102,0.984 h 2.532 z"
     id="text1"
     style="font-size:12px;font-family:'Monaspace Krypton';-inkscape-font-specification:'Monaspace Krypton, Normal';text-align:center;text-anchor:middle;fill:#000000"
     aria-label="REPEAT" />
</svg>
